<?xml version="1.0" encoding="utf-8"?>
<!-- Generator: Adobe Illustrator 15.0.0, SVG Export Plug-In  -->
<!DOCTYPE svg PUBLIC "-//W3C//DTD SVG 1.1//EN" "http://www.w3.org/Graphics/SVG/1.1/DTD/svg11.dtd" [
	<!ENTITY ns_flows "http://ns.adobe.com/Flows/1.0/">
]>
<svg version="1.1"
	 xmlns="http://www.w3.org/2000/svg" xmlns:xlink="http://www.w3.org/1999/xlink" xmlns:a="http://ns.adobe.com/AdobeSVGViewerExtensions/3.0/"
	 x="0px" y="0px" width="28px" height="28px" viewBox="0 0.001 28 28" enable-background="new 0 0.001 28 28" xml:space="preserve">
<defs>
</defs>
<path fill="#E32219" d="M14,1.001c-7.179,0-13,5.821-13,13c0,7.179,5.821,13,13,13s13-5.821,13-13C27,6.822,21.179,1.001,14,1.001"
	/>
<path fill="#FFFFFF" d="M19.746,17.446c0.636,0.636,0.636,1.664,0,2.298c-0.316,0.317-0.733,0.476-1.148,0.476
	c-0.416,0-0.832-0.159-1.149-0.476L14,16.298l-3.447,3.447c-0.317,0.317-0.733,0.476-1.149,0.476s-0.83-0.159-1.149-0.476
	c-0.633-0.635-0.633-1.662,0-2.298l3.447-3.447l-3.447-3.447c-0.633-0.635-0.633-1.663,0-2.298c0.635-0.635,1.665-0.635,2.298,0
	L14,11.702l3.448-3.447c0.636-0.635,1.662-0.635,2.298,0c0.636,0.635,0.636,1.663,0,2.298l-3.448,3.447L19.746,17.446z"/>
<rect display="none" opacity="0.2" fill="#E94E47" width="28" height="28"/>
</svg>
