<?xml version="1.0" encoding="utf-8"?>
<!-- Generator: Adobe Illustrator 15.0.0, SVG Export Plug-In  -->
<!DOCTYPE svg PUBLIC "-//W3C//DTD SVG 1.1//EN" "http://www.w3.org/Graphics/SVG/1.1/DTD/svg11.dtd" [
	<!ENTITY ns_flows "http://ns.adobe.com/Flows/1.0/">
]>
<svg version="1.1"
	 xmlns="http://www.w3.org/2000/svg" xmlns:xlink="http://www.w3.org/1999/xlink" xmlns:a="http://ns.adobe.com/AdobeSVGViewerExtensions/3.0/"
	 x="0px" y="0px" width="28px" height="28px" viewBox="0 0.001 28 28" enable-background="new 0 0.001 28 28" xml:space="preserve">
<defs>
</defs>
<circle fill="#00A9D4" cx="14" cy="14.001" r="13"/>
<path fill="#FFFFFF" d="M12.375,14.001c0-0.894,0.731-1.625,1.625-1.625l0,0c0.894,0,1.625,0.731,1.625,1.625v6.5
	c0,0.894-0.731,1.625-1.625,1.625l0,0c-0.894,0-1.625-0.731-1.625-1.625V14.001z"/>
<path fill="#FFFFFF" d="M12.375,7.176c0-0.715,0.585-1.3,1.3-1.3h0.65c0.715,0,1.3,0.585,1.3,1.3v0.65c0,0.715-0.585,1.3-1.3,1.3
	h-0.65c-0.715,0-1.3-0.585-1.3-1.3V7.176z"/>
<rect display="none" opacity="0.2" fill="#E94E47" width="28" height="28"/>
</svg>
