<?xml version="1.0" encoding="utf-8"?>
<!-- Generator: Adobe Illustrator 15.0.0, SVG Export Plug-In  -->
<!DOCTYPE svg PUBLIC "-//W3C//DTD SVG 1.1//EN" "http://www.w3.org/Graphics/SVG/1.1/DTD/svg11.dtd" [
	<!ENTITY ns_flows "http://ns.adobe.com/Flows/1.0/">
]>
<svg version="1.1"
	 xmlns="http://www.w3.org/2000/svg" xmlns:xlink="http://www.w3.org/1999/xlink" xmlns:a="http://ns.adobe.com/AdobeSVGViewerExtensions/3.0/"
	 x="0px" y="0px" width="16px" height="16px" viewBox="0 0 16 16" enable-background="new 0 0 16 16" xml:space="preserve">
<defs>
</defs>
<path fill="#000000" d="M8,0C3.582,0,0,3.582,0,8c0,4.418,3.582,8,8,8c4.418,0,8-3.582,8-8C16,3.582,12.418,0,8,0z M11.609,10.743
	l-0.867,0.866c-0.158,0.158-0.418,0.158-0.576,0L8,9.444l-2.166,2.165c-0.159,0.158-0.418,0.158-0.577-0.002l-0.867-0.864
	c-0.158-0.159-0.158-0.417,0-0.578L6.556,8L4.392,5.836c-0.159-0.16-0.159-0.419,0-0.578l0.866-0.866c0.159-0.16,0.419-0.16,0.577,0
	L8,6.557l2.166-2.165c0.158-0.16,0.418-0.16,0.576,0l0.867,0.865c0.158,0.159,0.158,0.419,0,0.579L9.443,8l2.166,2.165
	C11.768,10.326,11.768,10.584,11.609,10.743z"/>
</svg>
