<?xml version="1.0" encoding="utf-8"?>
<!-- Generator: Adobe Illustrator 15.0.0, SVG Export Plug-In . SVG Version: 6.00 Build 0)  -->
<!DOCTYPE svg PUBLIC "-//W3C//DTD SVG 1.1//EN" "http://www.w3.org/Graphics/SVG/1.1/DTD/svg11.dtd">
<svg version="1.1" id="Layer_1" xmlns="http://www.w3.org/2000/svg" xmlns:xlink="http://www.w3.org/1999/xlink" x="0px" y="0px"
	 width="16px" height="16px" viewBox="0 0 16 16" enable-background="new 0 0 16 16" xml:space="preserve">
<g>
	<g>
		<circle fill="#3D3A39" cx="8" cy="8" r="6.243"/>
		<path fill="#FFFFFF" d="M8.009,5.21c-0.219,0-0.406-0.067-0.561-0.201C7.293,4.875,7.215,4.685,7.215,4.44
			c0-0.223,0.08-0.405,0.238-0.55c0.161-0.143,0.345-0.215,0.556-0.215c0.203,0,0.384,0.065,0.54,0.195
			C8.707,4,8.785,4.19,8.785,4.44c0,0.241-0.076,0.43-0.23,0.566C8.401,5.143,8.22,5.21,8.009,5.21z M8.785,7.222v4.147
			c0,0.314-0.075,0.553-0.225,0.715c-0.148,0.16-0.34,0.24-0.569,0.24c-0.23,0-0.417-0.082-0.561-0.246s-0.216-0.4-0.216-0.709
			V7.269c0-0.311,0.072-0.544,0.216-0.702c0.144-0.158,0.33-0.236,0.561-0.236c0.229,0,0.421,0.078,0.569,0.236
			C8.71,6.724,8.785,6.943,8.785,7.222z"/>
	</g>
	<rect x="1.129" y="1.129" fill="none" width="13.742" height="13.742"/>
</g>
</svg>
