<?xml version="1.0" encoding="utf-8"?>
<!-- Generator: Adobe Illustrator 15.0.0, SVG Export Plug-In  -->
<!DOCTYPE svg PUBLIC "-//W3C//DTD SVG 1.1//EN" "http://www.w3.org/Graphics/SVG/1.1/DTD/svg11.dtd" [
	<!ENTITY ns_flows "http://ns.adobe.com/Flows/1.0/">
]>
<svg version="1.1"
	 xmlns="http://www.w3.org/2000/svg" xmlns:xlink="http://www.w3.org/1999/xlink" xmlns:a="http://ns.adobe.com/AdobeSVGViewerExtensions/3.0/"
	 x="0px" y="0px" width="16px" height="16px" viewBox="0 0 16 16" style="enable-background:new 0 0 16 16;" xml:space="preserve">
<defs>
</defs>
<path d="M15.7,13.5l-2.9-2.9c-0.4-0.4-0.9-0.4-1.3-0.2l-0.5-0.5c0.8-1,1.3-2.4,1.3-3.8C12.2,2.7,9.5,0,6.1,0C2.7,0,0,2.7,0,6.1
	s2.7,6.1,6.1,6.1c1.4,0,2.7-0.5,3.8-1.3l0.5,0.5c-0.2,0.4-0.2,1,0.2,1.3l2.9,2.9c0.4,0.4,1.2,0.4,1.6,0l0.5-0.5
	C16.1,14.7,16.1,14,15.7,13.5 M1.1,6.1c0-2.8,2.2-5,5-5c2.8,0,5,2.2,5,5c0,2.8-2.2,5-5,5C3.4,11.1,1.1,8.9,1.1,6.1"/>
</svg>
