<?xml version="1.0" encoding="utf-8"?>
<!-- Generator: Adobe Illustrator 15.0.0, SVG Export Plug-In  -->
<!DOCTYPE svg PUBLIC "-//W3C//DTD SVG 1.1//EN" "http://www.w3.org/Graphics/SVG/1.1/DTD/svg11.dtd" [
	<!ENTITY ns_flows "http://ns.adobe.com/Flows/1.0/">
]>
<svg version="1.1"
	 xmlns="http://www.w3.org/2000/svg" xmlns:xlink="http://www.w3.org/1999/xlink" xmlns:a="http://ns.adobe.com/AdobeSVGViewerExtensions/3.0/"
	 x="0px" y="0px" width="10px" height="10px" viewBox="0 0.001 10 10" enable-background="new 0 0.001 10 10" xml:space="preserve">
<defs>
</defs>
<path d="M3.293,8.708l-3-3C0.098,5.513,0,5.257,0,5.001S0.098,4.49,0.293,4.294l3-3c0.391-0.391,1.023-0.391,1.414,0
	s0.391,1.023,0,1.414L2.414,5.001l2.293,2.293c0.391,0.391,0.391,1.023,0,1.414S3.684,9.099,3.293,8.708z"/>
<path d="M8.293,8.708l-3-3C5.098,5.513,5,5.257,5,5.001S5.098,4.49,5.293,4.294l3-3c0.391-0.391,1.023-0.391,1.414,0
	s0.391,1.023,0,1.414L7.414,5.001l2.293,2.293c0.391,0.391,0.391,1.023,0,1.414S8.684,9.099,8.293,8.708z"/>
<rect display="none" opacity="0.2" fill="#E94E47" width="10" height="10"/>
</svg>
