<?xml version="1.0" encoding="utf-8"?>
<!-- Generator: Adobe Illustrator 15.0.0, SVG Export Plug-In  -->
<!DOCTYPE svg PUBLIC "-//W3C//DTD SVG 1.1//EN" "http://www.w3.org/Graphics/SVG/1.1/DTD/svg11.dtd" [
	<!ENTITY ns_flows "http://ns.adobe.com/Flows/1.0/">
]>
<svg version="1.1"
	 xmlns="http://www.w3.org/2000/svg" xmlns:xlink="http://www.w3.org/1999/xlink" xmlns:a="http://ns.adobe.com/AdobeSVGViewerExtensions/3.0/"
	 x="0px" y="0px" width="16px" height="16px" viewBox="-1.5 -1.5 16 16" enable-background="new -1.5 -1.5 16 16"
	 xml:space="preserve">
<defs>
</defs>
<path fill="#FFFFFF" d="M11.828,1.173c-1.563-1.563-4.096-1.563-5.656-0.002C4.963,2.38,4.701,4.165,5.361,5.638L0,10.999v1.999h2
	v-2h2v-2h2l1.218-1.438c1.499,0.75,3.362,0.518,4.612-0.732C13.393,5.266,13.393,2.733,11.828,1.173z M9,5.999
	c-1.107,0-2.002-0.896-2-2c-0.001-1.103,0.893-2,2-2c1.105,0,2,0.896,2,2C11,5.103,10.107,5.998,9,5.999z"/>
</svg>
