<?xml version="1.0" encoding="utf-8"?>
<!-- Generator: Adobe Illustrator 15.0.0, SVG Export Plug-In . SVG Version: 6.00 Build 0)  -->
<!DOCTYPE svg PUBLIC "-//W3C//DTD SVG 1.1//EN" "http://www.w3.org/Graphics/SVG/1.1/DTD/svg11.dtd">
<svg version="1.1" id="Layer_1" xmlns="http://www.w3.org/2000/svg" xmlns:xlink="http://www.w3.org/1999/xlink" x="0px" y="0px"
	 width="16px" height="16px" viewBox="0 0 16 16" enable-background="new 0 0 16 16" xml:space="preserve">
<rect display="none" fill="#66A19F" width="87" height="3280.97"/>
<rect x="13" y="2277.97" display="none" opacity="0.2" fill="#E94E47" enable-background="new    " width="16" height="16"/>
<g>
	<g>
		<g>
			<g>
				<path d="M14.827,12.743c0.021-0.081,0.094-0.136,0.176-0.136H16v-1.215h-0.997c-0.082,0-0.155-0.055-0.176-0.135
					c-0.067-0.258-0.169-0.506-0.304-0.734c-0.041-0.068-0.029-0.158,0.027-0.217L15.257,9.6L14.4,8.745l-0.705,0.704
					c-0.06,0.059-0.149,0.068-0.219,0.027c-0.229-0.134-0.478-0.234-0.733-0.303c-0.08-0.02-0.136-0.094-0.136-0.176V8.001h-1.213
					v0.997c0,0.082-0.056,0.156-0.137,0.176C11,9.241,10.755,9.343,10.523,9.477c-0.07,0.041-0.16,0.03-0.219-0.027L9.602,8.744
					L8.743,9.6l0.705,0.707c0.059,0.06,0.071,0.148,0.028,0.219c-0.135,0.229-0.234,0.477-0.305,0.733
					c-0.021,0.08-0.093,0.136-0.177,0.136H8v1.213h0.996c0.084,0,0.154,0.056,0.177,0.137c0.069,0.257,0.17,0.503,0.304,0.732
					c0.043,0.069,0.03,0.159-0.027,0.219L8.744,14.4l0.857,0.857l0.705-0.705c0.057-0.059,0.146-0.068,0.217-0.027
					c0.231,0.134,0.478,0.234,0.734,0.303c0.081,0.021,0.137,0.094,0.137,0.176V16h1.213v-0.997c0-0.082,0.056-0.155,0.136-0.176
					c0.257-0.067,0.504-0.169,0.733-0.304c0.068-0.041,0.159-0.029,0.219,0.028l0.705,0.705l0.856-0.858l-0.705-0.703
					c-0.058-0.061-0.067-0.149-0.026-0.219C14.658,13.246,14.76,13,14.827,12.743z M11.999,13.477c-0.813,0-1.476-0.66-1.476-1.476
					s0.662-1.478,1.476-1.478c0.815,0,1.478,0.662,1.478,1.478C13.477,12.814,12.814,13.477,11.999,13.477z"/>
			</g>
		</g>
	</g>
</g>
<polygon points="6,6 0,12 0,15 2,15 2,13 4,13 4,11 6,11 9,8 "/>
<path d="M12.682,1.319c-1.759-1.758-4.607-1.758-6.365-0.002c-1.758,1.759-1.758,4.608,0,6.366
	c1.76,1.756,4.607,1.756,6.365,0C14.439,5.924,14.438,3.076,12.682,1.319z M9.641,6.611c-1.245,0-2.251-1.009-2.25-2.25
	C7.389,3.119,8.396,2.11,9.641,2.11c1.242,0,2.25,1.007,2.25,2.25C11.891,5.602,10.883,6.609,9.641,6.611z"/>
</svg>
