<?xml version="1.0" encoding="utf-8"?>
<!-- Generator: Adobe Illustrator 15.0.0, SVG Export Plug-In . SVG Version: 6.00 Build 0)  -->
<!DOCTYPE svg PUBLIC "-//W3C//DTD SVG 1.1//EN" "http://www.w3.org/Graphics/SVG/1.1/DTD/svg11.dtd">
<svg version="1.1" id="Layer_1" xmlns="http://www.w3.org/2000/svg" xmlns:xlink="http://www.w3.org/1999/xlink" x="0px" y="0px"
	 width="16px" height="16px" viewBox="0 0 16 16" enable-background="new 0 0 16 16" xml:space="preserve">
<rect display="none" fill="#66A19F" width="87" height="3280.97"/>
<rect x="13" y="2757.97" display="none" opacity="0.2" fill="#E94E47" enable-background="new    " width="16" height="16"/>
<polygon points="7,6 1,12 1,15 3,15 3,13 5,13 5,11 7,11 10,8 "/>
<path d="M13.682,1.318C11.923-0.44,9.074-0.44,7.317,1.316c-1.758,1.76-1.758,4.607,0,6.365
	c1.76,1.758,4.607,1.758,6.365,0S15.438,3.076,13.682,1.318z M10.641,6.61c-1.246,0-2.251-1.008-2.25-2.25
	c-0.001-1.241,1.004-2.25,2.25-2.25c1.243,0,2.25,1.007,2.25,2.25C12.891,5.602,11.884,6.609,10.641,6.61z"/>
</svg>
