<?xml version="1.0" encoding="utf-8"?>
<!-- Generator: Adobe Illustrator 15.0.0, SVG Export Plug-In  -->
<!DOCTYPE svg PUBLIC "-//W3C//DTD SVG 1.1//EN" "http://www.w3.org/Graphics/SVG/1.1/DTD/svg11.dtd" [
	<!ENTITY ns_flows "http://ns.adobe.com/Flows/1.0/">
]>
<svg version="1.1"
	 xmlns="http://www.w3.org/2000/svg" xmlns:xlink="http://www.w3.org/1999/xlink" xmlns:a="http://ns.adobe.com/AdobeSVGViewerExtensions/3.0/"
	 x="0px" y="0px" width="16px" height="16px" viewBox="0 0 16 16" enable-background="new 0 0 16 16" xml:space="preserve">
<defs>
</defs>
<polygon fill="#FFFFFF" points="6,4.999 0,10.999 0,12.999 2,12.999 2,10.999 4,10.999 4,8.999 6,8.999 8,6.636 "/>
<path fill="#FFFFFF" d="M11.828,1.172C10.267-0.39,7.732-0.39,6.172,1.17c-1.563,1.563-1.563,4.096,0,5.658
	c1.564,1.562,4.096,1.562,5.658,0S13.391,2.733,11.828,1.172 M9.877,4.375c-0.692,0-1.251-0.561-1.25-1.25
	c-0.001-0.689,0.558-1.25,1.25-1.25c0.689,0,1.248,0.56,1.248,1.25C11.127,3.814,10.566,4.374,9.877,4.375"/>
<path fill="#FFFFFF" d="M14.826,12.743c0.021-0.081,0.094-0.136,0.176-0.136H16v-1.213h-0.998c-0.082,0-0.154-0.057-0.176-0.137
	c-0.066-0.258-0.168-0.506-0.303-0.733c-0.041-0.069-0.029-0.159,0.027-0.218L15.256,9.6l-0.857-0.855l-0.705,0.704
	c-0.059,0.058-0.148,0.067-0.219,0.026c-0.229-0.133-0.477-0.233-0.732-0.302c-0.08-0.019-0.137-0.093-0.137-0.175V8h-1.213v0.998
	c0,0.082-0.055,0.156-0.135,0.175C11,9.241,10.754,9.342,10.523,9.475c-0.07,0.041-0.16,0.031-0.218-0.026L9.601,8.744L8.743,9.6
	l0.705,0.707c0.059,0.059,0.071,0.148,0.028,0.218C9.343,10.752,9.242,11,9.173,11.258c-0.021,0.08-0.093,0.137-0.177,0.137H8v1.213
	h0.996c0.084,0,0.155,0.055,0.177,0.136c0.069,0.256,0.17,0.503,0.304,0.733c0.043,0.068,0.03,0.158-0.028,0.219l-0.705,0.704
	l0.857,0.857l0.705-0.705c0.058-0.058,0.147-0.068,0.218-0.027c0.23,0.134,0.477,0.234,0.734,0.303
	c0.08,0.021,0.135,0.093,0.135,0.175v0.997h1.213v-0.997c0-0.082,0.057-0.154,0.137-0.175c0.256-0.068,0.504-0.169,0.732-0.303
	c0.07-0.041,0.16-0.03,0.219,0.027l0.705,0.705l0.857-0.857l-0.705-0.704c-0.057-0.061-0.068-0.15-0.027-0.219
	C14.658,13.246,14.76,12.999,14.826,12.743 M11.998,13.477c-0.813,0-1.475-0.661-1.475-1.477c0-0.814,0.662-1.476,1.475-1.476
	c0.816,0,1.479,0.661,1.479,1.476C13.477,12.815,12.814,13.477,11.998,13.477"/>
</svg>
