<?xml version="1.0" encoding="utf-8"?>
<!DOCTYPE svg PUBLIC "-//W3C//DTD SVG 1.1//EN" "http://www.w3.org/Graphics/SVG/1.1/DTD/svg11.dtd">
<svg version="1.1" id="Layer_1" xmlns="http://www.w3.org/2000/svg" xmlns:xlink="http://www.w3.org/1999/xlink" x="0px" y="0px"
	 width="16px" height="16px" viewBox="0 0 16 16" enable-background="new 0 0 16 16" xml:space="preserve">
<g>
	<g>
		<path fill="#1D1D1B" d="M12,7c0-1.709-0.984-2.682-2.304-2.93C9.343,2.229,8.717,1,8,1S6.657,2.229,6.304,4.07
			C4.984,4.318,4,5.291,4,7c0,3-2,3.76-2,4.5C2,12.881,4.687,14,8,14s6-1.119,6-2.5C14,10.76,12,10,12,7z"/>
		<path fill="#1D1D1B" d="M10,15.25C10,15.664,9.664,16,9.25,16h-1.5C7.336,16,7,15.664,7,15.25l0,0c0-0.414,0.336-0.75,0.75-0.75
			h1.5C9.664,14.5,10,14.836,10,15.25L10,15.25z"/>
	</g>
</g>
</svg>
