<svg id="Layer_1" data-name="Layer 1" xmlns="http://www.w3.org/2000/svg" viewBox="0 0 12 15"><defs><style>.cls-1{fill:#fff;}</style></defs><title>ebIcon_acknowledgeAlarm_white</title><path class="cls-1" d="M10.5,6A2.74,2.74,0,0,0,8.2,3.07C7.84,1.23,7.22,0,6.5,0S5.16,1.23,4.8,3.07A2.74,2.74,0,0,0,2.5,6c0,3-2,3.76-2,4.5,0,1.38,2.69,2.5,6,2.5s6-1.12,6-2.5C12.5,9.76,10.5,9,10.5,6Z" transform="translate(-0.5)"/><path class="cls-1" d="M8.5,14.25a.75.75,0,0,1-.75.75H6.25a.75.75,0,0,1-.75-.75h0a.75.75,0,0,1,.75-.75h1.5A.75.75,0,0,1,8.5,14.25Z" transform="translate(-0.5)"/></svg>