<svg id="Layer_1" data-name="Layer 1" xmlns="http://www.w3.org/2000/svg" viewBox="0 0 15 16"><defs><style>.cls-1{fill:#fff;}.cls-2{fill:#89ba17;}</style></defs><title>ebIcon_activate_white</title><path class="cls-1" d="M5.22,8.94l0,0a4.07,4.07,0,0,0,.64.34l.24.08a3.86,3.86,0,0,0,2.21.16,4.16,4.16,0,0,0,.52-.16l.24-.08A4.27,4.27,0,0,0,9.74,9l0,0a4.28,4.28,0,0,0,.62-.48h0A4.93,4.93,0,0,0,12,4.82,4.66,4.66,0,0,0,7.5,0,4.66,4.66,0,0,0,3,4.82,4.88,4.88,0,0,0,5.22,8.94Z" transform="translate(-1)"/><path class="cls-1" d="M12.68,8.48a6.34,6.34,0,0,1-5.21,3.27A6.33,6.33,0,0,1,2.26,8.48C.76,10,1,11.61,1,13.42v1.15A1.93,1.93,0,0,0,2.43,16h10.1a2,2,0,0,0,1.4-1.47V13.3C13.93,11.5,14.18,10,12.68,8.48Z" transform="translate(-1)"/><circle class="cls-2" cx="10.97" cy="11.97" r="4.03"/><path class="cls-1" d="M14,12.15a.33.33,0,0,0,0-.45h0s-3.33-2-3.42-2a.32.32,0,0,0-.32.32v3.82a.32.32,0,0,0,.32.32C10.68,14.16,14,12.15,14,12.15Z" transform="translate(-1)"/></svg>