<?xml version="1.0" encoding="utf-8"?>
<!-- Generator: Adobe Illustrator 16.0.2, SVG Export Plug-In . SVG Version: 6.00 Build 0)  -->
<!DOCTYPE svg PUBLIC "-//W3C//DTD SVG 1.1//EN" "http://www.w3.org/Graphics/SVG/1.1/DTD/svg11.dtd">
<svg version="1.1" id="Layer_1" xmlns="http://www.w3.org/2000/svg" xmlns:xlink="http://www.w3.org/1999/xlink" x="0px" y="0px"
	 width="16px" height="16px" viewBox="0 0 16 16" enable-background="new 0 0 16 16" xml:space="preserve">
<path fill="#FFFFFF" d="M2.342,2.343c-3.123,3.124-3.123,8.19,0,11.313c3.124,3.125,8.191,3.125,11.314,0
	c3.125-3.123,3.125-8.189,0-11.313C10.533-0.781,5.466-0.781,2.342,2.343 M12,6.999c0.553,0,1,0.447,1,1
	c0,0.276-0.111,0.526-0.293,0.707S12.275,8.998,12,8.998L8.998,8.999V12C9,12.275,8.889,12.525,8.707,12.705
	c-0.182,0.182-0.432,0.293-0.708,0.293c-0.552,0-0.999-0.447-1-1V8.999H4c-0.553-0.001-1-0.448-1-1c0-0.552,0.447-1,1-1h2.999v-3
	c0-0.553,0.447-1,1-1c0.554,0,1.001,0.447,1.001,1L8.998,7L12,6.999z"/>
</svg>
