<?xml version="1.0" encoding="utf-8"?>
<!-- Generator: Adobe Illustrator 16.0.2, SVG Export Plug-In . SVG Version: 6.00 Build 0)  -->
<!DOCTYPE svg PUBLIC "-//W3C//DTD SVG 1.1//EN" "http://www.w3.org/Graphics/SVG/1.1/DTD/svg11.dtd">
<svg version="1.1" id="Layer_1" xmlns="http://www.w3.org/2000/svg" xmlns:xlink="http://www.w3.org/1999/xlink" x="0px" y="0px"
	 width="16px" height="16px" viewBox="0 0 16 16" enable-background="new 0 0 16 16" xml:space="preserve">
<path d="M2.342,2.343c-3.123,3.124-3.123,8.19,0,11.313c3.124,3.125,8.191,3.125,11.314,0c3.125-3.123,3.125-8.189,0-11.313
	C10.533-0.781,5.466-0.781,2.342,2.343 M12,6.999c0.553,0,1,0.447,1,1c0,0.276-0.111,0.526-0.293,0.707S12.275,8.998,12,8.998
	L8.998,8.999V12C9,12.275,8.889,12.525,8.707,12.705c-0.182,0.182-0.432,0.293-0.708,0.293c-0.552,0-0.999-0.447-1-1V8.999H4
	c-0.553-0.001-1-0.448-1-1c0-0.552,0.447-1,1-1h2.999v-3c0-0.553,0.447-1,1-1c0.554,0,1.001,0.447,1.001,1L8.998,7L12,6.999z"/>
<path fill="#B1B3B4" d="M35.438,17.073H21.724c-0.632,0-1.143,0.516-1.143,0.878v7.625c0,0.029,0.023,0.057,0.029,0.084
	c0.303,4.143,3.75,7.413,7.971,7.413s7.668-3.271,7.971-7.413c0.006-0.029,0.029-0.055,0.029-0.086v-7.646
	C36.581,17.564,36.067,17.073,35.438,17.073z"/>
<g>
	<g>
		<ellipse fill="#B1B3B4" cx="40.287" cy="5.099" rx="3.705" ry="3.87"/>
	</g>
	<rect x="46.185" y="-2.93" fill="#B1B3B4" width="5.845" height="6.104"/>
	<path fill="#B1B3B4" d="M52.029,3.682h-5.845c-0.269,0-0.485-0.227-0.485-0.51V-2.93c0-0.281,0.217-0.508,0.485-0.508h5.845
		c0.271,0,0.488,0.227,0.488,0.508v6.104C52.518,3.455,52.3,3.682,52.029,3.682z M46.673,2.664h4.87v-5.085h-4.87V2.664z"/>
	<path fill="#B1B3B4" d="M52.089,5.375h-5.899c-0.271,0-0.49,0.231-0.49,0.393v3.426c0,0.013,0.009,0.025,0.012,0.038
		c0.131,1.862,1.613,3.331,3.43,3.331c1.814,0,3.298-1.469,3.428-3.331c0.002-0.015,0.013-0.025,0.013-0.038V5.758
		C52.581,5.594,52.359,5.375,52.089,5.375z"/>
</g>
<g>
	<g>
		<path d="M37.771-18.239c0,0.825-0.675,1.5-1.5,1.5h-13c-0.825,0-1.5-0.675-1.5-1.5v-13c0-0.825,0.675-1.5,1.5-1.5h13
			c0.825,0,1.5,0.675,1.5,1.5V-18.239z"/>
	</g>
	<g>
		
			<circle fill="none" stroke="#FFFFFF" stroke-width="0.75" stroke-linecap="round" stroke-miterlimit="10" stroke-dasharray="2.5714,2.5714" cx="29.772" cy="-24.739" r="6.67"/>
	</g>
	<circle fill="#FFFFFF" stroke="#FFFFFF" stroke-linecap="round" stroke-miterlimit="10" cx="29.771" cy="-24.739" r="2.325"/>
</g>
<g>
	<g>
		<path d="M68.582-18.894c0,0.825-0.676,1.5-1.5,1.5h-13c-0.826,0-1.5-0.675-1.5-1.5v-13c0-0.825,0.674-1.5,1.5-1.5h13
			c0.824,0,1.5,0.675,1.5,1.5V-18.894z"/>
	</g>
	<g>
		<g>
			<path fill="#FFFFFF" d="M57.553-21.375c-0.182,0.184-0.479,0.184-0.662,0l-0.33-0.33c-0.184-0.183-0.184-0.48,0-0.663
				l7.049-7.046c0.184-0.183,0.482-0.183,0.662-0.002l0.332,0.332c0.182,0.183,0.182,0.479,0,0.662L57.553-21.375z"/>
		</g>
		<g>
			<path fill="#FFFFFF" d="M64.604-22.366c0.184,0.182,0.184,0.48,0,0.663l-0.332,0.33c-0.184,0.182-0.48,0.182-0.662,0
				l-7.049-7.049c-0.184-0.183-0.184-0.481,0-0.662l0.332-0.332c0.182-0.181,0.479-0.181,0.66,0L64.604-22.366z"/>
		</g>
	</g>
	<g>
		
			<circle fill="none" stroke="#FFFFFF" stroke-width="0.75" stroke-linecap="round" stroke-miterlimit="10" cx="60.582" cy="-25.394" r="7.16"/>
	</g>
</g>
</svg>
