<?xml version="1.0" encoding="utf-8"?>
<!-- Generator: Adobe Illustrator 16.0.2, SVG Export Plug-In . SVG Version: 6.00 Build 0)  -->
<!DOCTYPE svg PUBLIC "-//W3C//DTD SVG 1.1//EN" "http://www.w3.org/Graphics/SVG/1.1/DTD/svg11.dtd">
<svg version="1.1" id="Layer_1" xmlns="http://www.w3.org/2000/svg" xmlns:xlink="http://www.w3.org/1999/xlink" x="0px" y="0px"
	 width="16px" height="16px" viewBox="0 0 16 16" enable-background="new 0 0 16 16" xml:space="preserve">
<g>
	<path fill="#1D1D1B" d="M14,10h-2V8c0-0.55-0.451-1-1-1c-0.551,0-1,0.45-1,1v2H8c-0.55,0-1,0.45-1,0.999C7,11.55,7.45,12,8,12h2v2
		c0,0.55,0.449,1,1,1c0.549,0,1-0.45,1-1v-2h2c0.549,0,1-0.45,1-1.001C15,10.45,14.549,10,14,10z M13,11.002C13,11.062,13,11,13,11
		V11.002z"/>
	<path fill="#1D1D1B" d="M12.987,8.236L13,8.201V8C13,7.957,12.99,8.279,12.987,8.236z"/>
	<path fill="#1D1D1B" d="M6.001,11h-2.43c-0.486,0-0.783-0.371-0.661-0.843l0.961-4.06C3.992,5.627,4.49,5,4.977,5H13
		c0.482,0,0.866,0.634,0.746,1.104L13,8.201V9h1c0.002,0,0.004,0,0.006,0c0.213-1,0.506-1.77,0.922-3.224
		C15.176,4.999,14.85,3,12.85,3c-0.117,0-0.506,0-0.833,0c0-1-0.956-2-3.124-2C8.284,1,5.477,1,4.017,1C1.977,1,1,2.084,1,4
		c0,0.672,0,6.591,0,7c0,0.553,0.381,1,0.934,1c0.203,0,2.171,0,4.344,0C6.11,12,6.006,11,6.001,11z"/>
</g>
</svg>
