<svg id="Layer_1" data-name="Layer 1" xmlns="http://www.w3.org/2000/svg" viewBox="0 0 14 14"><defs><style>.cls-1{fill:#fff;}</style></defs><title>ebicon_addToFolder_white</title><path class="cls-1" d="M14,11H12V9a1,1,0,0,0-2,0v2H8a1,1,0,1,0,0,2h2v2a1,1,0,0,0,2,0V13h2a1,1,0,1,0,0-2Zm-1,1h0Z" transform="translate(-1 -2)"/><path class="cls-1" d="M6,12H3.57a.64.64,0,0,1-.66-.84l1-4.06C4,6.63,4.49,6,5,6h8a.92.92,0,0,1,.75,1.1l-1,2.9H14c.21-1,.51-1.77.92-3.22A2.17,2.17,0,0,0,12.85,4H12c0-1-1-2-3.12-2H4A2.68,2.68,0,0,0,1,5v7a.94.94,0,0,0,.93,1H6.28C6.11,13,6,12,6,12Z" transform="translate(-1 -2)"/></svg>