<?xml version="1.0" encoding="utf-8"?>
<!-- Generator: Adobe Illustrator 16.0.2, SVG Export Plug-In . SVG Version: 6.00 Build 0)  -->
<!DOCTYPE svg PUBLIC "-//W3C//DTD SVG 1.1//EN" "http://www.w3.org/Graphics/SVG/1.1/DTD/svg11.dtd">
<svg version="1.1" id="Layer_1" xmlns="http://www.w3.org/2000/svg" xmlns:xlink="http://www.w3.org/1999/xlink" x="0px" y="0px"
	 width="16px" height="16px" viewBox="0 0 16 16" enable-background="new 0 0 16 16" xml:space="preserve">
<path fill="#231F20" d="M20.307,1.308c-3.123,3.124-3.123,8.19,0,11.313c3.124,3.125,8.191,3.125,11.314,0
	c3.125-3.123,3.125-8.189,0-11.313C28.498-1.816,23.431-1.816,20.307,1.308 M29.965,5.964c0.553,0,1,0.447,1,1
	c0,0.276-0.111,0.526-0.293,0.707s-0.432,0.292-0.707,0.292l-3.002,0.001v3c0.002,0.275-0.109,0.525-0.291,0.705
	c-0.182,0.182-0.432,0.293-0.708,0.293c-0.552,0-0.999-0.447-1-1V7.964h-2.999c-0.553-0.001-1-0.448-1-1c0-0.552,0.447-1,1-1h2.999
	v-3c0-0.553,0.447-1,1-1c0.554,0,1.001,0.447,1.001,1l-0.002,3.001L29.965,5.964z"/>
<path fill="#B1B3B4" d="M35.438,17.073H21.724c-0.632,0-1.143,0.516-1.143,0.878v7.625c0,0.029,0.023,0.057,0.029,0.084
	c0.303,4.143,3.75,7.413,7.971,7.413s7.668-3.271,7.971-7.413c0.006-0.029,0.029-0.055,0.029-0.086v-7.646
	C36.581,17.564,36.067,17.073,35.438,17.073z"/>
<g>
	<g>
		<ellipse fill="#B1B3B4" cx="3.706" cy="8.536" rx="3.705" ry="3.87"/>
	</g>
	<rect x="9.604" y="0.508" fill="#B1B3B4" width="5.845" height="6.104"/>
	<path fill="#B1B3B4" d="M15.448,7.119H9.604c-0.269,0-0.485-0.227-0.485-0.51V0.508C9.118,0.227,9.335,0,9.604,0h5.845
		c0.271,0,0.488,0.227,0.488,0.508v6.104C15.937,6.893,15.719,7.119,15.448,7.119z M10.092,6.102h4.87V1.017h-4.87V6.102z"/>
	<path fill="#B1B3B4" d="M15.508,8.813H9.608c-0.271,0-0.49,0.231-0.49,0.393v3.426c0,0.013,0.009,0.025,0.012,0.038
		C9.261,14.531,10.743,16,12.56,16c1.814,0,3.298-1.469,3.428-3.331C15.989,12.654,16,12.644,16,12.631V9.195
		C16,9.031,15.778,8.813,15.508,8.813z"/>
</g>
</svg>
