<?xml version="1.0" encoding="utf-8"?>
<!-- Generator: Adobe Illustrator 16.0.2, SVG Export Plug-In . SVG Version: 6.00 Build 0)  -->
<!DOCTYPE svg PUBLIC "-//W3C//DTD SVG 1.1//EN" "http://www.w3.org/Graphics/SVG/1.1/DTD/svg11.dtd">
<svg version="1.1" id="Layer_1" xmlns="http://www.w3.org/2000/svg" xmlns:xlink="http://www.w3.org/1999/xlink" x="0px" y="0px"
	 width="16px" height="16px" viewBox="0 0 16 16" enable-background="new 0 0 16 16" xml:space="preserve">
<path fill="#231F20" d="M20.307,1.308c-3.123,3.124-3.123,8.19,0,11.313c3.124,3.125,8.191,3.125,11.314,0
	c3.125-3.123,3.125-8.189,0-11.313C28.498-1.816,23.431-1.816,20.307,1.308 M29.965,5.964c0.553,0,1,0.447,1,1
	c0,0.276-0.111,0.526-0.293,0.707s-0.432,0.292-0.707,0.292l-3.002,0.001v3c0.002,0.275-0.109,0.525-0.291,0.705
	c-0.182,0.182-0.432,0.293-0.708,0.293c-0.552,0-0.999-0.447-1-1V7.964h-2.999c-0.553-0.001-1-0.448-1-1c0-0.552,0.447-1,1-1h2.999
	v-3c0-0.553,0.447-1,1-1c0.554,0,1.001,0.447,1.001,1l-0.002,3.001L29.965,5.964z"/>
<path fill="#B1B3B4" d="M14.857,0H1.143C0.511,0,0,0.516,0,0.878v7.625c0,0.029,0.023,0.056,0.03,0.084C0.332,12.729,3.78,16,8,16
	c4.221,0,7.668-3.271,7.971-7.413C15.977,8.558,16,8.532,16,8.501V0.854C16,0.492,15.486,0,14.857,0z"/>
</svg>
