<svg id="Layer_1" data-name="Layer 1" xmlns="http://www.w3.org/2000/svg" viewBox="0 0 16 15"><defs><style>.cls-1{fill:#fff;}</style></defs><title>ebIcon_alarmUnacknowledged_white</title><path class="cls-1" d="M12,6.5A2.74,2.74,0,0,0,9.69,3.57C9.34,1.73,8.72.5,8,.5S6.66,1.73,6.3,3.57A2.74,2.74,0,0,0,4,6.5c0,3-2,3.76-2,4.5,0,1.38,2.69,2.5,6,2.5s6-1.12,6-2.5C14,10.26,12,9.5,12,6.5Z" transform="translate(0 -0.5)"/><path class="cls-1" d="M8,14.75a.75.75,0,0,1-.75.75H5.75A.75.75,0,0,1,5,14.75H5A.75.75,0,0,1,5.75,14h1.5a.75.75,0,0,1,.75.75Z" transform="translate(0 -0.5)"/><path class="cls-1" d="M16,6.5H15C15,3,14.35,2,12,2V1C15.69,1,16,3.6,16,6.5Z" transform="translate(0 -0.5)"/><path class="cls-1" d="M14.5,6.5h-1c0-1.85-.57-3-1.5-3v-1C13.21,2.5,14.5,3.55,14.5,6.5Z" transform="translate(0 -0.5)"/><path class="cls-1" d="M1,6.5H0C0,3.6.31,1,4,1V2C1.65,2,1,3,1,6.5Z" transform="translate(0 -0.5)"/><path class="cls-1" d="M2.5,6.5h-1c0-2.95,1.29-4,2.5-4v1C3.07,3.5,2.5,4.65,2.5,6.5Z" transform="translate(0 -0.5)"/></svg>