<?xml version="1.0" encoding="utf-8"?>
<!-- Generator: Adobe Illustrator 15.0.0, SVG Export Plug-In . SVG Version: 6.00 Build 0)  -->
<!DOCTYPE svg PUBLIC "-//W3C//DTD SVG 1.1//EN" "http://www.w3.org/Graphics/SVG/1.1/DTD/svg11.dtd">
<svg version="1.1" id="Layer_1" xmlns="http://www.w3.org/2000/svg" xmlns:xlink="http://www.w3.org/1999/xlink" x="0px" y="0px"
	 width="16px" height="16px" viewBox="0 0 16 16" enable-background="new 0 0 16 16" xml:space="preserve">
<rect display="none" fill="#66A19F" width="87" height="2381.97"/>
<rect x="8" y="1093.97" display="none" opacity="0.2" fill="#E94E47" enable-background="new    " width="16" height="16"/>
<path fill="#2379FF" d="M14,1H2C1.448,1,1,1.448,1,2v7c0,0.182,0.049,0.359,0.143,0.516l3,5c0.361,0.602,1.354,0.602,1.715,0
	l2.144-3.571l2.144,3.571C10.325,14.816,10.65,15,11.001,15s0.677-0.184,0.856-0.484l3-5C14.951,9.36,15.001,9.183,15.001,9V2
	C15,1.448,14.552,1,14,1z"/>
</svg>
