<svg id="Layer_1" data-name="Layer 1" xmlns="http://www.w3.org/2000/svg" viewBox="0 0 13 13"><defs><style>.cls-1{fill:#fff;}</style></defs><title>ebIcon_alignCenter_white</title><path class="cls-1" d="M14,2.5H2a.5.5,0,0,1,0-1H14a.5.5,0,0,1,0,1" transform="translate(-1.5 -1.5)"/><path class="cls-1" d="M12.5,5.5h-9a.5.5,0,0,1,0-1h9a.5.5,0,0,1,0,1" transform="translate(-1.5 -1.5)"/><path class="cls-1" d="M14,8.5H2a.5.5,0,0,1,0-1H14a.5.5,0,0,1,0,1" transform="translate(-1.5 -1.5)"/><path class="cls-1" d="M12.5,11.5h-9a.5.5,0,0,1,0-1h9a.5.5,0,0,1,0,1" transform="translate(-1.5 -1.5)"/><path class="cls-1" d="M14,14.5H2a.5.5,0,0,1,0-1H14a.5.5,0,0,1,0,1" transform="translate(-1.5 -1.5)"/></svg>