<?xml version="1.0" encoding="utf-8"?>
<!-- Generator: Adobe Illustrator 15.0.0, SVG Export Plug-In  -->
<!DOCTYPE svg PUBLIC "-//W3C//DTD SVG 1.1//EN" "http://www.w3.org/Graphics/SVG/1.1/DTD/svg11.dtd" [
	<!ENTITY ns_flows "http://ns.adobe.com/Flows/1.0/">
]>
<svg version="1.1"
	 xmlns="http://www.w3.org/2000/svg" xmlns:xlink="http://www.w3.org/1999/xlink" xmlns:a="http://ns.adobe.com/AdobeSVGViewerExtensions/3.0/"
	 x="0px" y="0px" width="16px" height="16px" viewBox="-2.5 -2.5 16 16" enable-background="new -2.5 -2.5 16 16"
	 xml:space="preserve">
<defs>
</defs>
<path fill="#FFFFFF" d="M5.294,0c0.265,0,0.52,0.104,0.707,0.293l4.293,4.323c0.39,0.391,0.39,1.024-0.001,1.414
	c-0.391,0.391-1.023,0.391-1.414,0L6.293,3.414v6.615c0,0.553-0.447,1-1,1c-0.552,0-1-0.447-1-1V3.413L1.707,6.03
	c-0.391,0.392-1.023,0.392-1.414,0C0.098,5.836,0,5.579,0,5.323s0.098-0.512,0.293-0.707l4.294-4.323C4.773,0.104,5.027,0,5.294,0"
	/>
</svg>
