<?xml version="1.0" encoding="utf-8"?>
<!-- Generator: Adobe Illustrator 15.0.0, SVG Export Plug-In  -->
<!DOCTYPE svg PUBLIC "-//W3C//DTD SVG 1.1//EN" "http://www.w3.org/Graphics/SVG/1.1/DTD/svg11.dtd" [
	<!ENTITY ns_flows "http://ns.adobe.com/Flows/1.0/">
]>
<svg version="1.1"
	 xmlns="http://www.w3.org/2000/svg" xmlns:xlink="http://www.w3.org/1999/xlink" xmlns:a="http://ns.adobe.com/AdobeSVGViewerExtensions/3.0/"
	 x="0px" y="0px" width="16px" height="16px" viewBox="-2.5 -2.5 16 16" enable-background="new -2.5 -2.5 16 16"
	 xml:space="preserve">
<defs>
</defs>
<path fill="#FFFFFF" d="M5.292,11.029c-0.265,0-0.52-0.104-0.707-0.293L0.292,6.413c-0.39-0.391-0.39-1.024,0.001-1.414
	c0.391-0.391,1.023-0.391,1.414,0l2.586,2.616V1c0-0.553,0.447-1,1-1c0.552,0,1,0.447,1,1v6.616l2.585-2.617
	c0.391-0.392,1.023-0.392,1.414,0c0.195,0.194,0.293,0.451,0.293,0.707s-0.098,0.512-0.293,0.707l-4.293,4.323
	C5.813,10.924,5.559,11.029,5.292,11.029"/>
</svg>
