<?xml version="1.0" encoding="utf-8"?>
<!-- Generator: Adobe Illustrator 15.0.2, SVG Export Plug-In  -->
<!DOCTYPE svg PUBLIC "-//W3C//DTD SVG 1.1//EN" "http://www.w3.org/Graphics/SVG/1.1/DTD/svg11.dtd" [
	<!ENTITY ns_flows "http://ns.adobe.com/Flows/1.0/">
]>
<svg version="1.1"
	 xmlns="http://www.w3.org/2000/svg" xmlns:xlink="http://www.w3.org/1999/xlink" xmlns:a="http://ns.adobe.com/AdobeSVGViewerExtensions/3.0/"
	 x="0px" y="0px" width="16px" height="16px" viewBox="0 0 16 16" overflow="visible" enable-background="new 0 0 16 16"
	 xml:space="preserve">
<defs>
</defs>
<path d="M9.75,3.701c0-0.97-0.783-1.756-1.75-1.756c-0.969,0-1.75,0.786-1.75,1.756S7.031,5.458,8,5.458
	C8.967,5.458,9.75,4.671,9.75,3.701"/>
<path d="M12,16c-0.229,0-0.443-0.138-0.529-0.365L8,6.545l-3.471,9.089c-0.112,0.293-0.442,0.441-0.732,0.327
	c-0.292-0.111-0.439-0.441-0.326-0.733l4-10.477c0.168-0.441,0.891-0.441,1.059,0l4,10.477c0.112,0.292-0.034,0.622-0.326,0.733
	C12.136,15.988,12.066,16,12,16"/>
<path d="M10.112,11.859H5.938c-0.313,0-0.567-0.255-0.567-0.568s0.254-0.568,0.567-0.568h4.175c0.313,0,0.567,0.255,0.567,0.568
	S10.426,11.859,10.112,11.859"/>
<path d="M12.031,16c-0.08,0-0.16-0.016-0.236-0.052c-0.663-0.306-1.204-0.57-1.657-0.79c-2.083-1.014-2.083-1.014-4.271,0.036
	c-0.443,0.213-0.968,0.464-1.601,0.754c-0.286,0.131-0.621,0.006-0.751-0.28c-0.131-0.286-0.005-0.623,0.28-0.754
	c0.626-0.289,1.144-0.537,1.582-0.747c2.58-1.238,2.775-1.241,5.255-0.033c0.447,0.219,0.98,0.479,1.635,0.78
	c0.285,0.131,0.409,0.469,0.279,0.754C12.451,15.876,12.246,16,12.031,16"/>
<path d="M3.971,6.165c-0.158,0-0.311-0.09-0.384-0.243C3.322,5.366,3.188,4.769,3.188,4.152c0-0.952,0.331-1.878,0.933-2.611
	C4.271,1.36,4.54,1.335,4.72,1.484c0.182,0.149,0.207,0.419,0.058,0.601c-0.477,0.58-0.74,1.313-0.74,2.068
	c0,0.489,0.107,0.96,0.317,1.402c0.102,0.212,0.013,0.466-0.2,0.568C4.095,6.15,4.032,6.165,3.971,6.165"/>
<path d="M1.042,7.628c-0.158,0-0.312-0.089-0.384-0.244C0.222,6.466,0,5.484,0,4.464c0-1.57,0.547-3.101,1.54-4.31
	c0.149-0.181,0.419-0.206,0.599-0.057c0.182,0.15,0.207,0.418,0.058,0.6C1.328,1.753,0.85,3.092,0.85,4.464
	c0,0.892,0.194,1.75,0.576,2.554c0.102,0.212,0.012,0.467-0.2,0.568C1.166,7.615,1.104,7.628,1.042,7.628"/>
<path d="M12.029,6.165c0.158,0,0.311-0.09,0.384-0.243c0.265-0.556,0.398-1.153,0.398-1.769c0-0.952-0.331-1.878-0.933-2.611
	c-0.15-0.182-0.419-0.207-0.599-0.058c-0.182,0.149-0.207,0.419-0.058,0.601c0.477,0.58,0.739,1.313,0.739,2.068
	c0,0.489-0.106,0.96-0.316,1.402c-0.102,0.212-0.013,0.466,0.2,0.568C11.905,6.15,11.967,6.165,12.029,6.165"/>
<path d="M14.958,7.628c0.158,0,0.311-0.089,0.384-0.244C15.778,6.466,16,5.484,16,4.464c0-1.57-0.547-3.101-1.54-4.31
	c-0.15-0.181-0.419-0.206-0.599-0.057c-0.182,0.15-0.207,0.418-0.058,0.6c0.868,1.056,1.347,2.395,1.347,3.767
	c0,0.892-0.194,1.75-0.576,2.554c-0.102,0.212-0.013,0.467,0.199,0.568C14.834,7.615,14.896,7.628,14.958,7.628"/>
</svg>
