<?xml version="1.0" encoding="utf-8"?>
<!-- Generator: Adobe Illustrator 15.0.0, SVG Export Plug-In . SVG Version: 6.00 Build 0)  -->
<!DOCTYPE svg PUBLIC "-//W3C//DTD SVG 1.1//EN" "http://www.w3.org/Graphics/SVG/1.1/DTD/svg11.dtd">
<svg version="1.1" id="Layer_1" xmlns="http://www.w3.org/2000/svg" xmlns:xlink="http://www.w3.org/1999/xlink" x="0px" y="0px"
	 width="16px" height="16px" viewBox="0 0 16 16" enable-background="new 0 0 16 16" xml:space="preserve">
<rect display="none" fill="#66A19F" width="87" height="2381.97"/>
<rect x="8" y="645.97" display="none" opacity="0.2" fill="#E94E47" enable-background="new    " width="16" height="16"/>
<path d="M14.681,12.305c0.022-0.091,0.105-0.152,0.197-0.152H16v-1.366h-1.122c-0.092,0-0.175-0.062-0.197-0.152
	c-0.077-0.29-0.19-0.569-0.342-0.825c-0.046-0.078-0.033-0.179,0.03-0.245l0.794-0.795l-0.965-0.963l-0.793,0.792
	c-0.066,0.066-0.167,0.077-0.246,0.031c-0.257-0.15-0.536-0.264-0.824-0.341c-0.09-0.022-0.153-0.105-0.153-0.196V6.969h-1.365
	v1.123c0,0.091-0.062,0.176-0.152,0.196c-0.29,0.076-0.566,0.19-0.825,0.341C9.76,8.675,9.658,8.663,9.593,8.598L8.8,7.806
	L7.836,8.769l0.793,0.795C8.695,9.63,8.709,9.73,8.661,9.809c-0.151,0.257-0.264,0.536-0.343,0.825
	c-0.024,0.09-0.104,0.152-0.199,0.152H7v1.366h1.121c0.094,0,0.173,0.062,0.199,0.152c0.078,0.289,0.191,0.566,0.342,0.825
	c0.048,0.077,0.034,0.178-0.03,0.246l-0.794,0.792l0.965,0.965l0.793-0.793c0.065-0.066,0.165-0.077,0.244-0.031
	c0.261,0.15,0.537,0.264,0.826,0.341c0.091,0.022,0.153,0.105,0.153,0.197v1.122h1.365v-1.122c0-0.092,0.062-0.175,0.152-0.197
	c0.289-0.077,0.567-0.19,0.825-0.341c0.077-0.046,0.179-0.034,0.246,0.031l0.793,0.793l0.964-0.965l-0.793-0.792
	c-0.064-0.067-0.076-0.168-0.03-0.246C14.49,12.871,14.604,12.594,14.681,12.305z M11.499,13.438c-1.086,0-1.967-0.881-1.967-1.968
	c0-1.088,0.882-1.97,1.967-1.97c1.089,0,1.971,0.882,1.971,1.97C13.47,12.557,12.588,13.438,11.499,13.438z"/>
<path d="M6,11.469c0-3.038,2.462-5.5,5.5-5.5c0.197,0,0.393,0.012,0.584,0.032L9.547,0.926C9.254,0.34,8.654-0.03,8-0.03
	S6.746,0.34,6.453,0.926L0.182,13.468c-0.269,0.535-0.239,1.173,0.075,1.682c0.315,0.511,0.872,0.82,1.472,0.82h6.617
	C6.928,14.975,6,13.331,6,11.469z"/>
</svg>
