<?xml version="1.0" encoding="utf-8"?>
<!-- Generator: Adobe Illustrator 15.0.0, SVG Export Plug-In  -->
<!DOCTYPE svg PUBLIC "-//W3C//DTD SVG 1.1//EN" "http://www.w3.org/Graphics/SVG/1.1/DTD/svg11.dtd" [
	<!ENTITY ns_flows "http://ns.adobe.com/Flows/1.0/">
]>
<svg version="1.1"
	 xmlns="http://www.w3.org/2000/svg" xmlns:xlink="http://www.w3.org/1999/xlink" xmlns:a="http://ns.adobe.com/AdobeSVGViewerExtensions/3.0/"
	 x="0px" y="0px" width="16px" height="16px" viewBox="8 485.97 16 16" enable-background="new 8 485.97 16 16"
	 xml:space="preserve">
<defs>
</defs>
<rect display="none" fill="#66A19F" width="87" height="2381.97"/>
<path fill-rule="evenodd" clip-rule="evenodd" d="M20,499.97v-12h1c0.552,0,1,0.447,1,1v10c0,0.553-0.448,1-1,1 M10,499.97
	c-0.553,0-1-0.447-1-1v-10c0-0.553,0.447-1,1-1h1v12H10z M16,499.97v-12h3v12H16z M12,499.97v-12h3v12H12z M13.5,492.97
	c0.552,0,1,0.447,1,1c0,0.553-0.448,1-1,1c-0.553,0-1-0.447-1-1C12.5,493.418,12.947,492.97,13.5,492.97z M17.499,492.97
	c0.554,0,1.001,0.447,1.001,1c0,0.553-0.448,1-1.001,1c-0.553,0-0.999-0.447-0.999-1C16.5,493.418,16.945,492.97,17.499,492.97z"/>
<rect x="8" y="485.97" display="none" opacity="0.2" fill="#E94E47" width="16" height="16"/>
</svg>
