<?xml version="1.0" encoding="utf-8"?>
<!-- Generator: Adobe Illustrator 15.0.0, SVG Export Plug-In . SVG Version: 6.00 Build 0)  -->
<!DOCTYPE svg PUBLIC "-//W3C//DTD SVG 1.1//EN" "http://www.w3.org/Graphics/SVG/1.1/DTD/svg11.dtd">
<svg version="1.1" id="Layer_1" xmlns="http://www.w3.org/2000/svg" xmlns:xlink="http://www.w3.org/1999/xlink" x="0px" y="0px"
	 width="16px" height="16px" viewBox="0 0 16 16" enable-background="new 0 0 16 16" xml:space="preserve">
<rect display="none" fill="#66A19F" width="87" height="3280.97"/>
<rect x="13" y="2885.97" display="none" opacity="0.2" fill="#E94E47" enable-background="new    " width="16" height="16"/>
<path d="M13,1.971v2c0,0.551-0.45,1-1,1h-1c-0.55,0-1-0.449-1-1v-2H6V3.97c0,0.55-0.45,1-1,1H4c-0.55,0-1-0.45-1-1V1.971
	c-1.1,0-2,0.9-2,2v10.03C1,15.103,1.9,16,3,16h10c1.1,0,2-0.897,2-1.999V3.971C15,2.871,14.1,1.971,13,1.971z M13,13.001
	c0,0.553-0.448,1-1,1H4c-0.551,0-1-0.447-1-1V7.97h10V13.001z"/>
<rect x="4" y="0.971" width="1" height="3"/>
<rect x="11" y="0.971" width="1" height="3"/>
</svg>
