<?xml version="1.0" encoding="utf-8"?>
<!-- Generator: Adobe Illustrator 15.0.0, SVG Export Plug-In  -->
<!DOCTYPE svg PUBLIC "-//W3C//DTD SVG 1.1//EN" "http://www.w3.org/Graphics/SVG/1.1/DTD/svg11.dtd" [
	<!ENTITY ns_flows "http://ns.adobe.com/Flows/1.0/">
]>
<svg version="1.1"
	 xmlns="http://www.w3.org/2000/svg" xmlns:xlink="http://www.w3.org/1999/xlink" xmlns:a="http://ns.adobe.com/AdobeSVGViewerExtensions/3.0/"
	 x="0px" y="0px" width="16px" height="16px" viewBox="-0.5 -1 16 16" enable-background="new -0.5 -1 16 16" xml:space="preserve">
<defs>
</defs>
<path fill="#FFFFFF" d="M13,0.999v2c0,0.551-0.45,1-1,1h-1c-0.55,0-1-0.449-1-1v-2H5v2c0,0.551-0.45,1-1,1H3c-0.55,0-1-0.449-1-1v-2
	c-1.1,0-2,0.9-2,2v9c0,1.101,0.9,2,2,2h11c1.1,0,2-0.899,2-2v-9C15,1.899,14.1,0.999,13,0.999 M14,11.999c0,0.553-0.448,1-1,1H2
	c-0.551,0-1-0.447-1-1v-6h13V11.999z"/>
<rect x="3" fill="#FFFFFF" width="1" height="3"/>
<rect x="11" fill="#FFFFFF" width="1" height="3"/>
</svg>
