<?xml version="1.0" encoding="utf-8"?>
<!-- Generator: Adobe Illustrator 15.0.0, SVG Export Plug-In  -->
<!DOCTYPE svg PUBLIC "-//W3C//DTD SVG 1.1//EN" "http://www.w3.org/Graphics/SVG/1.1/DTD/svg11.dtd" [
	<!ENTITY ns_flows "http://ns.adobe.com/Flows/1.0/">
]>
<svg version="1.1"
	 xmlns="http://www.w3.org/2000/svg" xmlns:xlink="http://www.w3.org/1999/xlink" xmlns:a="http://ns.adobe.com/AdobeSVGViewerExtensions/3.0/"
	 x="0px" y="0px" width="16px" height="16px" viewBox="8 1189.97 16 16" enable-background="new 8 1189.97 16 16"
	 xml:space="preserve">
<defs>
</defs>
<rect display="none" fill="#66A19F" width="87" height="2381.97"/>
<path d="M15.998,1203.363c-1.272,0-2.257-0.293-2.926-0.871c-0.624-0.537-1.019-1.32-1.176-2.33l1.648-0.16
	c0.145,0.645,0.41,1.135,0.791,1.461c0.421,0.359,0.986,0.541,1.684,0.541c0.736,0,1.304-0.164,1.689-0.486
	c0.399-0.332,0.601-0.73,0.601-1.184c0-0.301-0.092-0.563-0.271-0.777c-0.174-0.207-0.455-0.379-0.86-0.523
	c-0.257-0.089-0.82-0.241-1.725-0.466c-1.1-0.272-1.877-0.606-2.308-0.993c-0.604-0.542-0.897-1.183-0.897-1.958
	c0-0.49,0.142-0.957,0.421-1.388c0.279-0.428,0.689-0.76,1.218-0.985c0.543-0.232,1.212-0.349,1.989-0.349
	c1.262,0,2.219,0.274,2.843,0.816c0.576,0.499,0.893,1.138,0.966,1.948l-1.719,0.075c-0.114-0.498-0.324-0.872-0.628-1.112
	c-0.338-0.268-0.838-0.404-1.484-0.404c-0.662,0-1.194,0.143-1.58,0.423c-0.28,0.203-0.429,0.49-0.429,0.832
	c0,0.317,0.133,0.588,0.395,0.808c0.298,0.249,0.966,0.494,2.047,0.75c1.012,0.239,1.768,0.487,2.245,0.738
	c0.458,0.242,0.822,0.576,1.08,0.993c0.258,0.418,0.388,0.943,0.388,1.565c0,0.557-0.158,1.088-0.47,1.578
	c-0.31,0.488-0.754,0.855-1.323,1.092C17.623,1203.24,16.88,1203.363,15.998,1203.363z"/>
<line fill="none" stroke="#000000" stroke-width="2" stroke-linecap="round" stroke-miterlimit="10" x1="16" y1="1191.97" x2="16" y2="1203.97"/>
<rect x="8" y="1189.97" display="none" opacity="0.2" fill="#E94E47" width="16" height="16"/>
</svg>
