<svg id="Layer_1" data-name="Layer 1" xmlns="http://www.w3.org/2000/svg" viewBox="0 0 8 14"><defs><style>.cls-1{fill:#fff;}</style></defs><title>ebIcon_dollar_white</title><path class="cls-1" d="M8,13.4a4.29,4.29,0,0,1-2.89-.87A3.72,3.72,0,0,1,4,10.2L5.63,10a2.62,2.62,0,0,0,.78,1.46A2.46,2.46,0,0,0,8.07,12a2.53,2.53,0,0,0,1.67-.49,1.51,1.51,0,0,0,.59-1.18,1.19,1.19,0,0,0-.27-.78,1.91,1.91,0,0,0-.85-.52C9,9,8.41,8.84,7.51,8.61a5.51,5.51,0,0,1-2.28-1,2.57,2.57,0,0,1-.47-3.34A2.63,2.63,0,0,1,6,3.3a5,5,0,0,1,2-.35,4.18,4.18,0,0,1,2.81.82,2.79,2.79,0,0,1,1,1.94L10,5.79a1.91,1.91,0,0,0-.62-1.11,2.31,2.31,0,0,0-1.47-.4,2.6,2.6,0,0,0-1.56.42,1,1,0,0,0-.42.83,1,1,0,0,0,.39.81,5.6,5.6,0,0,0,2,.75,10,10,0,0,1,2.22.74,2.74,2.74,0,0,1,1.07,1A3,3,0,0,1,12,10.37a2.92,2.92,0,0,1-.46,1.57A2.77,2.77,0,0,1,10.23,13,5.66,5.66,0,0,1,8,13.4" transform="translate(-4 -1)"/><path class="cls-1" d="M8,15a1,1,0,0,1-1-1V2A1,1,0,1,1,9,2V14a1,1,0,0,1-1,1" transform="translate(-4 -1)"/></svg>