<?xml version="1.0" encoding="utf-8"?>
<!-- Generator: Adobe Illustrator 15.0.0, SVG Export Plug-In  -->
<!DOCTYPE svg PUBLIC "-//W3C//DTD SVG 1.1//EN" "http://www.w3.org/Graphics/SVG/1.1/DTD/svg11.dtd" [
	<!ENTITY ns_flows "http://ns.adobe.com/Flows/1.0/">
]>
<svg version="1.1"
	 xmlns="http://www.w3.org/2000/svg" xmlns:xlink="http://www.w3.org/1999/xlink" xmlns:a="http://ns.adobe.com/AdobeSVGViewerExtensions/3.0/"
	 x="0px" y="0px" width="16px" height="16px" viewBox="-0.5 -0.5 16 16" enable-background="new -0.5 -0.5 16 16"
	 xml:space="preserve">
<defs>
</defs>
<path fill="#FFFFFF" d="M7.5,0C3.357,0,0,3.356,0,7.5C0,11.642,3.357,15,7.5,15S15,11.642,15,7.5C15,3.356,11.643,0,7.5,0
	 M11.207,9.207C11.012,9.401,10.756,9.5,10.5,9.5S9.988,9.401,9.793,9.207L7.5,6.914L5.207,9.207c-0.391,0.392-1.023,0.392-1.414,0
	s-0.391-1.023,0-1.414l3-3c0.391-0.392,1.023-0.392,1.414,0l3,3C11.598,8.184,11.598,8.815,11.207,9.207"/>
</svg>
