<?xml version="1.0" encoding="utf-8"?>
<!-- Generator: Adobe Illustrator 15.0.0, SVG Export Plug-In  -->
<!DOCTYPE svg PUBLIC "-//W3C//DTD SVG 1.1//EN" "http://www.w3.org/Graphics/SVG/1.1/DTD/svg11.dtd" [
	<!ENTITY ns_flows "http://ns.adobe.com/Flows/1.0/">
]>
<svg version="1.1"
	 xmlns="http://www.w3.org/2000/svg" xmlns:xlink="http://www.w3.org/1999/xlink" xmlns:a="http://ns.adobe.com/AdobeSVGViewerExtensions/3.0/"
	 x="0px" y="0px" width="16px" height="16px" viewBox="13 1861.971 16 16" enable-background="new 13 1861.971 16 16"
	 xml:space="preserve">
<defs>
</defs>
<rect display="none" fill="#66A19F" width="87" height="3280.97"/>
<path d="M21,1862.971c-3.866,0-7,3.134-7,7c0,3.865,3.134,7,7,7c3.866,0,7-3.135,7-7C28,1866.105,24.866,1862.971,21,1862.971z"/>
<path fill="#FFFFFF" d="M24.707,1871.678c-0.195,0.195-0.451,0.293-0.707,0.293s-0.512-0.098-0.707-0.293L21,1869.385l-2.293,2.293
	c-0.391,0.391-1.023,0.391-1.414,0s-0.391-1.023,0-1.414l3-3c0.391-0.391,1.023-0.391,1.414,0l3,3
	C25.098,1870.655,25.098,1871.288,24.707,1871.678z"/>
<rect x="13" y="1861.97" display="none" opacity="0.2" fill="#E94E47" width="16" height="16"/>
</svg>
