<?xml version="1.0" encoding="utf-8"?>
<!-- Generator: Adobe Illustrator 15.0.0, SVG Export Plug-In  -->
<!DOCTYPE svg PUBLIC "-//W3C//DTD SVG 1.1//EN" "http://www.w3.org/Graphics/SVG/1.1/DTD/svg11.dtd" [
	<!ENTITY ns_flows "http://ns.adobe.com/Flows/1.0/">
]>
<svg version="1.1"
	 xmlns="http://www.w3.org/2000/svg" xmlns:xlink="http://www.w3.org/1999/xlink" xmlns:a="http://ns.adobe.com/AdobeSVGViewerExtensions/3.0/"
	 x="0px" y="0px" width="16px" height="16px" viewBox="-0.5 -0.5 16 16" enable-background="new -0.5 -0.5 16 16"
	 xml:space="preserve">
<defs>
</defs>
<path fill="#FFFFFF" d="M0,7.5C0,11.644,3.358,15,7.5,15c4.144,0,7.5-3.357,7.5-7.5c0-4.142-3.356-7.499-7.5-7.5
	C3.358,0.001,0,3.359,0,7.5 M8.207,11.238c-0.188,0.188-0.441,0.293-0.707,0.293c-0.266,0.001-0.521-0.105-0.709-0.293L3.793,8.236
	c-0.392-0.39-0.392-1.021,0.001-1.413c0.391-0.39,1.021-0.391,1.413,0.001L6.5,8.117V4.471c0-0.553,0.447-1,1-1s1,0.447,1,1
	L8.498,8.117l1.296-1.293c0.391-0.392,1.022-0.391,1.413,0C11.402,7.018,11.5,7.275,11.5,7.531s-0.098,0.511-0.293,0.705
	L8.207,11.238"/>
</svg>
