<?xml version="1.0" encoding="utf-8"?>
<!-- Generator: Adobe Illustrator 15.0.0, SVG Export Plug-In  -->
<!DOCTYPE svg PUBLIC "-//W3C//DTD SVG 1.1//EN" "http://www.w3.org/Graphics/SVG/1.1/DTD/svg11.dtd" [
	<!ENTITY ns_flows "http://ns.adobe.com/Flows/1.0/">
]>
<svg version="1.1"
	 xmlns="http://www.w3.org/2000/svg" xmlns:xlink="http://www.w3.org/1999/xlink" xmlns:a="http://ns.adobe.com/AdobeSVGViewerExtensions/3.0/"
	 x="0px" y="0px" width="16px" height="16px" viewBox="-0.5 -0.5 16 16" enable-background="new -0.5 -0.5 16 16"
	 xml:space="preserve">
<defs>
</defs>
<path fill="#FFFFFF" d="M7.5,15c4.141,0,7.499-3.358,7.5-7.5C14.999,3.356,11.642,0,7.5,0C3.357,0,0,3.356,0,7.5
	C0,11.642,3.356,15,7.5,15 M3.762,6.793l3.002-3C6.958,3.598,7.213,3.5,7.469,3.5s0.514,0.098,0.707,0.293
	c0.391,0.391,0.392,1.022,0,1.413L6.883,6.502L10.529,6.5c0.553,0,1,0.447,1,1s-0.447,1-1,1H6.883l1.293,1.293
	c0.392,0.392,0.391,1.022,0.001,1.413c-0.392,0.393-1.023,0.393-1.413,0.001L3.762,8.209C3.574,8.021,3.468,7.766,3.469,7.5
	C3.469,7.234,3.574,6.981,3.762,6.793"/>
</svg>
