<?xml version="1.0" encoding="utf-8"?>
<!-- Generator: Adobe Illustrator 15.0.0, SVG Export Plug-In  -->
<!DOCTYPE svg PUBLIC "-//W3C//DTD SVG 1.1//EN" "http://www.w3.org/Graphics/SVG/1.1/DTD/svg11.dtd" [
	<!ENTITY ns_flows "http://ns.adobe.com/Flows/1.0/">
]>
<svg version="1.1"
	 xmlns="http://www.w3.org/2000/svg" xmlns:xlink="http://www.w3.org/1999/xlink" xmlns:a="http://ns.adobe.com/AdobeSVGViewerExtensions/3.0/"
	 x="0px" y="0px" width="16px" height="16px" viewBox="13 1957.971 16 16" enable-background="new 13 1957.971 16 16"
	 xml:space="preserve">
<defs>
</defs>
<rect display="none" fill="#66A19F" width="87" height="3280.97"/>
<path d="M21,1972.97c3.866,0,7-3.134,7-7c0-3.865-3.134-7-7-7c-3.866,0-7,3.135-7,7C14,1969.837,17.134,1972.97,21,1972.97z"/>
<path fill="#FFFFFF" d="M17.293,1964.263c0.195-0.195,0.451-0.293,0.707-0.293s0.512,0.098,0.707,0.293l2.293,2.293l2.293-2.293
	c0.391-0.391,1.023-0.391,1.414,0s0.391,1.023,0,1.414l-3,3c-0.391,0.391-1.023,0.391-1.414,0l-3-3
	C16.902,1965.287,16.902,1964.654,17.293,1964.263z"/>
<rect x="13" y="1957.97" display="none" opacity="0.2" fill="#E94E47" width="16" height="16"/>
</svg>
