<?xml version="1.0" encoding="utf-8"?>
<!-- Generator: Adobe Illustrator 15.0.0, SVG Export Plug-In  -->
<!DOCTYPE svg PUBLIC "-//W3C//DTD SVG 1.1//EN" "http://www.w3.org/Graphics/SVG/1.1/DTD/svg11.dtd" [
	<!ENTITY ns_flows "http://ns.adobe.com/Flows/1.0/">
]>
<svg version="1.1"
	 xmlns="http://www.w3.org/2000/svg" xmlns:xlink="http://www.w3.org/1999/xlink" xmlns:a="http://ns.adobe.com/AdobeSVGViewerExtensions/3.0/"
	 x="0px" y="0px" width="16px" height="16px" viewBox="13 1989.971 16 16" enable-background="new 13 1989.971 16 16"
	 xml:space="preserve">
<defs>
</defs>
<rect display="none" fill="#66A19F" width="87" height="3280.97"/>
<path d="M14,1997.971c0,3.865,3.134,7,7,7c3.866,0,7-3.135,7-7c0-3.866-3.134-7-7-7C17.134,1990.971,14,1994.105,14,1997.971z"/>
<path fill="#FFFFFF" d="M21.706,1994.264l3.001,3.001c0.195,0.195,0.293,0.451,0.293,0.707s-0.098,0.512-0.293,0.707
	c-0.391,0.391-1.023,0.391-1.414,0l-1.294-1.294v3.647c0,0.553-0.447,1-1,1c-0.552,0-1-0.447-1-1v-3.646l-1.292,1.293
	c-0.391,0.391-1.023,0.391-1.414,0.001c-0.391-0.391-0.391-1.024-0.001-1.415l3-3.001c0.188-0.188,0.442-0.293,0.707-0.293
	C21.265,1993.971,21.519,1994.077,21.706,1994.264z"/>
<rect x="13" y="1989.97" display="none" opacity="0.2" fill="#E94E47" width="16" height="16"/>
</svg>
