<?xml version="1.0" encoding="utf-8"?>
<!-- Generator: Adobe Illustrator 15.0.0, SVG Export Plug-In  -->
<!DOCTYPE svg PUBLIC "-//W3C//DTD SVG 1.1//EN" "http://www.w3.org/Graphics/SVG/1.1/DTD/svg11.dtd" [
	<!ENTITY ns_flows "http://ns.adobe.com/Flows/1.0/">
]>
<svg version="1.1"
	 xmlns="http://www.w3.org/2000/svg" xmlns:xlink="http://www.w3.org/1999/xlink" xmlns:a="http://ns.adobe.com/AdobeSVGViewerExtensions/3.0/"
	 x="0px" y="0px" width="16px" height="16px" viewBox="13 2021.971 16 16" enable-background="new 13 2021.971 16 16"
	 xml:space="preserve">
<defs>
</defs>
<rect display="none" fill="#66A19F" width="87" height="3280.97"/>
<path d="M21,2036.676c3.865,0,7-3.134,7-7c0-3.866-3.135-7-7-7c-3.867,0-7,3.134-7,7C14,2033.542,17.134,2036.676,21,2036.676z"/>
<path fill="#FFFFFF" d="M17.293,2028.97l3.001-3.001c0.195-0.195,0.451-0.293,0.707-0.293s0.512,0.098,0.707,0.293
	c0.391,0.391,0.391,1.023,0,1.414l-1.294,1.294h3.647c0.553,0,1,0.447,1,1c0,0.552-0.447,1-1,1h-3.646l1.293,1.292
	c0.391,0.391,0.391,1.023,0.001,1.414c-0.391,0.391-1.024,0.391-1.415,0.001l-3.001-3c-0.188-0.188-0.293-0.442-0.293-0.707
	C17,2029.412,17.105,2029.158,17.293,2028.97z"/>
<rect x="13" y="2021.97" display="none" opacity="0.2" fill="#E94E47" width="16" height="16"/>
</svg>
