<?xml version="1.0" encoding="utf-8"?>
<!-- Generator: Adobe Illustrator 15.0.0, SVG Export Plug-In  -->
<!DOCTYPE svg PUBLIC "-//W3C//DTD SVG 1.1//EN" "http://www.w3.org/Graphics/SVG/1.1/DTD/svg11.dtd" [
	<!ENTITY ns_flows "http://ns.adobe.com/Flows/1.0/">
]>
<svg version="1.1"
	 xmlns="http://www.w3.org/2000/svg" xmlns:xlink="http://www.w3.org/1999/xlink" xmlns:a="http://ns.adobe.com/AdobeSVGViewerExtensions/3.0/"
	 x="0px" y="0px" width="16px" height="16px" viewBox="13 2085.971 16 16" enable-background="new 13 2085.971 16 16"
	 xml:space="preserve">
<defs>
</defs>
<rect display="none" fill="#66A19F" width="87" height="3280.97"/>
<path d="M28,2093.97c0-3.865-3.134-7-7-7c-3.866,0-7,3.135-7,7c0,3.867,3.134,7,7,7C24.866,2100.97,28,2097.836,28,2093.97z"/>
<path fill="#FFFFFF" d="M20.294,2097.677l-3.001-3.001c-0.195-0.195-0.293-0.451-0.293-0.707s0.098-0.512,0.293-0.707
	c0.391-0.391,1.023-0.391,1.414,0l1.294,1.294v-3.647c0-0.553,0.447-1,1-1c0.552,0,1,0.447,1,1v3.646l1.292-1.293
	c0.391-0.391,1.023-0.391,1.414-0.001c0.391,0.391,0.391,1.024,0.001,1.415l-3,3.001c-0.188,0.188-0.442,0.293-0.707,0.293
	C20.735,2097.97,20.481,2097.865,20.294,2097.677z"/>
<rect x="13" y="2085.97" display="none" opacity="0.2" fill="#E94E47" width="16" height="16"/>
</svg>
