<svg id="Layer_1" data-name="Layer 1" xmlns="http://www.w3.org/2000/svg" viewBox="0 0 16 15"><defs><style>.cls-1{fill:#fff;}.cls-2{fill:#89ba17;}</style></defs><title>ebIcon_clearAlarm_white</title><path class="cls-1" d="M11.94,6.5A2.74,2.74,0,0,0,9.65,3.57C9.3,1.73,8.67.5,8,.5S6.62,1.73,6.27,3.57A2.74,2.74,0,0,0,4,6.5c0,3-2,3.76-2,4.5,0,1.38,2.67,2.5,6,2.5s6-1.12,6-2.5C13.93,10.26,11.94,9.5,11.94,6.5Z" transform="translate(0 -0.5)"/><path class="cls-1" d="M8,14.75a.75.75,0,0,1-.75.75H5.72A.75.75,0,0,1,5,14.75H5A.75.75,0,0,1,5.72,14H7.21a.75.75,0,0,1,.75.75Z" transform="translate(0 -0.5)"/><path class="cls-1" d="M15.92,6.5h-1c0-3.53-.64-4.5-3-4.5V1C15.62,1,15.92,3.6,15.92,6.5Z" transform="translate(0 -0.5)"/><path class="cls-1" d="M14.43,6.5h-1c0-1.85-.57-3-1.49-3v-1C13.14,2.5,14.43,3.55,14.43,6.5Z" transform="translate(0 -0.5)"/><path class="cls-1" d="M1,6.5H0C0,3.6.3,1,4,1V2C1.64,2,1,3,1,6.5Z" transform="translate(0 -0.5)"/><path class="cls-1" d="M2.49,6.5h-1c0-2.95,1.29-4,2.49-4v1C3.06,3.5,2.49,4.65,2.49,6.5Z" transform="translate(0 -0.5)"/><path class="cls-2" d="M10,11.65a1,1,0,0,1-.7-.29l-3-3a1,1,0,0,1,0-1.41,1,1,0,0,1,1.41,0L10,9.17,14.24,4a1,1,0,0,1,1.4-.13,1,1,0,0,1,.13,1.41l-5,6a1,1,0,0,1-.72.36h0" transform="translate(0 -0.5)"/></svg>