<?xml version="1.0" encoding="utf-8"?>
<!-- Generator: Adobe Illustrator 16.0.2, SVG Export Plug-In . SVG Version: 6.00 Build 0)  -->
<!DOCTYPE svg PUBLIC "-//W3C//DTD SVG 1.1//EN" "http://www.w3.org/Graphics/SVG/1.1/DTD/svg11.dtd">
<svg version="1.1" id="Layer_1" xmlns="http://www.w3.org/2000/svg" xmlns:xlink="http://www.w3.org/1999/xlink" x="0px" y="0px"
	 width="16px" height="16px" viewBox="0 0 16 16" enable-background="new 0 0 16 16" xml:space="preserve">
<g>
	<g>
		<path fill="#1D1D1B" d="M12,7c0-1.709-0.984-2.682-2.304-2.93C9.343,2.229,8.717,1,8,1S6.657,2.229,6.304,4.07
			C4.984,4.318,4,5.291,4,7c0,3-2,3.76-2,4.5C2,12.881,4.687,14,8,14s6-1.119,6-2.5C14,10.76,12,10,12,7z"/>
		<path fill="#1D1D1B" d="M8,15.25C8,15.664,7.664,16,7.25,16h-1.5C5.336,16,5,15.664,5,15.25l0,0c0-0.414,0.336-0.75,0.75-0.75h1.5
			C7.664,14.5,8,14.836,8,15.25L8,15.25z"/>
	</g>
	<path fill="none" stroke="#8E8E8D" stroke-miterlimit="10" d="M12,2c3,0,3.5,1.687,3.5,5"/>
	<path fill="none" stroke="#8E8E8D" stroke-miterlimit="10" d="M12,3.5c1.104,0,2,1.09,2,3.5"/>
	<path fill="none" stroke="#8E8E8D" stroke-miterlimit="10" d="M4,2C1,2,0.5,3.687,0.5,7"/>
	<path fill="none" stroke="#8E8E8D" stroke-miterlimit="10" d="M4,3.5C2.896,3.5,2,4.59,2,7"/>
	<g>
		<g>
			<g>
				<path fill="#89BA17" d="M10,12.5c-0.4,0-0.776-0.156-1.06-0.438l-3-3.001C5.656,8.778,5.5,8.401,5.5,8s0.156-0.778,0.439-1.061
					C6.223,6.656,6.6,6.5,7,6.5s0.777,0.156,1.061,0.439l1.838,1.838l3.949-4.738C14.133,3.697,14.553,3.5,15,3.5
					c0.35,0,0.69,0.123,0.959,0.347c0.636,0.53,0.722,1.478,0.193,2.113l-5,6.001c-0.271,0.323-0.666,0.519-1.084,0.537L10,12.5z"/>
				<path fill="#FFFFFF" d="M15,4c0.226,0,0.453,0.076,0.64,0.231c0.424,0.354,0.481,0.984,0.128,1.409l-5,6
					c-0.18,0.215-0.442,0.346-0.723,0.358C10.03,12,10.015,12,10,12c-0.265,0-0.519-0.105-0.707-0.293l-3-3
					c-0.391-0.39-0.391-1.024,0-1.414C6.488,7.098,6.744,7,7,7s0.512,0.098,0.707,0.293l2.226,2.226l4.299-5.159
					C14.429,4.123,14.713,4,15,4 M15,3L15,3c-0.596,0-1.157,0.263-1.537,0.721L9.865,8.037L8.414,6.586C8.036,6.208,7.534,6,7,6
					S5.964,6.208,5.586,6.586C5.208,6.963,5,7.465,5,8s0.208,1.037,0.586,1.415l3,2.999C8.965,12.792,9.467,13,10,13h0.032
					l0.078-0.003c0.54-0.024,1.066-0.285,1.425-0.715l5.001-6.002c0.342-0.411,0.504-0.929,0.456-1.461s-0.301-1.014-0.711-1.355
					C15.92,3.164,15.466,3,15,3L15,3z"/>
			</g>
		</g>
	</g>
</g>
</svg>
