<?xml version="1.0" encoding="utf-8"?>
<!-- Generator: Adobe Illustrator 16.0.2, SVG Export Plug-In . SVG Version: 6.00 Build 0)  -->
<!DOCTYPE svg PUBLIC "-//W3C//DTD SVG 1.1//EN" "http://www.w3.org/Graphics/SVG/1.1/DTD/svg11.dtd">
<svg version="1.1" id="Layer_1" xmlns="http://www.w3.org/2000/svg" xmlns:xlink="http://www.w3.org/1999/xlink" x="0px" y="0px"
     width="16px" height="16px" viewBox="-0.5 0.5 16 16" enable-background="new -0.5 0.5 16 16" xml:space="preserve">
<rect display="none" fill="#66A19F" width="87" height="3280.971"/>
<rect x="13" y="2597.971" display="none" opacity="0.2" fill="#E94E47" enable-background="new    " width="16" height="16"/>
<polyline fill="none" stroke="#000000" stroke-width="1.4" stroke-linecap="round" stroke-linejoin="round" stroke-miterlimit="10" points="
    10,11 7.5,8.5 7.5,4.5 "/>
<g>
    <path d="M7.5,2.5c3.309,0,6,2.691,6,6s-2.691,6-6,6s-6-2.691-6-6S4.191,2.5,7.5,2.5 M7.5,0.5c-4.418,0-8,3.582-8,8
        c0,4.418,3.582,8,8,8c4.418,0,8-3.582,8-8C15.5,4.082,11.918,0.5,7.5,0.5L7.5,0.5z"/>
</g>
</svg>
