<?xml version="1.0" encoding="utf-8"?>
<!-- Generator: Adobe Illustrator 15.0.0, SVG Export Plug-In . SVG Version: 6.00 Build 0)  -->
<!DOCTYPE svg PUBLIC "-//W3C//DTD SVG 1.1//EN" "http://www.w3.org/Graphics/SVG/1.1/DTD/svg11.dtd">
<svg version="1.1" id="Layer_1" xmlns="http://www.w3.org/2000/svg" xmlns:xlink="http://www.w3.org/1999/xlink" x="0px" y="0px"
	 width="16px" height="16px" viewBox="0 0 16 16" enable-background="new 0 0 16 16" xml:space="preserve">
<rect display="none" fill="#66A19F" width="87" height="3280.97"/>
<rect x="13" y="1669.97" display="none" opacity="0.2" fill="#E94E47" enable-background="new    " width="16" height="16"/>
<g>
	<path d="M16,13c0,1.65-1.35,3-3,3H3c-1.65,0-3-1.35-3-3V3c0-1.649,1.35-3,3-3h10c1.65,0,3,1.351,3,3V13z"/>
</g>
<path fill="#FFFFFF" d="M7.707,10.707l-3,3C4.512,13.902,4.256,14,4,14s-0.512-0.098-0.707-0.293c-0.391-0.391-0.391-1.023,0-1.414
	L5.586,10L3.293,7.707c-0.391-0.39-0.391-1.023,0-1.414s1.023-0.391,1.414,0l3,3C7.895,9.48,8,9.734,8,10S7.895,10.52,7.707,10.707z
	"/>
</svg>
