<?xml version="1.0" encoding="utf-8"?>
<!-- Generator: Adobe Illustrator 15.0.0, SVG Export Plug-In  -->
<!DOCTYPE svg PUBLIC "-//W3C//DTD SVG 1.1//EN" "http://www.w3.org/Graphics/SVG/1.1/DTD/svg11.dtd" [
	<!ENTITY ns_flows "http://ns.adobe.com/Flows/1.0/">
]>
<svg version="1.1"
	 xmlns="http://www.w3.org/2000/svg" xmlns:xlink="http://www.w3.org/1999/xlink" xmlns:a="http://ns.adobe.com/AdobeSVGViewerExtensions/3.0/"
	 x="0px" y="0px" width="16px" height="16px" viewBox="13 2821.971 16 16" enable-background="new 13 2821.971 16 16"
	 xml:space="preserve">
<defs>
</defs>
<rect display="none" fill="#66A19F" width="87" height="3280.97"/>
<path d="M26.801,2825.152c0.266-0.269,0.266-0.709,0-0.979c-0.265-0.27-0.699-0.27-0.963,0l-1.182,1.201
	c-0.023,0.022-0.04,0.047-0.058,0.072c-1.341-0.913-3.058-0.719-4.598,0.524l5,5c1.202-1.514,1.317-3.172,0.521-4.537
	c0.034-0.023,0.067-0.049,0.098-0.08L26.801,2825.152z"/>
<path d="M18.372,2827.433c-1.392,1.546-1.736,3.631-0.893,5.077c-0.034,0.023-0.067,0.05-0.098,0.08l-1.182,1.201
	c-0.266,0.269-0.266,0.709,0,0.979c0.265,0.27,0.699,0.27,0.963,0l1.182-1.2c0.023-0.022,0.04-0.048,0.058-0.072
	c1.44,0.98,3.607,0.648,5.186-0.848L18.372,2827.433z"/>
<rect x="13" y="2821.97" display="none" opacity="0.2" fill="#E94E47" width="16" height="16"/>
</svg>
