<?xml version="1.0" encoding="utf-8"?>
<!-- Generator: Adobe Illustrator 15.0.2, SVG Export Plug-In  -->
<!DOCTYPE svg PUBLIC "-//W3C//DTD SVG 1.1//EN" "http://www.w3.org/Graphics/SVG/1.1/DTD/svg11.dtd" [
	<!ENTITY ns_flows "http://ns.adobe.com/Flows/1.0/">
]>
<svg version="1.1"
	 xmlns="http://www.w3.org/2000/svg" xmlns:xlink="http://www.w3.org/1999/xlink" xmlns:a="http://ns.adobe.com/AdobeSVGViewerExtensions/3.0/"
	 x="0px" y="0px" width="16px" height="16px" viewBox="0 0 16 16" overflow="visible" enable-background="new 0 0 16 16"
	 xml:space="preserve">
<defs>
</defs>
<path d="M8,1.201c0.203,0,0.383,0.112,0.473,0.293l6.273,12.542c0.08,0.161,0.07,0.358-0.025,0.514
	c-0.096,0.154-0.268,0.251-0.449,0.251H1.729c-0.185,0-0.353-0.094-0.45-0.252c-0.096-0.154-0.104-0.351-0.022-0.514L7.529,1.492
	C7.617,1.314,7.8,1.201,8,1.201 M8,0C7.345,0,6.746,0.371,6.455,0.957L0.183,13.498c-0.269,0.535-0.239,1.174,0.075,1.682
	C0.573,15.689,1.13,16,1.729,16h12.542c0.6,0,1.156-0.311,1.471-0.82c0.314-0.508,0.344-1.146,0.074-1.682L9.546,0.957
	C9.253,0.371,8.654,0,8,0"/>
</svg>
