<?xml version="1.0" encoding="utf-8"?>
<!-- Generator: Adobe Illustrator 15.0.0, SVG Export Plug-In  -->
<!DOCTYPE svg PUBLIC "-//W3C//DTD SVG 1.1//EN" "http://www.w3.org/Graphics/SVG/1.1/DTD/svg11.dtd" [
	<!ENTITY ns_flows "http://ns.adobe.com/Flows/1.0/">
]>
<svg version="1.1"
	 xmlns="http://www.w3.org/2000/svg" xmlns:xlink="http://www.w3.org/1999/xlink" xmlns:a="http://ns.adobe.com/AdobeSVGViewerExtensions/3.0/"
	 x="0px" y="0px" width="16px" height="16px" viewBox="-0.5 -0.5 16 16" enable-background="new -0.5 -0.5 16 16"
	 xml:space="preserve">
<defs>
</defs>
<path fill="#FFFFFF" d="M14.707,8.294C14.287,7.947,12.846,6.32,12,5.547V3.5c0-2-1.947-2.5-2.5-2.5h-2V0.5C7.5,0.225,7.275,0,7,0
	H5.018v0.005C5.012,0.005,5.006,0,5,0C4.724,0,4.5,0.225,4.5,0.5V1h-2C0.5,1,0,2.947,0,3.5v8c0,2,1.947,2.5,2.5,2.5
	c0,0,0.234,0.02,3.989,0c0.555,0.749,1.641,1,2.011,1h4c2,0,2.5-1.946,2.5-2.5V9C15,8.744,14.92,8.47,14.707,8.294 M3.5,13
	c-2,0-2.5-0.5-2.5-2.5v-6c0-1.827,0.418-2.402,2.018-2.487C3,3.5,3,3.5,3,3.5C3,3.776,3.224,4,3.5,4h1.518H7h1.5V3.999
	C8.775,3.999,9,3.775,9,3.5C9,3.476,9,3.431,8.96,2C10.578,2.014,11,2.663,11,4.5V5H8.5C6.5,5,6,6.948,6,7.5V13H3.5z M14,11.5
	c0,2-0.5,2.5-2.5,2.5h-2c-2,0-2.5-0.5-2.5-2.5v-3C7,6.5,7.5,6,9.5,6H11v2v0.23v0.002C11.105,8.669,11.529,9,12,9h2V11.5z"/>
</svg>
