<?xml version="1.0" encoding="utf-8"?>
<!-- Generator: Adobe Illustrator 15.0.0, SVG Export Plug-In  -->
<!DOCTYPE svg PUBLIC "-//W3C//DTD SVG 1.1//EN" "http://www.w3.org/Graphics/SVG/1.1/DTD/svg11.dtd" [
	<!ENTITY ns_flows "http://ns.adobe.com/Flows/1.0/">
]>
<svg version="1.1"
	 xmlns="http://www.w3.org/2000/svg" xmlns:xlink="http://www.w3.org/1999/xlink" xmlns:a="http://ns.adobe.com/AdobeSVGViewerExtensions/3.0/"
	 x="0px" y="0px" width="16px" height="16px" viewBox="13 1061.971 16 16" enable-background="new 13 1061.971 16 16"
	 xml:space="preserve">
<defs>
</defs>
<rect display="none" fill="#66A19F" width="87" height="3280.97"/>
<path d="M28.707,1071.263c-0.42-0.346-1.861-1.973-2.707-2.747v-2.046c0-2-1.947-2.5-2.5-2.5h-2v-0.5c0-0.276-0.225-0.5-0.5-0.5v0
	h-1.982v0.004c-0.006,0-0.012-0.003-0.018-0.003c-0.276,0-0.5,0.224-0.5,0.5v0.5h-2c-2,0-2.3,1.947-2.3,2.5v8
	c0,2,1.747,2.401,2.3,2.401c0,0,0.234,0.117,3.989,0.099c0.555,0.749,1.641,1,2.011,1c0,0,3.989,0,4,0c2,0,2.5-1.947,2.5-2.5v-3.5
	C29,1071.714,28.92,1071.439,28.707,1071.263z M17.5,1075.97c-2,0-2.5-0.5-2.5-2.5c0,0,0-5.979,0-6c0-1.828,0.418-2.403,2.018-2.488
	C17,1066.47,17,1066.47,17,1066.47v0c0,0.276,0.224,0.5,0.5,0.5v0h1.518H21h1.5v-0.001c0.275,0,0.5-0.224,0.5-0.499
	c0-0.024,0-0.069-0.04-1.499c1.618,0.012,2.04,0.662,2.04,2.5v0.5l-3,0c-1,0-2,1-2,2v6C18.936,1075.97,18.308,1075.97,17.5,1075.97z
	 M28,1074.47c0,2-0.5,2.5-2.5,2.5c0,0,0,0-2,0s-2.5-0.5-2.5-2.5c0,0,0-2.98,0-3c0-2,0.5-2.5,2.5-2.5c1,0,1.5,0,1.5,0s0,1.448,0,2
	v0.231v0.002c0.106,0.437,0.529,0.768,1,0.768c0.553,0,2,0,2,0S28,1074.443,28,1074.47z"/>
<rect x="13" y="1061.97" display="none" opacity="0.2" fill="#E94E47" width="16" height="16"/>
</svg>
