<?xml version="1.0" encoding="utf-8"?>
<!-- Generator: Adobe Illustrator 15.0.0, SVG Export Plug-In . SVG Version: 6.00 Build 0)  -->
<!DOCTYPE svg PUBLIC "-//W3C//DTD SVG 1.1//EN" "http://www.w3.org/Graphics/SVG/1.1/DTD/svg11.dtd">
<svg version="1.1" id="Layer_1" xmlns="http://www.w3.org/2000/svg" xmlns:xlink="http://www.w3.org/1999/xlink" x="0px" y="0px"
	 width="16px" height="16px" viewBox="0 0 16 16" enable-background="new 0 0 16 16" xml:space="preserve">
<rect display="none" fill="#66A19F" width="87" height="2381.97"/>
<rect x="8" y="197.97" display="none" opacity="0.2" fill="#E94E47" enable-background="new    " width="16" height="16"/>
<line fill="none" stroke="#000000" stroke-width="2" stroke-miterlimit="10" x1="11" y1="6" x2="15" y2="6"/>
<line fill="none" stroke="#000000" stroke-width="2" stroke-miterlimit="10" x1="1" y1="6" x2="5" y2="6"/>
<line fill="none" stroke="#000000" stroke-width="2" stroke-miterlimit="10" x1="11" y1="10" x2="15" y2="10"/>
<line fill="none" stroke="#000000" stroke-width="2" stroke-miterlimit="10" x1="1" y1="10" x2="5" y2="10"/>
<g>
	<path d="M8,12.22c-2.343,0-4.25-1.906-4.25-4.25c0-2.343,1.907-4.25,4.25-4.25c2.344,0,4.25,1.907,4.25,4.25
		C12.25,10.313,10.344,12.22,8,12.22z M8,5.22c-1.517,0-2.75,1.233-2.75,2.75S6.483,10.72,8,10.72s2.75-1.233,2.75-2.75
		S9.517,5.22,8,5.22z"/>
	<path d="M8,4.97c1.654,0,3,1.347,3,3c0,1.654-1.346,3-3,3s-3-1.346-3-3C5,6.316,6.346,4.97,8,4.97 M8,3.97c-2.21,0-4,1.791-4,4
		c0,2.21,1.79,4,4,4s4-1.79,4-4C12,5.761,10.21,3.97,8,3.97L8,3.97z"/>
</g>
</svg>
