<?xml version="1.0" encoding="utf-8"?>
<!-- Generator: Adobe Illustrator 15.0.0, SVG Export Plug-In . SVG Version: 6.00 Build 0)  -->
<!DOCTYPE svg PUBLIC "-//W3C//DTD SVG 1.1//EN" "http://www.w3.org/Graphics/SVG/1.1/DTD/svg11.dtd">
<svg version="1.1" id="Layer_1" xmlns="http://www.w3.org/2000/svg" xmlns:xlink="http://www.w3.org/1999/xlink" x="0px" y="0px"
	 width="16px" height="16px" viewBox="-1.5 0.5 16 16" enable-background="new -1.5 0.5 16 16" xml:space="preserve">
<rect display="none" fill="#66A19F" width="87" height="2381.97"/>
<rect x="8" y="229.97" display="none" opacity="0.2" fill="#E94E47" enable-background="new    " width="16" height="16"/>
<path d="M8.854,12.427c0.006,0.004,0.014,0.006,0.019,0.011c0.104,0.059,0.211,0.114,0.323,0.157
	c0.039,0.016,0.08,0.025,0.121,0.037c0.086,0.029,0.17,0.06,0.261,0.075c0.137,0.027,0.278,0.043,0.424,0.043
	c0.144,0,0.286-0.016,0.423-0.043c0.092-0.016,0.176-0.046,0.262-0.075c0.039-0.012,0.082-0.021,0.121-0.037
	c0.111-0.043,0.217-0.099,0.322-0.157c0.005-0.005,0.012-0.007,0.018-0.011c0.111-0.065,0.215-0.142,0.312-0.225v-0.001
	c0.483-0.412,0.793-1.017,0.793-1.701c0-1.241-1.006-2.25-2.249-2.25S7.751,9.257,7.751,10.5C7.75,11.323,8.195,12.033,8.854,12.427
	z"/>
<path d="M10,14.5c-1.123,0-2.551-0.665-3.018-1.771c-0.59,0.732-0.475,1.529-0.475,2.4c0,0.273,0,0.607,0,0.607
	c0,0.294,0.488,0.763,0.768,0.763h1.531c0.002,0,0.002,0,0.002,0c0.307,0,0.646,0,1.188,0s0.882,0,1.188,0c0,0,0,0,0.002,0h1.545
	c0.265,0,0.76-0.497,0.76-0.776c0,0,0-0.383,0-0.656c0-0.887,0.113-1.646-0.518-2.385C12.494,13.898,11.122,14.5,10,14.5z"/>
<g>
	<line fill="none" stroke="#000000" stroke-width="2" stroke-miterlimit="10" x1="8.5" y1="6.28" x2="12.5" y2="6.28"/>
	<line fill="none" stroke="#000000" stroke-width="2" stroke-miterlimit="10" x1="-1.5" y1="6.28" x2="2.5" y2="6.28"/>
	<line fill="none" stroke="#000000" stroke-width="2" stroke-miterlimit="10" x1="8.5" y1="10.28" x2="12.5" y2="10.28"/>
	<line fill="none" stroke="#000000" stroke-width="2" stroke-miterlimit="10" x1="-1.5" y1="10.28" x2="2.5" y2="10.28"/>
	<g>
		<path d="M5.5,12.5c-2.344,0-4.25-1.906-4.25-4.25C1.25,5.907,3.156,4,5.5,4s4.25,1.907,4.25,4.25C9.75,10.594,7.844,12.5,5.5,12.5
			z M5.5,5.5c-1.517,0-2.75,1.233-2.75,2.75S3.983,11,5.5,11s2.75-1.233,2.75-2.75S7.017,5.5,5.5,5.5z"/>
		<path d="M5.5,5.25c1.654,0,3,1.347,3,3c0,1.654-1.346,3-3,3s-3-1.346-3-3C2.5,6.597,3.846,5.25,5.5,5.25 M5.5,4.25
			c-2.21,0-4,1.791-4,4c0,2.21,1.79,4,4,4s4-1.79,4-4C9.5,6.041,7.71,4.25,5.5,4.25L5.5,4.25z"/>
	</g>
</g>
</svg>
