<?xml version="1.0" encoding="utf-8"?>
<!-- Generator: Adobe Illustrator 15.0.0, SVG Export Plug-In  -->
<!DOCTYPE svg PUBLIC "-//W3C//DTD SVG 1.1//EN" "http://www.w3.org/Graphics/SVG/1.1/DTD/svg11.dtd" [
	<!ENTITY ns_flows "http://ns.adobe.com/Flows/1.0/">
]>
<svg version="1.1"
	 xmlns="http://www.w3.org/2000/svg" xmlns:xlink="http://www.w3.org/1999/xlink" xmlns:a="http://ns.adobe.com/AdobeSVGViewerExtensions/3.0/"
	 x="0px" y="0px" width="16px" height="16px" viewBox="13 1829.971 16 16" enable-background="new 13 1829.971 16 16"
	 xml:space="preserve">
<defs>
</defs>
<rect display="none" fill="#66A19F" width="87" height="3280.97"/>
<path d="M22,1835.384c0,0,0.872,1.164,1.291,1.304c0,0,0.869-1.461,1.961-3.417c0.295-0.529-0.386-3.31-1.089-1.911
	C23.311,1833.058,23.121,1833.849,22,1835.384z"/>
<path d="M24,1839.233c-0.538-0.262-1.038-0.441-1.359-0.711c-3.974-4.011-4.708-7.552-5.641-7.552c-1,0-1,1.501-1,1.501
	c2.292,3.753,5.614,7.403,5.614,7.403s0.297,0.459,0.386,1.096h0.667c0.055-0.453,0.187-0.817,0.459-0.949
	c0.248-0.12,0.553-0.501,0.874-0.395V1839.233z"/>
<g>
	<path d="M18.208,1839.771L18.208,1839.771c0.119,0,0.231,0.02,0.333,0.058c0.234,0.089,0.412,0.276,0.527,0.556
		c0.227,0.552,0.161,1.32-0.176,2.055c-0.521,1.136-1.451,1.73-2.101,1.73c-0.119,0-0.231-0.02-0.333-0.059
		c-0.235-0.089-0.412-0.276-0.527-0.556c-0.227-0.552-0.161-1.32,0.176-2.055C16.628,1840.366,17.559,1839.771,18.208,1839.771
		 M18.208,1838.971c-1.05,0-2.219,0.87-2.828,2.197c-0.731,1.596-0.375,3.25,0.795,3.693c0.197,0.074,0.404,0.11,0.617,0.11
		c1.05,0,2.219-0.87,2.828-2.197c0.731-1.596,0.375-3.249-0.795-3.693C18.628,1839.007,18.42,1838.971,18.208,1838.971
		L18.208,1838.971z"/>
</g>
<g>
	<path d="M23.792,1839.771L23.792,1839.771c0.649,0,1.58,0.594,2.101,1.73c0.336,0.735,0.402,1.503,0.176,2.055
		c-0.115,0.28-0.292,0.467-0.527,0.556c-0.103,0.039-0.214,0.058-0.333,0.058c-0.649,0-1.58-0.594-2.101-1.73
		c-0.336-0.735-0.402-1.503-0.176-2.055c0.115-0.28,0.292-0.468,0.527-0.556C23.561,1839.791,23.672,1839.771,23.792,1839.771
		 M23.792,1838.971c-0.212,0-0.42,0.035-0.617,0.11c-1.17,0.443-1.526,2.097-0.795,3.693c0.608,1.327,1.778,2.197,2.828,2.197
		c0.212,0,0.42-0.036,0.617-0.11c1.171-0.443,1.527-2.097,0.795-3.693C26.011,1839.841,24.841,1838.971,23.792,1838.971
		L23.792,1838.971z"/>
</g>
<rect x="13" y="1829.972" display="none" opacity="0.2" fill="#E94E47" width="16" height="15.998"/>
</svg>
