<?xml version="1.0" encoding="utf-8"?>
<!-- Generator: Adobe Illustrator 15.0.0, SVG Export Plug-In  -->
<!DOCTYPE svg PUBLIC "-//W3C//DTD SVG 1.1//EN" "http://www.w3.org/Graphics/SVG/1.1/DTD/svg11.dtd" [
	<!ENTITY ns_flows "http://ns.adobe.com/Flows/1.0/">
]>
<svg version="1.1"
	 xmlns="http://www.w3.org/2000/svg" xmlns:xlink="http://www.w3.org/1999/xlink" xmlns:a="http://ns.adobe.com/AdobeSVGViewerExtensions/3.0/"
	 x="0px" y="0px" width="16px" height="16px" viewBox="-2 -1 16 16" enable-background="new -2 -1 16 16" xml:space="preserve">
<defs>
</defs>
<path fill="#FFFFFF" d="M6.614,8.903c0,0-3.322-2.936-5.614-6.69c0,0,0.465-2.701,1.023-1.957c0.56,0.747,1.644,3.283,5.617,7.295
	c0.791,0.664,2.651,0.727,3.564,2.954c0.057,0.139-2.027-1.965-3.079-1.455c-1.052,0.511-0.034,4.441-0.422,3.865
	C6.626,11.312,6.614,8.903,6.614,8.903"/>
<path fill="#FFFFFF" d="M6.939,4.413c0,0,0.933,1.164,1.352,1.304c0,0,0.869-1.461,1.961-3.416c0.295-0.528-0.386-3.31-1.089-1.911
	C8.311,2.086,8.061,2.877,6.939,4.413"/>
<path fill="#FFFFFF" d="M3.502,8.388C2.417,7.943,1,8.89,0.338,10.505c-0.663,1.613-0.319,3.283,0.764,3.729
	c1.085,0.444,2.501-0.503,3.164-2.118C4.929,10.503,4.586,8.833,3.502,8.388 M3.599,11.843c-0.437,1.066-1.373,1.691-2.09,1.398
	c-0.714-0.295-0.941-1.396-0.503-2.463c0.437-1.066,1.372-1.691,2.087-1.396C3.811,9.677,4.035,10.777,3.599,11.843"/>
<path fill="#FFFFFF" d="M7.277,12.116c0.663,1.615,2.079,2.563,3.164,2.119c1.083-0.447,1.427-2.117,0.764-3.73
	C10.543,8.89,9.126,7.944,8.041,8.388C6.957,8.833,6.614,10.503,7.277,12.116 M8.45,9.382c0.715-0.295,1.649,0.33,2.087,1.396
	s0.211,2.168-0.503,2.463c-0.717,0.293-1.652-0.332-2.09-1.398C7.508,10.778,7.732,9.677,8.45,9.382"/>
</svg>
