<?xml version="1.0" encoding="utf-8"?>
<!-- Generator: Adobe Illustrator 15.0.0, SVG Export Plug-In  -->
<!DOCTYPE svg PUBLIC "-//W3C//DTD SVG 1.1//EN" "http://www.w3.org/Graphics/SVG/1.1/DTD/svg11.dtd" [
	<!ENTITY ns_flows "http://ns.adobe.com/Flows/1.0/">
]>
<svg version="1.1"
	 xmlns="http://www.w3.org/2000/svg" xmlns:xlink="http://www.w3.org/1999/xlink" xmlns:a="http://ns.adobe.com/AdobeSVGViewerExtensions/3.0/"
	 x="0px" y="0px" width="16px" height="16px" viewBox="8 453.97 16 16" enable-background="new 8 453.97 16 16"
	 xml:space="preserve">
<defs>
</defs>
<rect display="none" fill="#66A19F" width="87" height="2381.97"/>
<path fill-rule="evenodd" clip-rule="evenodd" d="M16,454.97c-3.864,0-6,1.112-6,2.484c0,2.302,0,2.469,0,4.51
	c0,2.042,0,2.084,0,4.483c0,1.372,2.136,2.481,6,2.481c3.865,0,6-1.109,6-2.481c0-2.441,0-2.608,0-4.483s0-2.208,0-4.51
	C22,456.083,19.865,454.97,16,454.97z M16,467.153c-3.273,0-4.928-0.94-4.928-2.104c0-0.301,0.116-0.585,0.337-0.844
	c0.633,0.74,2.164,1.259,4.591,1.259s3.959-0.518,4.592-1.259c0.221,0.259,0.337,0.543,0.337,0.844
	C20.929,466.213,19.273,467.153,16,467.153z M16,463.495c-3.273,0-4.928-0.941-4.928-2.104c0-0.301,0.116-0.585,0.337-0.844
	c0.633,0.74,2.164,1.259,4.591,1.259s3.959-0.518,4.592-1.259c0.221,0.259,0.337,0.543,0.337,0.844
	C20.929,462.554,19.273,463.495,16,463.495z M16,459.839c-3.273,0-4.928-0.788-4.928-1.803c0-1.015,1.654-1.809,4.928-1.809
	s4.929,0.794,4.929,1.809C20.929,459.05,19.273,459.839,16,459.839z"/>
<rect x="8" y="453.97" display="none" opacity="0.2" fill="#E94E47" width="16" height="16"/>
</svg>
