<?xml version="1.0" encoding="utf-8"?>
<!-- Generator: Adobe Illustrator 16.0.2, SVG Export Plug-In . SVG Version: 6.00 Build 0)  -->
<!DOCTYPE svg PUBLIC "-//W3C//DTD SVG 1.1//EN" "http://www.w3.org/Graphics/SVG/1.1/DTD/svg11.dtd">
<svg version="1.1" id="Layer_1" xmlns="http://www.w3.org/2000/svg" xmlns:xlink="http://www.w3.org/1999/xlink" x="0px" y="0px"
	 width="16px" height="16px" viewBox="0 0 16 16" enable-background="new 0 0 16 16" xml:space="preserve">
<path d="M5.219,8.943c0.012,0.008,0.024,0.015,0.037,0.022c0.206,0.13,0.418,0.248,0.643,0.339c0.078,0.033,0.16,0.053,0.239,0.082
	C6.31,9.445,6.479,9.51,6.657,9.545C6.93,9.604,7.211,9.637,7.5,9.637s0.571-0.033,0.844-0.092c0.18-0.035,0.347-0.1,0.521-0.158
	c0.078-0.029,0.161-0.049,0.239-0.082c0.223-0.092,0.434-0.209,0.641-0.339c0.013-0.007,0.026-0.014,0.037-0.022
	c0.221-0.14,0.426-0.302,0.618-0.48c0,0,0,0,0-0.001c0.961-0.883,1.579-2.179,1.579-3.643C11.979,2.157,9.974,0,7.5,0
	C5.028,0,3.022,2.157,3.022,4.819C3.022,6.579,3.91,8.103,5.219,8.943z"/>
<path d="M12.68,8.484c-1.273,1.997-3.135,3.266-5.211,3.266c-2.076,0-3.936-1.269-5.209-3.266c-1.502,1.497-1.242,3.13-1.242,4.934
	c0,0.516,0,1.146,0,1.146C1.017,15.116,1.916,16,2.434,16h2.833c0.001,0,0.003,0,0.003,0c0.568,0,1.199,0,2.198,0
	c1.001,0,1.631,0,2.201,0h0.002h2.863c0.489,0,1.4-0.938,1.4-1.465c0,0,0-0.719,0-1.234C13.935,11.497,14.183,9.979,12.68,8.484z"/>
<path display="none" fill="#89BA17" d="M15.726,12.401c0.203-0.138,0.22-0.674,0-0.811l0,0l0,0c0,0-5.985-3.6-6.144-3.6
	C9.265,7.992,9.01,8.247,9.01,8.563v6.865C9.01,15.744,9.265,16,9.582,16C9.742,16,15.726,12.401,15.726,12.401z"/>
<path fill="#E32219" d="M14.864,8.001H9.181c-0.625,0-1.136,0.516-1.136,1.144v5.711C8.045,15.484,8.556,16,9.181,16h5.684
	C15.489,16,16,15.484,16,14.856V9.146C16,8.518,15.489,8.001,14.864,8.001z"/>
<path display="none" fill="#E32219" d="M13.729,12.516l1.931-1.931c0.356-0.356,0.356-0.933,0-1.287
	c-0.356-0.355-0.932-0.355-1.287,0l-1.93,1.932l-1.931-1.932c-0.357-0.355-0.933-0.355-1.286,0c-0.356,0.354-0.356,0.931,0,1.287
	l1.93,1.931l-1.93,1.932c-0.356,0.354-0.356,0.93,0,1.286C9.403,15.91,9.637,16,9.87,16c0.232,0,0.465-0.09,0.643-0.267l1.931-1.931
	l1.93,1.931C14.551,15.91,14.783,16,15.017,16c0.232,0,0.467-0.09,0.644-0.267c0.356-0.356,0.356-0.933,0-1.286L13.729,12.516z"/>
<circle display="none" fill="#E32219" cx="12" cy="12" r="4"/>
<path fill="#FFFFFF" d="M12.873,12.002l1.311-1.309c0.188-0.195,0.188-0.51,0-0.701l-0.176-0.176c-0.193-0.189-0.508-0.189-0.697,0
	L12,11.127l-1.311-1.311c-0.191-0.193-0.504-0.193-0.697,0L9.816,9.992c-0.189,0.191-0.189,0.506,0,0.701l1.311,1.309l-1.311,1.311
	c-0.189,0.191-0.189,0.504,0,0.697l0.176,0.174c0.193,0.193,0.506,0.193,0.697,0L12,12.875l1.311,1.309
	c0.189,0.193,0.504,0.193,0.697,0l0.176-0.174c0.188-0.193,0.188-0.506,0-0.697L12.873,12.002z"/>
<g display="none">
	<circle display="inline" fill="#89BA17" cx="11.973" cy="11.973" r="4.027"/>
	<path display="inline" fill="#FFFFFF" d="M11.473,14.532c-0.152,0-0.299-0.06-0.407-0.169L9.34,12.638
		c-0.224-0.225-0.224-0.59,0-0.813c0.225-0.225,0.59-0.225,0.813,0l1.28,1.279l2.474-2.967c0.204-0.244,0.566-0.277,0.811-0.073
		c0.244,0.203,0.276,0.565,0.073,0.81l-2.876,3.451c-0.104,0.125-0.255,0.2-0.416,0.207C11.49,14.531,11.481,14.532,11.473,14.532z"
		/>
</g>
</svg>
