<?xml version="1.0" encoding="utf-8"?>
<!-- Generator: Adobe Illustrator 15.0.0, SVG Export Plug-In  -->
<!DOCTYPE svg PUBLIC "-//W3C//DTD SVG 1.1//EN" "http://www.w3.org/Graphics/SVG/1.1/DTD/svg11.dtd" [
	<!ENTITY ns_flows "http://ns.adobe.com/Flows/1.0/">
]>
<svg version="1.1"
	 xmlns="http://www.w3.org/2000/svg" xmlns:xlink="http://www.w3.org/1999/xlink" xmlns:a="http://ns.adobe.com/AdobeSVGViewerExtensions/3.0/"
	 x="0px" y="0px" width="16px" height="16px" viewBox="13 773.971 16 16" enable-background="new 13 773.971 16 16"
	 xml:space="preserve">
<defs>
</defs>
<rect display="none" fill="#66A19F" width="87" height="3280.97"/>
<path d="M26,777.018H15c-0.553,0-1,0.193-1,0.746c0,0.552,0.447,0.731,1,0.731v9.522c0,1.105,0.896,1.953,2,1.953h7
	c1.104,0,2-0.848,2-1.953v-9.522c0.553,0,1-0.18,1-0.731C27,777.211,26.553,777.018,26,777.018z M16.752,787.613v-8.191
	c0-0.413,0.334-0.748,0.748-0.748s0.748,0.335,0.748,0.748v8.191c0,0.414-0.334,0.748-0.748,0.748S16.752,788.027,16.752,787.613z
	 M19.752,787.613v-8.191c0-0.413,0.335-0.748,0.748-0.748s0.748,0.335,0.748,0.748v8.191c0,0.414-0.335,0.748-0.748,0.748
	S19.752,788.027,19.752,787.613z M22.752,787.613v-8.191c0-0.413,0.335-0.748,0.748-0.748s0.748,0.335,0.748,0.748v8.191
	c0,0.414-0.335,0.748-0.748,0.748S22.752,788.027,22.752,787.613z M16.693,776.469c-0.248-0.169-0.316-0.505-0.148-0.755
	c0.047-0.071,1.193-1.744,3.955-1.744s3.908,1.673,3.956,1.744c0.168,0.252,0.1,0.592-0.152,0.76
	c-0.094,0.063-0.199,0.092-0.303,0.092c-0.178,0-0.352-0.086-0.457-0.244c-0.032-0.047-0.896-1.256-3.044-1.256
	s-3.012,1.209-3.047,1.26C17.281,776.573,16.942,776.638,16.693,776.469z"/>
<rect x="13" y="773.97" display="none" opacity="0.2" fill="#E94E47" width="16" height="16"/>
</svg>
