<?xml version="1.0" encoding="utf-8"?>
<!-- Generator: Adobe Illustrator 15.0.0, SVG Export Plug-In  -->
<!DOCTYPE svg PUBLIC "-//W3C//DTD SVG 1.1//EN" "http://www.w3.org/Graphics/SVG/1.1/DTD/svg11.dtd" [
	<!ENTITY ns_flows "http://ns.adobe.com/Flows/1.0/">
]>
<svg version="1.1"
	 xmlns="http://www.w3.org/2000/svg" xmlns:xlink="http://www.w3.org/1999/xlink" xmlns:a="http://ns.adobe.com/AdobeSVGViewerExtensions/3.0/"
	 x="0px" y="0px" width="16px" height="16px" viewBox="-1.5 0 16 16" enable-background="new -1.5 0 16 16" xml:space="preserve">
<defs>
</defs>
<path fill="#FFFFFF" d="M12,3.048H1c-0.553,0-1,0.192-1,0.746c0,0.552,0.447,0.73,1,0.73v9.522c0,1.104,0.896,2,2,2h7
	c1.104,0,2-0.896,2-2V4.524c0.553,0,1-0.179,1-0.73C13,3.24,12.553,3.048,12,3.048 M2.752,13.643V5.452
	c0-0.413,0.334-0.749,0.748-0.749s0.748,0.335,0.748,0.749v8.191c0,0.414-0.334,0.748-0.748,0.748S2.752,14.057,2.752,13.643
	 M5.752,13.643V5.452c0-0.413,0.335-0.749,0.748-0.749s0.748,0.335,0.748,0.749v8.191c0,0.414-0.335,0.748-0.748,0.748
	S5.752,14.057,5.752,13.643 M8.752,13.643V5.452c0-0.413,0.335-0.749,0.748-0.749c0.412,0,0.748,0.335,0.748,0.749v8.191
	c0,0.414-0.336,0.748-0.748,0.748C9.087,14.391,8.752,14.057,8.752,13.643 M2.693,2.499C2.445,2.33,2.377,1.994,2.545,1.744
	C2.592,1.673,3.738,0,6.5,0s3.908,1.673,3.955,1.744c0.168,0.252,0.1,0.592-0.152,0.76C10.209,2.565,10.104,2.596,10,2.596
	c-0.178,0-0.352-0.086-0.457-0.244C9.512,2.305,8.648,1.096,6.5,1.096S3.488,2.305,3.453,2.354C3.281,2.603,2.942,2.668,2.693,2.499
	"/>
</svg>
