<svg id="Layer_1" data-name="Layer 1" xmlns="http://www.w3.org/2000/svg" viewBox="0 0 13.1 15.01"><defs><style>.cls-1{fill:#fff;}.cls-2{fill:#e32219;}</style></defs><title>ebIcon_detach_white</title><path class="cls-1" d="M8.5.5a3,3,0,0,0-3,3V10c0,1.42.64,2.5,1.5,2.5H8.5c.58,0,1-.63,1-1.5V4h-1v7a1.09,1.09,0,0,1-.1.5H7c-.1,0-.5-.48-.5-1.5V3.5a2,2,0,0,1,4,0v8a3,3,0,0,1-3,3c-1.63,0-3-2.06-3-4.5V4h-1v6c0,3,1.79,5.5,4,5.5a4,4,0,0,0,4-4v-8A3,3,0,0,0,8.5.5Z" transform="translate(-0.95 -0.49)"/><rect class="cls-2" x="-1.35" y="6.75" width="17.69" height="1.5" transform="translate(-4.05 7.43) rotate(-47.29)"/></svg>