<?xml version="1.0" encoding="utf-8"?>
<!-- Generator: Adobe Illustrator 15.0.0, SVG Export Plug-In . SVG Version: 6.00 Build 0)  -->
<!DOCTYPE svg PUBLIC "-//W3C//DTD SVG 1.1//EN" "http://www.w3.org/Graphics/SVG/1.1/DTD/svg11.dtd">
<svg version="1.1" id="Layer_1" xmlns="http://www.w3.org/2000/svg" xmlns:xlink="http://www.w3.org/1999/xlink" x="0px" y="0px"
	 width="16px" height="16px" viewBox="0 0 16 16" enable-background="new 0 0 16 16" xml:space="preserve">
<rect display="none" fill="#66A19F" width="87" height="2381.97"/>
<rect x="8" y="389.97" display="none" opacity="0.2" fill="#E94E47" enable-background="new    " width="16" height="16"/>
<path d="M9,0.5c-1.654,0-3,1.346-3,3V4v2v4c0,1.425,0.645,2.5,1.5,2.5h1H9c0.579,0,1-0.631,1-1.5V4H9v7
	c0,0.249-0.061,0.422-0.104,0.5H8.5h-1C7.401,11.5,7,11.018,7,10V6V4V3.5c0-1.103,0.897-2,2-2c1.104,0,2,0.897,2,2V8v2v1.5
	c0,1.654-1.346,3-3,3c-1.626,0-3-2.061-3-4.5V4H4v6c0,3.032,1.794,5.5,4,5.5s4-1.794,4-4V10V8V3.5C12,1.846,10.654,0.5,9,0.5z"/>
<line fill="none" stroke="#E32219" stroke-width="1.5" stroke-miterlimit="10" x1="2" y1="14" x2="14" y2="1"/>
</svg>
