<?xml version="1.0" encoding="utf-8"?>
<!-- Generator: Adobe Illustrator 15.0.0, SVG Export Plug-In  -->
<!DOCTYPE svg PUBLIC "-//W3C//DTD SVG 1.1//EN" "http://www.w3.org/Graphics/SVG/1.1/DTD/svg11.dtd" [
	<!ENTITY ns_flows "http://ns.adobe.com/Flows/1.0/">
]>
<svg version="1.1"
	 xmlns="http://www.w3.org/2000/svg" xmlns:xlink="http://www.w3.org/1999/xlink" xmlns:a="http://ns.adobe.com/AdobeSVGViewerExtensions/3.0/"
	 x="0px" y="0px" width="16px" height="16px" viewBox="13 453.971 16 16" enable-background="new 13 453.971 16 16"
	 xml:space="preserve">
<defs>
</defs>
<rect display="none" fill="#66A19F" width="87" height="3280.97"/>
<circle fill="#00A9D4" cx="21" cy="461.97" r="8"/>
<path fill="#FFFFFF" d="M20,461.97c0-0.55,0.45-1,1-1l0,0c0.55,0,1,0.45,1,1v4c0,0.55-0.45,1-1,1l0,0c-0.55,0-1-0.45-1-1V461.97z"/>
<path fill="#FFFFFF" d="M20,457.77c0-0.44,0.36-0.8,0.8-0.8h0.4c0.44,0,0.8,0.36,0.8,0.8v0.4c0,0.44-0.36,0.8-0.8,0.8h-0.4
	c-0.44,0-0.8-0.36-0.8-0.8V457.77z"/>
<rect x="13" y="453.97" display="none" opacity="0.2" fill="#E94E47" width="16" height="16"/>
</svg>
