<?xml version="1.0" encoding="utf-8"?>
<!-- Generator: Adobe Illustrator 15.0.0, SVG Export Plug-In  -->
<!DOCTYPE svg PUBLIC "-//W3C//DTD SVG 1.1//EN" "http://www.w3.org/Graphics/SVG/1.1/DTD/svg11.dtd" [
	<!ENTITY ns_flows "http://ns.adobe.com/Flows/1.0/">
]>
<svg version="1.1"
	 xmlns="http://www.w3.org/2000/svg" xmlns:xlink="http://www.w3.org/1999/xlink" xmlns:a="http://ns.adobe.com/AdobeSVGViewerExtensions/3.0/"
	 x="0px" y="0px" width="16px" height="16px" viewBox="13 197.971 16 16" enable-background="new 13 197.971 16 16"
	 xml:space="preserve">
<defs>
</defs>
<rect display="none" fill="#66A19F" width="87" height="3280.97"/>
<path d="M20.293,209.677c0.195,0.196,0.451,0.293,0.707,0.293s0.512-0.098,0.707-0.293l5-5c0.391-0.39,0.391-1.023,0-1.414
	c-0.391-0.39-1.023-0.39-1.414,0L22,206.556v-6.586c0-0.552-0.448-1-1-1s-1,0.448-1,1v6.586l-3.293-3.293
	c-0.391-0.39-1.023-0.39-1.414,0c-0.391,0.391-0.391,1.024,0,1.414L20.293,209.677z"/>
<path d="M27,210.97H15c-0.552,0-1,0.448-1,1s0.448,1,1,1h12c0.552,0,1-0.448,1-1S27.552,210.97,27,210.97z"/>
<rect x="13" y="197.97" display="none" opacity="0.2" fill="#E94E47" width="16" height="16"/>
</svg>
