<?xml version="1.0" encoding="utf-8"?>
<!-- Generator: Adobe Illustrator 15.0.0, SVG Export Plug-In  -->
<!DOCTYPE svg PUBLIC "-//W3C//DTD SVG 1.1//EN" "http://www.w3.org/Graphics/SVG/1.1/DTD/svg11.dtd" [
	<!ENTITY ns_flows "http://ns.adobe.com/Flows/1.0/">
]>
<svg version="1.1"
	 xmlns="http://www.w3.org/2000/svg" xmlns:xlink="http://www.w3.org/1999/xlink" xmlns:a="http://ns.adobe.com/AdobeSVGViewerExtensions/3.0/"
	 x="0px" y="0px" width="16px" height="16px" viewBox="0 0 16 16" enable-background="new 0 0 16 16" xml:space="preserve">
<defs>
</defs>
<path fill="#FFFFFF" d="M14,13.001H2c-0.552,0-1,0.448-1,1S1.448,15,2,15h12c0.552,0,1-0.447,1-0.999S14.552,13.001,14,13.001z"/>
<path fill="#FFFFFF" d="M7.293,11.707C7.488,11.902,7.744,12,8,12s0.512-0.098,0.707-0.293l5-5c0.391-0.39,0.391-1.023,0-1.414
	c-0.391-0.39-1.023-0.39-1.414,0L9,8.586V2c0-0.552-0.448-1-1-1S7,1.448,7,2v6.586L3.707,5.293c-0.391-0.39-1.023-0.39-1.414,0
	c-0.391,0.391-0.391,1.024,0,1.414L7.293,11.707z"/>
<rect display="none" opacity="0.2" fill="#E94E47" enable-background="new    " width="16" height="16"/>
</svg>
