<?xml version="1.0" encoding="utf-8"?>
<svg version="1.1" xmlns="http://www.w3.org/2000/svg" xmlns:xlink="http://www.w3.org/1999/xlink" x="0px" y="0px"
	 viewBox="0 0 13.4 15" style="enable-background:new 0 0 13.4 15;" xml:space="preserve">
<path fill="#999999" d="M8.2,7c1-1,2-2,3.4-3.3c-0.2-0.4-0.5-0.8-0.8-1.1C10.5,2.3,10.1,2,9.7,1.8C8.3,3.2,7.4,4.2,6.4,5.2
	c0.4,0.2,0.7,0.5,1,0.8C7.7,6.3,7.9,6.6,8.2,7"/>
<path fill="#999999" d="M6.4,7C6.1,6.7,5.7,6.4,5.3,6.2L5.2,6.4C5,6.6,3.5,8.9,4,9.4s2.8-1,3-1.2l0.2-0.2C7,7.7,6.7,7.3,6.4,7"/>
<path fill="#999999" d="M11.7,1.7c0.3,0.3,0.6,0.6,0.8,1l0.1-0.1c0.6-0.5,1.3-1.3,0.4-2.2s-1.7-0.1-2.2,0.4l-0.1,0.1
	C11,1.1,11.4,1.4,11.7,1.7"/>
<path fill="#999999" d="M9.9,7v6c0,0.6-0.3,0.9-0.9,0.9H2c-0.6,0-0.8-0.4-0.8-0.9V4c0-0.6,0.3-0.9,0.8-0.9h5L8,2H2C0.9,2,0,2.9,0,4v9
	c0,1.1,0.9,2,2,2h7c1.1,0,2-0.9,2-2V6L9.9,7z"/>
</svg>
