<?xml version="1.0" encoding="utf-8"?>
<!-- Generator: Adobe Illustrator 15.0.0, SVG Export Plug-In  -->
<!DOCTYPE svg PUBLIC "-//W3C//DTD SVG 1.1//EN" "http://www.w3.org/Graphics/SVG/1.1/DTD/svg11.dtd" [
	<!ENTITY ns_flows "http://ns.adobe.com/Flows/1.0/">
]>
<svg version="1.1"
	 xmlns="http://www.w3.org/2000/svg" xmlns:xlink="http://www.w3.org/1999/xlink" xmlns:a="http://ns.adobe.com/AdobeSVGViewerExtensions/3.0/"
	 x="0px" y="0px" width="16px" height="16px" viewBox="-1 0 16 16" enable-background="new -1 0 16 16" xml:space="preserve">
<defs>
</defs>
<path fill="#FFFFFF" d="M13.707,5.294c-0.475-0.391-3.248-2.411-4-3C9.489,2.123,9.256,2,9,2H8.99
	C8.091,1.333,7.11,0.608,6.707,0.294C6.489,0.123,6.256,0,6,0H2.5C0.5,0,0,1.948,0,2.5v9c0,2,1.947,2.5,2.5,2.5h0.533
	C3.25,15.587,4.496,16,5,16h6.5c2,0,2.5-1.946,2.5-2.5V6C14,5.744,13.92,5.47,13.707,5.294 M1,10.5v-7C1,1.5,1.5,1,3.5,1H5v1v1.022
	V4c0,0.554,0.447,1,1,1h2h2v2v3.5c0,2-0.5,2.5-2.5,2.5h-4C1.5,13,1,12.5,1,10.5 M13,12.5c0,2-0.5,2.5-2.5,2.5H6
	c-1.286,0-1.742-0.343-1.905-1.001C9,14,8.493,14,8.5,14c2,0,2.5-1.946,2.5-2.5V7h2V12.5z"/>
</svg>
