<?xml version="1.0" encoding="utf-8"?>
<!-- Generator: Adobe Illustrator 15.0.0, SVG Export Plug-In  -->
<!DOCTYPE svg PUBLIC "-//W3C//DTD SVG 1.1//EN" "http://www.w3.org/Graphics/SVG/1.1/DTD/svg11.dtd" [
	<!ENTITY ns_flows "http://ns.adobe.com/Flows/1.0/">
]>
<svg version="1.1"
	 xmlns="http://www.w3.org/2000/svg" xmlns:xlink="http://www.w3.org/1999/xlink" xmlns:a="http://ns.adobe.com/AdobeSVGViewerExtensions/3.0/"
	 x="0px" y="0px" width="16px" height="16px" viewBox="13 517.971 16 16" enable-background="new 13 517.971 16 16"
	 xml:space="preserve">
<defs>
</defs>
<rect display="none" fill="#66A19F" width="87" height="3280.97"/>
<path d="M20.417,528.848c1.295-1.285,2.509-2.489,4.235-4.229c-0.225-0.463-0.54-0.925-0.956-1.341
	c-0.417-0.417-0.88-0.732-1.343-0.957c-1.741,1.724-2.943,2.941-4.227,4.235c0.448,0.263,0.887,0.587,1.296,0.995
	C19.83,527.957,20.153,528.397,20.417,528.848z"/>
<path d="M18.174,528.8c-0.414-0.413-0.876-0.727-1.334-0.95c-0.112,0.113-0.19,0.191-0.209,0.21c-0.21,0.21-2.142,3.14-1.5,3.781
	c0.644,0.643,3.573-1.287,3.783-1.497c0.02-0.02,0.097-0.097,0.21-0.208C18.9,529.675,18.587,529.212,18.174,528.8z"/>
<path d="M24.862,522.11c0.406,0.406,0.729,0.845,0.992,1.295c0.023-0.025,0.051-0.053,0.076-0.078
	c0.703-0.715,1.691-1.693,0.549-2.836c-1.141-1.141-2.117-0.152-2.833,0.55c-0.025,0.025-0.054,0.052-0.079,0.076
	C24.016,521.381,24.456,521.705,24.862,522.11z"/>
<rect x="13" y="517.97" display="none" opacity="0.2" fill="#E94E47" width="16" height="16"/>
</svg>
