<?xml version="1.0" encoding="utf-8"?>
<!-- Generator: Adobe Illustrator 15.0.0, SVG Export Plug-In  -->
<!DOCTYPE svg PUBLIC "-//W3C//DTD SVG 1.1//EN" "http://www.w3.org/Graphics/SVG/1.1/DTD/svg11.dtd" [
	<!ENTITY ns_flows "http://ns.adobe.com/Flows/1.0/">
]>
<svg version="1.1"
	 xmlns="http://www.w3.org/2000/svg" xmlns:xlink="http://www.w3.org/1999/xlink" xmlns:a="http://ns.adobe.com/AdobeSVGViewerExtensions/3.0/"
	 x="0px" y="0px" width="16px" height="16px" viewBox="-2 -2 16 16" enable-background="new -2 -2 16 16" xml:space="preserve">
<defs>
</defs>
<path fill="#FFFFFF" d="M5.416,8.877c1.295-1.285,2.51-2.49,4.234-4.23C9.426,4.186,9.112,3.723,8.696,3.306
	C8.279,2.889,7.814,2.574,7.353,2.35C5.612,4.073,4.41,5.291,3.126,6.583c0.448,0.263,0.887,0.587,1.296,0.996
	C4.83,7.985,5.153,8.425,5.416,8.877"/>
<path fill="#FFFFFF" d="M3.173,8.828C2.76,8.414,2.298,8.1,1.839,7.877C1.727,7.991,1.649,8.069,1.63,8.088
	c-0.21,0.211-2.142,3.14-1.5,3.78c0.645,0.645,3.572-1.286,3.783-1.496c0.02-0.021,0.096-0.097,0.21-0.21
	C3.9,9.702,3.587,9.24,3.173,8.828"/>
<path fill="#FFFFFF" d="M9.86,2.14c0.406,0.406,0.73,0.844,0.993,1.294c0.022-0.024,0.05-0.052,0.075-0.077
	c0.702-0.715,1.693-1.692,0.549-2.836C10.338-0.62,9.36,0.368,8.646,1.071C8.62,1.096,8.591,1.124,8.565,1.146
	C9.016,1.409,9.455,1.734,9.86,2.14"/>
</svg>
