<?xml version="1.0" encoding="utf-8"?>
<!-- Generator: Adobe Illustrator 15.0.0, SVG Export Plug-In  -->
<!DOCTYPE svg PUBLIC "-//W3C//DTD SVG 1.1//EN" "http://www.w3.org/Graphics/SVG/1.1/DTD/svg11.dtd" [
	<!ENTITY ns_flows "http://ns.adobe.com/Flows/1.0/">
]>
<svg version="1.1"
	 xmlns="http://www.w3.org/2000/svg" xmlns:xlink="http://www.w3.org/1999/xlink" xmlns:a="http://ns.adobe.com/AdobeSVGViewerExtensions/3.0/"
	 x="0px" y="0px" width="16px" height="16px" viewBox="13 357.971 16 16" enable-background="new 13 357.971 16 16"
	 xml:space="preserve">
<defs>
</defs>
<rect display="none" fill="#66A19F" width="87" height="3280.97"/>
<path fill="#E32219" d="M21,357.97c-4.418,0-8,3.582-8,8c0,4.418,3.582,8,8,8s8-3.582,8-8C29,361.552,25.418,357.97,21,357.97"/>
<path fill="#FFFFFF" d="M24.536,368.09c0.392,0.392,0.392,1.024,0,1.414c-0.194,0.195-0.451,0.293-0.707,0.293
	s-0.512-0.098-0.707-0.293L21,367.383l-2.121,2.121c-0.195,0.195-0.451,0.293-0.707,0.293s-0.511-0.098-0.707-0.293
	c-0.39-0.391-0.39-1.023,0-1.414l2.121-2.121l-2.121-2.121c-0.39-0.391-0.39-1.023,0-1.414c0.391-0.391,1.024-0.391,1.414,0
	L21,364.555l2.122-2.121c0.392-0.391,1.022-0.391,1.414,0c0.392,0.391,0.392,1.023,0,1.414l-2.122,2.121L24.536,368.09z"/>
<rect x="13" y="357.97" display="none" opacity="0.2" fill="#E94E47" width="16" height="16"/>
</svg>
