<?xml version="1.0" encoding="utf-8"?>
<!-- Generator: Adobe Illustrator 15.0.0, SVG Export Plug-In  -->
<!DOCTYPE svg PUBLIC "-//W3C//DTD SVG 1.1//EN" "http://www.w3.org/Graphics/SVG/1.1/DTD/svg11.dtd" [
	<!ENTITY ns_flows "http://ns.adobe.com/Flows/1.0/">
]>
<svg version="1.1"
	 xmlns="http://www.w3.org/2000/svg" xmlns:xlink="http://www.w3.org/1999/xlink" xmlns:a="http://ns.adobe.com/AdobeSVGViewerExtensions/3.0/"
	 x="0px" y="0px" width="16px" height="16px" viewBox="13 1125.971 16 16" enable-background="new 13 1125.971 16 16"
	 xml:space="preserve">
<defs>
</defs>
<rect display="none" fill="#66A19F" width="87" height="3280.97"/>
<path d="M16.5,1127.97c-0.275,0-0.5,0.225-0.5,0.5v11c0,0.275,0.225,0.5,0.5,0.5s0.5-0.225,0.5-0.5v-11
	C17,1128.195,16.775,1127.97,16.5,1127.97z"/>
<path d="M24.609,1133.658L21,1130.171v-1.701c0-0.275-0.225-0.5-0.5-0.5s-0.5,0.225-0.5,0.5v2v7v2c0,0.275,0.225,0.5,0.5,0.5
	s0.5-0.225,0.5-0.5v-1.699l3.609-3.489C24.824,1134.111,24.824,1133.83,24.609,1133.658z"/>
<rect x="13" y="1125.97" display="none" opacity="0.2" fill="#E94E47" width="16" height="16"/>
</svg>
