<?xml version="1.0" encoding="utf-8"?>
<!-- Generator: Adobe Illustrator 15.0.0, SVG Export Plug-In . SVG Version: 6.00 Build 0)  -->
<!DOCTYPE svg PUBLIC "-//W3C//DTD SVG 1.1//EN" "http://www.w3.org/Graphics/SVG/1.1/DTD/svg11.dtd">
<svg version="1.1" id="Layer_1" xmlns="http://www.w3.org/2000/svg" xmlns:xlink="http://www.w3.org/1999/xlink" x="0px" y="0px"
	 width="16px" height="16px" viewBox="0 0 16 16" enable-background="new 0 0 16 16" xml:space="preserve">
<rect display="none" fill="#66A19F" width="87" height="3280.97"/>
<rect x="13" y="1093.97" display="none" opacity="0.2" fill="#E94E47" enable-background="new    " width="16" height="16"/>
<path fill="#000" d="M13.25,1C13.664,1,14,1.336,14,1.75v3c0,0.302-0.184,0.577-0.463,0.693
	c-0.094,0.038-0.191,0.058-0.287,0.058c-0.195,0-0.387-0.077-0.531-0.221l-0.793-0.793l-3.689,3.69L6.822,6.762l3.69-3.688
	L9.719,2.28C9.504,2.065,9.441,1.743,9.557,1.463C9.673,1.183,9.945,1.001,10.25,1H13.25"/>
<g>
	<path fill="none" stroke="#000" stroke-width="1.5" stroke-miterlimit="10" d="M7,2H4C2.9,2,2,2.9,2,4v8c0,1.1,0.9,2,2,2h7
		c1.1,0,2-0.9,2-2V8"/>
</g>
</svg>
