<?xml version="1.0" encoding="utf-8"?>
<!-- Generator: Adobe Illustrator 15.0.0, SVG Export Plug-In  -->
<!DOCTYPE svg PUBLIC "-//W3C//DTD SVG 1.1//EN" "http://www.w3.org/Graphics/SVG/1.1/DTD/svg11.dtd" [
	<!ENTITY ns_flows "http://ns.adobe.com/Flows/1.0/">
]>
<svg version="1.1"
	 xmlns="http://www.w3.org/2000/svg" xmlns:xlink="http://www.w3.org/1999/xlink" xmlns:a="http://ns.adobe.com/AdobeSVGViewerExtensions/3.0/"
	 x="0px" y="0px" width="16px" height="16px" viewBox="-2 -1 16 16" enable-background="new -2 -1 16 16" xml:space="preserve">
<defs>
</defs>
<path fill="#FFFFFF" d="M10.027,7L10,12c0,0.554-0.449,1-1,1H2c-0.552,0-1-0.446-1-1V3c0-0.551,0.448-1,1-1h3V1H2C0.9,1,0,1.9,0,3v9
	c0,1.101,0.9,2,2,2h7c1.1,0,2-0.899,2-2V7H10.027z"/>
<path fill="#FFFFFF" d="M11.25,0C11.664,0,12,0.337,12,0.75v3c0,0.303-0.184,0.577-0.463,0.693
	c-0.094,0.038-0.191,0.058-0.287,0.058c-0.195,0-0.387-0.076-0.531-0.221L9.926,3.487L6.236,7.179L4.822,5.763l3.689-3.689
	L7.719,1.28C7.504,1.065,7.441,0.743,7.557,0.464C7.672,0.184,7.945,0.001,8.25,0H11.25"/>
</svg>
