<svg id="Layer_1" data-name="Layer 1" xmlns="http://www.w3.org/2000/svg" viewBox="0 0 16 14"><defs><style>.cls-1{fill:#fff;}.cls-2{fill:#e32219;}</style></defs><title>ebIcon_eyeLine_white</title><g id="eye"><path class="cls-1" d="M8,2C3.58,2,0,7.92,0,7.92S3.58,14,8,14s8-6.08,8-6.08S12.42,2,8,2ZM8,12a4,4,0,1,1,4-4A4,4,0,0,1,8,12Z" transform="translate(0 -1)"/><circle class="cls-1" cx="8" cy="7.01" r="2"/></g><path class="cls-2" d="M14,15a1,1,0,0,1-.71-.29l-12-12A1,1,0,0,1,2.71,1.29l12,12A1,1,0,0,1,14,15Z" transform="translate(0 -1)"/></svg>