<?xml version="1.0" encoding="utf-8"?>
<!-- Generator: Adobe Illustrator 15.0.0, SVG Export Plug-In  -->
<!DOCTYPE svg PUBLIC "-//W3C//DTD SVG 1.1//EN" "http://www.w3.org/Graphics/SVG/1.1/DTD/svg11.dtd" [
	<!ENTITY ns_flows "http://ns.adobe.com/Flows/1.0/">
]>
<svg version="1.1"
	 xmlns="http://www.w3.org/2000/svg" xmlns:xlink="http://www.w3.org/1999/xlink" xmlns:a="http://ns.adobe.com/AdobeSVGViewerExtensions/3.0/"
	 x="0px" y="0px" width="16px" height="16px" viewBox="13 2533.971 16 16" enable-background="new 13 2533.971 16 16"
	 xml:space="preserve">
<defs>
</defs>
<rect display="none" fill="#66A19F" width="87" height="3280.97"/>
<path d="M28.994,2537.47c0-0.255-0.058-0.513-0.195-0.75c-0.414-0.717-1.331-0.963-2.049-0.549c-0.041,0.024-3.004,2.25-4.75,3.562
	v-2.262h-0.006c0-0.255-0.058-0.513-0.195-0.75c-0.414-0.717-1.331-0.963-2.049-0.549c-0.058,0.034-6,4.501-6,4.501l0.003,0.005
	c-0.451,0.261-0.756,0.744-0.753,1.302c0.003,0.552,0.307,1.028,0.753,1.285l-0.003,0.005c0,0,5.954,4.465,6.002,4.493
	c0,0,0.478,0.207,0.748,0.207c0.829,0,1.5-0.672,1.5-1.5v-2.263c1.748,1.311,4.718,3.536,4.752,3.556c0,0,0.478,0.207,0.748,0.207
	c0.829,0,1.5-0.672,1.5-1.5v-9H28.994z"/>
<rect x="13" y="2533.97" display="none" opacity="0.2" fill="#E94E47" width="16" height="16"/>
</svg>
