<?xml version="1.0" encoding="utf-8"?>
<!-- Generator: Adobe Illustrator 15.0.0, SVG Export Plug-In  -->
<!DOCTYPE svg PUBLIC "-//W3C//DTD SVG 1.1//EN" "http://www.w3.org/Graphics/SVG/1.1/DTD/svg11.dtd" [
	<!ENTITY ns_flows "http://ns.adobe.com/Flows/1.0/">
]>
<svg version="1.1"
	 xmlns="http://www.w3.org/2000/svg" xmlns:xlink="http://www.w3.org/1999/xlink" xmlns:a="http://ns.adobe.com/AdobeSVGViewerExtensions/3.0/"
	 x="0px" y="0px" width="16px" height="16px" viewBox="13 261.971 16 16" enable-background="new 13 261.971 16 16"
	 xml:space="preserve">
<defs>
</defs>
<rect display="none" fill="#66A19F" width="87" height="3280.97"/>
<path d="M14.383,264.739l-0.151-0.151C14.278,264.645,14.326,264.694,14.383,264.739z"/>
<path d="M26,262.971H15c-0.552,0-1,0.448-1,1c0,0.237,0.094,0.446,0.232,0.617l0.151,0.151L18,268.356v5.115l0.006,0.002
	c0,0.019-0.005,0.036-0.005,0.055c0,0.557,0.308,1.038,0.759,1.297l1.756,1.002c0.146,0.083,0.306,0.142,0.485,0.142
	c0.552,0,1-0.447,1-0.999v-5.615l4.618-4.618l0.149-0.148c0.138-0.172,0.233-0.381,0.233-0.618
	C27,263.419,26.552,262.971,26,262.971z"/>
<rect x="13" y="261.97" display="none" opacity="0.2" fill="#E94E47" width="16" height="16"/>
</svg>
