<?xml version="1.0" encoding="utf-8"?>
<!-- Generator: Adobe Illustrator 15.0.0, SVG Export Plug-In  -->
<!DOCTYPE svg PUBLIC "-//W3C//DTD SVG 1.1//EN" "http://www.w3.org/Graphics/SVG/1.1/DTD/svg11.dtd" [
	<!ENTITY ns_flows "http://ns.adobe.com/Flows/1.0/">
]>
<svg version="1.1"
	 xmlns="http://www.w3.org/2000/svg" xmlns:xlink="http://www.w3.org/1999/xlink" xmlns:a="http://ns.adobe.com/AdobeSVGViewerExtensions/3.0/"
	 x="0px" y="0px" width="16px" height="16px" viewBox="13 965.971 16 16" enable-background="new 13 965.971 16 16"
	 xml:space="preserve">
<defs>
</defs>
<rect display="none" fill="#66A19F" width="87" height="3280.97"/>
<path d="M26.5,977.971L26.5,977.971C26.482,978.033,26.5,977.971,26.5,977.971z"/>
<path d="M25.917,969.971c-0.12,0-0.509,0-0.834,0c0-1-0.958-2-3.125-2c-0.607,0-3.417,0-4.875,0c-2.041,0-3.083,1.084-3.083,3
	c0,0.672,0,6.591,0,7c0,0.553,0.447,0.999,1,0.999c0.449,0,9.586,0,10.377,0c0.789,0,1.121-0.994,1.123-0.998
	c0.044-0.155,0.055-0.194,1.492-5.224C28.24,971.971,27.917,969.971,25.917,969.971z M26.811,972.35l-1.457,4.792
	c-0.121,0.472-0.619,0.857-1.105,0.857h-7.61c-0.486,0-0.784-0.385-0.663-0.857l0.962-4.792c0.121-0.471,0.619-0.855,1.105-0.855
	h8.105C26.634,971.495,26.932,971.88,26.811,972.35z"/>
<rect x="13" y="965.97" display="none" opacity="0.2" fill="#E94E47" width="16" height="16"/>
</svg>
