<?xml version="1.0" encoding="utf-8"?>
<!-- Generator: Adobe Illustrator 15.0.0, SVG Export Plug-In  -->
<!DOCTYPE svg PUBLIC "-//W3C//DTD SVG 1.1//EN" "http://www.w3.org/Graphics/SVG/1.1/DTD/svg11.dtd" [
	<!ENTITY ns_flows "http://ns.adobe.com/Flows/1.0/">
]>
<svg version="1.1"
	 xmlns="http://www.w3.org/2000/svg" xmlns:xlink="http://www.w3.org/1999/xlink" xmlns:a="http://ns.adobe.com/AdobeSVGViewerExtensions/3.0/"
	 x="0px" y="0px" width="16px" height="16px" viewBox="-1 -2.5 16 16" enable-background="new -1 -2.5 16 16" xml:space="preserve">
<defs>
</defs>
<path fill="#FFFFFF" d="M12.5,9.999L12.5,9.999C12.482,10.062,12.5,9.999,12.5,9.999"/>
<path fill="#FFFFFF" d="M11.916,2h-0.834c0-1-0.957-2-3.125-2H3.082C1.041,0,0,1.083,0,3v7c0,0.552,0.447,1,1,1h10.377
	c0.789,0,1.121-0.996,1.123-0.999c0.043-0.156,0.055-0.195,1.492-5.224C14.24,4,13.916,2,11.916,2 M12.811,4.379l-1.457,4.792
	c-0.121,0.471-0.619,0.856-1.105,0.856h-7.61c-0.486,0-0.784-0.386-0.663-0.856l0.962-4.792c0.121-0.471,0.619-0.856,1.104-0.856
	h8.107C12.635,3.522,12.932,3.908,12.811,4.379"/>
</svg>
