<?xml version="1.0" encoding="utf-8"?>
<!-- Generator: Adobe Illustrator 15.0.0, SVG Export Plug-In  -->
<!DOCTYPE svg PUBLIC "-//W3C//DTD SVG 1.1//EN" "http://www.w3.org/Graphics/SVG/1.1/DTD/svg11.dtd" [
	<!ENTITY ns_flows "http://ns.adobe.com/Flows/1.0/">
]>
<svg version="1.1"
	 xmlns="http://www.w3.org/2000/svg" xmlns:xlink="http://www.w3.org/1999/xlink" xmlns:a="http://ns.adobe.com/AdobeSVGViewerExtensions/3.0/"
	 x="0px" y="0px" width="16px" height="16px" viewBox="8 517.97 16 16" enable-background="new 8 517.97 16 16"
	 xml:space="preserve">
<defs>
</defs>
<rect display="none" fill="#66A19F" width="87" height="2381.97"/>
<path fill-rule="evenodd" clip-rule="evenodd" d="M11,529.97h10v1c0,0.553-0.447,1-1,1h-8c-0.553,0-1-0.447-1-1 M11,519.97
	c0-0.552,0.447-1,1-1h8c0.553,0,1,0.448,1,1v1H11V519.97z M11,525.97h10v3H11V525.97z M11,521.97h10v3H11V521.97z M20,523.47
	c0,0.553-0.447,1-1,1s-1-0.447-1-1c0-0.553,0.447-1,1-1S20,522.918,20,523.47z M20,527.469c0,0.554-0.447,1.001-1,1.001
	s-1-0.447-1-1.001c0-0.554,0.447-0.999,1-0.999S20,526.916,20,527.469z"/>
<rect x="8" y="517.97" display="none" opacity="0.2" fill="#E94E47" width="16" height="16"/>
</svg>
