<?xml version="1.0" encoding="utf-8"?>
<!-- Generator: Adobe Illustrator 15.0.0, SVG Export Plug-In  -->
<!DOCTYPE svg PUBLIC "-//W3C//DTD SVG 1.1//EN" "http://www.w3.org/Graphics/SVG/1.1/DTD/svg11.dtd" [
	<!ENTITY ns_flows "http://ns.adobe.com/Flows/1.0/">
]>
<svg version="1.1"
	 xmlns="http://www.w3.org/2000/svg" xmlns:xlink="http://www.w3.org/1999/xlink" xmlns:a="http://ns.adobe.com/AdobeSVGViewerExtensions/3.0/"
	 x="0px" y="0px" width="16px" height="16px" viewBox="8 549.97 16 16" enable-background="new 8 549.97 16 16"
	 xml:space="preserve">
<defs>
</defs>
<rect display="none" fill="#66A19F" width="87" height="2381.97"/>
<path d="M22.827,562.714c0.021-0.081,0.094-0.136,0.176-0.136H24v-1.214h-0.997c-0.082,0-0.155-0.055-0.176-0.135
	c-0.067-0.258-0.169-0.506-0.303-0.734c-0.041-0.069-0.03-0.159,0.027-0.218l0.705-0.707l-0.857-0.855l-0.705,0.704
	c-0.059,0.059-0.149,0.068-0.219,0.027c-0.229-0.133-0.477-0.234-0.733-0.302c-0.08-0.02-0.136-0.094-0.136-0.175v-0.998h-1.213
	v0.998c0,0.082-0.055,0.156-0.136,0.175c-0.258,0.067-0.503,0.169-0.734,0.302c-0.07,0.041-0.16,0.031-0.218-0.027l-0.705-0.704
	l-0.857,0.855l0.705,0.707c0.059,0.059,0.071,0.149,0.028,0.218c-0.134,0.229-0.234,0.476-0.304,0.734
	c-0.021,0.08-0.093,0.135-0.177,0.135H16v1.214h0.996c0.084,0,0.155,0.055,0.177,0.136c0.069,0.257,0.17,0.503,0.304,0.734
	c0.043,0.069,0.03,0.159-0.028,0.219l-0.705,0.704l0.857,0.858l0.705-0.705c0.058-0.059,0.147-0.069,0.218-0.028
	c0.231,0.134,0.477,0.235,0.734,0.303c0.081,0.021,0.136,0.094,0.136,0.176v0.997h1.213v-0.997c0-0.082,0.056-0.155,0.136-0.176
	c0.257-0.067,0.504-0.169,0.733-0.303c0.069-0.041,0.16-0.03,0.219,0.028l0.705,0.705l0.857-0.858l-0.705-0.704
	c-0.058-0.06-0.068-0.149-0.027-0.219C22.658,563.216,22.76,562.97,22.827,562.714z M19.999,563.721
	c-0.964,0-1.748-0.784-1.748-1.75c0-0.967,0.783-1.75,1.748-1.75c0.968,0,1.752,0.784,1.752,1.75
	C21.75,562.937,20.967,563.721,19.999,563.721z"/>
<path d="M21,551.97c0-0.552-0.447-1-1-1h-8c-0.553,0-1,0.448-1,1v1h10V551.97z"/>
<path d="M21,553.97H11v3h9h1V553.97z M19,556.47c-0.553,0-1-0.447-1-1c0-0.553,0.447-1,1-1s1,0.447,1,1
	C20,556.023,19.553,556.47,19,556.47z"/>
<path d="M17.027,557.97H11v3h4.101C15.35,559.743,16.059,558.692,17.027,557.97z"/>
<path d="M11,561.97v1c0,0.553,0.447,1,1,1h3.422c-0.268-0.613-0.422-1.288-0.422-2H11z"/>
<rect x="8" y="549.97" display="none" opacity="0.2" fill="#E94E47" width="16" height="16"/>
</svg>
