<?xml version="1.0" encoding="utf-8"?>
<!-- Generator: Adobe Illustrator 15.0.0, SVG Export Plug-In  -->
<!DOCTYPE svg PUBLIC "-//W3C//DTD SVG 1.1//EN" "http://www.w3.org/Graphics/SVG/1.1/DTD/svg11.dtd" [
	<!ENTITY ns_flows "http://ns.adobe.com/Flows/1.0/">
]>
<svg version="1.1"
	 xmlns="http://www.w3.org/2000/svg" xmlns:xlink="http://www.w3.org/1999/xlink" xmlns:a="http://ns.adobe.com/AdobeSVGViewerExtensions/3.0/"
	 x="0px" y="0px" width="16px" height="16px" viewBox="13 1445.971 16 16" enable-background="new 13 1445.971 16 16"
	 xml:space="preserve">
<defs>
</defs>
<rect display="none" fill="#66A19F" width="87" height="3280.97"/>
<path d="M18,1459.97h-4c-0.552,0-1-0.448-1-1v-3c0-0.552,0.448-1,1-1s1,0.448,1,1v2h3c0.552,0,1,0.448,1,1
	S18.552,1459.97,18,1459.97z"/>
<path d="M28,1447.97h-4c-0.552,0-1,0.448-1,1s0.448,1,1,1h3v2c0,0.552,0.448,1,1,1s1-0.448,1-1v-3
	C29,1448.418,28.552,1447.97,28,1447.97z"/>
<path d="M24,1459.97h4c0.552,0,1-0.448,1-1v-3c0-0.552-0.448-1-1-1s-1,0.448-1,1v2h-3c-0.552,0-1,0.448-1,1
	S23.448,1459.97,24,1459.97z"/>
<path d="M14,1447.97h4c0.552,0,1,0.448,1,1s-0.448,1-1,1h-3v2c0,0.552-0.448,1-1,1s-1-0.448-1-1v-3
	C13,1448.418,13.448,1447.97,14,1447.97z"/>
<rect x="13" y="1445.97" display="none" opacity="0.2" fill="#E94E47" width="16" height="16"/>
</svg>
