<?xml version="1.0" encoding="utf-8"?>
<!-- Generator: Adobe Illustrator 15.0.0, SVG Export Plug-In  -->
<!DOCTYPE svg PUBLIC "-//W3C//DTD SVG 1.1//EN" "http://www.w3.org/Graphics/SVG/1.1/DTD/svg11.dtd" [
	<!ENTITY ns_flows "http://ns.adobe.com/Flows/1.0/">
]>
<svg version="1.1"
	 xmlns="http://www.w3.org/2000/svg" xmlns:xlink="http://www.w3.org/1999/xlink" xmlns:a="http://ns.adobe.com/AdobeSVGViewerExtensions/3.0/"
	 x="0px" y="0px" width="16px" height="16px" viewBox="8 325.97 16 16" enable-background="new 8 325.97 16 16"
	 xml:space="preserve">
<defs>
</defs>
<rect display="none" fill="#66A19F" width="87" height="2381.97"/>
<path d="M13.28,328.25c0.215-0.214,0.278-0.537,0.163-0.817c-0.116-0.281-0.39-0.463-0.693-0.463h-3c-0.414,0-0.75,0.336-0.75,0.75
	v3c0,0.303,0.183,0.577,0.463,0.693c0.093,0.039,0.19,0.057,0.287,0.057c0.195,0,0.387-0.076,0.53-0.22l0.97-0.97l2.806,2.806
	l1.061-1.061l-2.806-2.806L13.28,328.25z"/>
<path d="M22.25,326.97h-3c-0.304,0-0.577,0.182-0.693,0.463c-0.115,0.28-0.052,0.603,0.163,0.817l0.97,0.97l-2.806,2.806
	l1.061,1.061l2.806-2.806l0.969,0.97c0.144,0.144,0.335,0.22,0.531,0.22c0.097,0,0.194-0.019,0.287-0.057
	c0.28-0.116,0.463-0.39,0.463-0.693v-3C23,327.306,22.664,326.97,22.25,326.97z"/>
<path d="M14.056,334.854l-2.806,2.806l-0.97-0.97c-0.215-0.214-0.537-0.278-0.817-0.163C9.183,336.643,9,336.917,9,337.22v3
	c0,0.414,0.336,0.75,0.75,0.75h3c0.303,0,0.577-0.183,0.693-0.463c0.115-0.28,0.052-0.603-0.163-0.817l-0.97-0.97l2.806-2.806
	L14.056,334.854z"/>
<path d="M22.827,338.713c0.021-0.081,0.094-0.136,0.176-0.136H24v-1.214h-0.997c-0.082,0-0.155-0.055-0.176-0.135
	c-0.068-0.258-0.169-0.506-0.303-0.734c-0.041-0.069-0.03-0.159,0.027-0.218l0.705-0.707l-0.857-0.855l-0.705,0.704
	c-0.059,0.059-0.149,0.068-0.219,0.027c-0.229-0.133-0.477-0.234-0.733-0.302c-0.08-0.02-0.136-0.094-0.136-0.175v-0.998h-1.213
	v0.998c0,0.082-0.055,0.156-0.136,0.175c-0.258,0.067-0.503,0.169-0.734,0.302c-0.07,0.041-0.16,0.031-0.218-0.027l-0.705-0.704
	l-0.857,0.855l0.705,0.707c0.059,0.059,0.071,0.149,0.028,0.218c-0.134,0.229-0.234,0.477-0.304,0.734
	c-0.021,0.08-0.093,0.135-0.177,0.135H16v1.214h0.996c0.084,0,0.155,0.055,0.177,0.136c0.069,0.257,0.17,0.503,0.304,0.733
	c0.043,0.069,0.03,0.159-0.028,0.219l-0.705,0.704l0.857,0.858l0.705-0.705c0.058-0.059,0.147-0.069,0.218-0.028
	c0.231,0.134,0.477,0.235,0.734,0.303c0.081,0.021,0.136,0.094,0.136,0.176v0.997h1.213v-0.997c0-0.082,0.056-0.155,0.136-0.176
	c0.257-0.067,0.504-0.169,0.733-0.303c0.069-0.041,0.16-0.03,0.219,0.028l0.705,0.705l0.857-0.858l-0.705-0.704
	c-0.058-0.06-0.068-0.149-0.027-0.219C22.658,339.216,22.76,338.97,22.827,338.713z M19.999,339.721
	c-0.964,0-1.748-0.784-1.748-1.75c0-0.967,0.784-1.75,1.748-1.75c0.968,0,1.752,0.784,1.752,1.75
	C21.75,338.937,20.967,339.721,19.999,339.721z"/>
<rect x="8" y="325.97" display="none" opacity="0.2" fill="#E94E47" width="16" height="16"/>
</svg>
