<?xml version="1.0" encoding="utf-8"?>
<!-- Generator: Adobe Illustrator 15.0.0, SVG Export Plug-In  -->
<!DOCTYPE svg PUBLIC "-//W3C//DTD SVG 1.1//EN" "http://www.w3.org/Graphics/SVG/1.1/DTD/svg11.dtd" [
	<!ENTITY ns_flows "http://ns.adobe.com/Flows/1.0/">
]>
<svg version="1.1"
	 xmlns="http://www.w3.org/2000/svg" xmlns:xlink="http://www.w3.org/1999/xlink" xmlns:a="http://ns.adobe.com/AdobeSVGViewerExtensions/3.0/"
	 x="0px" y="0px" width="16px" height="16px" viewBox="13 2245.971 16 16" enable-background="new 13 2245.971 16 16"
	 xml:space="preserve">
<defs>
</defs>
<rect display="none" fill="#66A19F" width="87" height="3280.97"/>
<g>
	<path d="M18,2249.97c0,0.55-0.45,1-1,1h-2c-0.55,0-1-0.45-1-1v-2c0-0.55,0.45-1,1-1h2c0.55,0,1,0.45,1,1V2249.97z"/>
</g>
<g>
	<path d="M23,2249.97c0,0.55-0.45,1-1,1h-2c-0.55,0-1-0.45-1-1v-2c0-0.55,0.45-1,1-1h2c0.55,0,1,0.45,1,1V2249.97z"/>
</g>
<g>
	<path d="M28,2249.97c0,0.55-0.45,1-1,1h-2c-0.55,0-1-0.45-1-1v-2c0-0.55,0.45-1,1-1h2c0.55,0,1,0.45,1,1V2249.97z"/>
</g>
<g>
	<path d="M18,2254.97c0,0.55-0.45,1-1,1h-2c-0.55,0-1-0.45-1-1v-2c0-0.55,0.45-1,1-1h2c0.55,0,1,0.45,1,1V2254.97z"/>
</g>
<g>
	<path d="M23,2254.97c0,0.55-0.45,1-1,1h-2c-0.55,0-1-0.45-1-1v-2c0-0.55,0.45-1,1-1h2c0.55,0,1,0.45,1,1V2254.97z"/>
</g>
<g>
	<path d="M28,2254.97c0,0.55-0.45,1-1,1h-2c-0.55,0-1-0.45-1-1v-2c0-0.55,0.45-1,1-1h2c0.55,0,1,0.45,1,1V2254.97z"/>
</g>
<g>
	<path d="M18,2259.97c0,0.55-0.45,1-1,1h-2c-0.55,0-1-0.45-1-1v-2c0-0.55,0.45-1,1-1h2c0.55,0,1,0.45,1,1V2259.97z"/>
</g>
<g>
	<path d="M23,2259.97c0,0.55-0.45,1-1,1h-2c-0.55,0-1-0.45-1-1v-2c0-0.55,0.45-1,1-1h2c0.55,0,1,0.45,1,1V2259.97z"/>
</g>
<rect x="13" y="2245.97" display="none" opacity="0.2" fill="#E94E47" width="16" height="16"/>
</svg>
