<?xml version="1.0" encoding="utf-8"?>
<!-- Generator: Adobe Illustrator 15.0.0, SVG Export Plug-In  -->
<!DOCTYPE svg PUBLIC "-//W3C//DTD SVG 1.1//EN" "http://www.w3.org/Graphics/SVG/1.1/DTD/svg11.dtd" [
	<!ENTITY ns_flows "http://ns.adobe.com/Flows/1.0/">
]>
<svg version="1.1"
	 xmlns="http://www.w3.org/2000/svg" xmlns:xlink="http://www.w3.org/1999/xlink" xmlns:a="http://ns.adobe.com/AdobeSVGViewerExtensions/3.0/"
	 x="0px" y="0px" width="16px" height="16px" viewBox="13 837.971 16 16" enable-background="new 13 837.971 16 16"
	 xml:space="preserve">
<defs>
</defs>
<rect display="none" fill="#66A19F" width="87" height="3280.97"/>
<rect x="18" y="839.971" fill="#FFFFFF" width="6" height="12"/>
<path d="M21,837.971c-4.417,0-8,3.582-8,8c0,4.419,3.583,8,8,8c4.419,0,8-3.581,8-8C29,841.554,25.419,837.971,21,837.971z
	 M20.98,851.776c-0.884,0-1.598-0.715-1.598-1.598s0.714-1.598,1.598-1.598s1.598,0.715,1.598,1.598S21.864,851.776,20.98,851.776z
	 M22.685,845.67c-0.476,0.492-0.704,0.753-0.704,1.305c0,0.553-0.447,1-1,1s-1-0.447-1-1c0-1.385,0.732-2.142,1.267-2.695
	c0.483-0.5,0.716-0.766,0.716-1.34c0-0.931,0-0.968-0.982-0.968c-0.98,0-0.98,0.019-0.98,0.995c0,0.552-0.447,1-1,1s-1-0.448-1-1
	c0-0.972,0-2.995,2.98-2.995c2.982,0,2.982,2.08,2.982,2.968C23.963,844.347,23.225,845.112,22.685,845.67z"/>
<rect x="13" y="837.97" display="none" opacity="0.2" fill="#E94E47" width="16" height="16"/>
</svg>
