<svg id="Layer_1" data-name="Layer 1" xmlns="http://www.w3.org/2000/svg" viewBox="0 0 15 15"><defs><style>.cls-1{fill:#fff;}</style></defs><title>ebIcon_help_white</title><path class="cls-1" d="M8,.5A7.5,7.5,0,1,0,15.5,8,7.5,7.5,0,0,0,8,.5M8,13.3A1.3,1.3,0,1,1,9.3,12,1.3,1.3,0,0,1,8,13.3M9.43,7.57C9,8,8.84,8.2,8.84,8.66a.84.84,0,0,1-1.68,0A3,3,0,0,1,8.22,6.4c.4-.42.6-.64.6-1.12,0-.78,0-.81-.82-.81s-.82,0-.82.83a.84.84,0,0,1-1.68,0c0-.81,0-2.51,2.5-2.51s2.5,1.74,2.5,2.49A3.07,3.07,0,0,1,9.43,7.57" transform="translate(-0.5 -0.5)"/></svg>