<svg id="Layer_1" data-name="Layer 1" xmlns="http://www.w3.org/2000/svg" viewBox="0 0 14 14"><defs><style>.cls-1{fill:#fff;}</style></defs><title>ebIcon_import</title><path class="cls-1" d="M13,15H3a2,2,0,0,1-2-2V9A1,1,0,0,1,3,9v4H13V9a1,1,0,0,1,2,0v4A2,2,0,0,1,13,15Z" transform="translate(-1 -1)"/><path class="cls-1" d="M7.23,10A1.54,1.54,0,0,1,6,8.76V5.33a.94.94,0,0,1,.57-.86.87.87,0,0,1,.35-.07.91.91,0,0,1,.65.27l1,1L13.25,1,15,2.76,10.31,7.42l1,1a.94.94,0,0,1,.2,1,.92.92,0,0,1-.86.58H6.93" transform="translate(-1 -1)"/></svg>