<?xml version="1.0" encoding="utf-8"?>
<!-- Generator: Adobe Illustrator 16.0.2, SVG Export Plug-In . SVG Version: 6.00 Build 0)  -->
<!DOCTYPE svg PUBLIC "-//W3C//DTD SVG 1.1//EN" "http://www.w3.org/Graphics/SVG/1.1/DTD/svg11.dtd">
<svg version="1.1" id="Layer_1" xmlns="http://www.w3.org/2000/svg" xmlns:xlink="http://www.w3.org/1999/xlink" x="0px" y="0px"
	 width="16px" height="16px" viewBox="0 0 16 16" enable-background="new 0 0 16 16" xml:space="preserve">
<path d="M22.923-8.587c-3.123,3.124-3.123,8.19,0,11.313c3.124,3.125,8.191,3.125,11.313,0c3.125-3.123,3.125-8.189,0-11.313
	C31.114-11.711,26.047-11.711,22.923-8.587 M32.581-3.931c0.553,0,1,0.447,1,1c0,0.276-0.11,0.526-0.293,0.707
	c-0.183,0.181-0.433,0.292-0.707,0.292l-3.002,0.001V1.07c0.002,0.275-0.108,0.525-0.291,0.705
	c-0.183,0.182-0.433,0.293-0.708,0.293c-0.553,0-0.999-0.447-1-1v-2.999h-2.999c-0.554-0.001-1-0.448-1-1c0-0.552,0.446-1,1-1h2.999
	v-3c0-0.553,0.447-1,1-1c0.554,0,1.001,0.447,1.001,1L29.579-3.93L32.581-3.931z"/>
<path fill="#B1B3B4" d="M35.438,17.073H21.725c-0.633,0-1.144,0.516-1.144,0.878v7.625c0,0.029,0.022,0.057,0.028,0.084
	c0.304,4.143,3.75,7.413,7.972,7.413c4.221,0,7.668-3.271,7.971-7.413c0.007-0.029,0.029-0.055,0.029-0.086v-7.646
	C36.581,17.564,36.066,17.073,35.438,17.073z"/>
<g>
	<g>
		<ellipse fill="#B1B3B4" cx="40.287" cy="5.099" rx="3.705" ry="3.87"/>
	</g>
	<rect x="46.186" y="-2.93" fill="#B1B3B4" width="5.844" height="6.104"/>
	<path fill="#B1B3B4" d="M52.029,3.682h-5.846c-0.269,0-0.484-0.227-0.484-0.51V-2.93c0-0.281,0.217-0.508,0.484-0.508h5.846
		c0.271,0,0.488,0.227,0.488,0.508v6.104C52.518,3.455,52.3,3.682,52.029,3.682z M46.673,2.664h4.87v-5.085h-4.87V2.664z"/>
	<path fill="#B1B3B4" d="M52.089,5.375h-5.899c-0.271,0-0.489,0.231-0.489,0.393v3.425c0,0.014,0.009,0.025,0.012,0.039
		c0.131,1.861,1.613,3.33,3.431,3.33c1.813,0,3.297-1.469,3.428-3.33c0.002-0.016,0.013-0.025,0.013-0.039V5.758
		C52.581,5.594,52.359,5.375,52.089,5.375z"/>
</g>
<g>
	<g>
		<path d="M37.771-18.239c0,0.825-0.676,1.5-1.5,1.5h-13c-0.826,0-1.5-0.675-1.5-1.5v-13c0-0.825,0.674-1.5,1.5-1.5h13
			c0.824,0,1.5,0.675,1.5,1.5V-18.239z"/>
	</g>
	<g>
		
			<circle fill="none" stroke="#FFFFFF" stroke-width="0.75" stroke-linecap="round" stroke-miterlimit="10" stroke-dasharray="2.5714,2.5714" cx="29.771" cy="-24.739" r="6.67"/>
	</g>
	<circle fill="#FFFFFF" stroke="#FFFFFF" stroke-linecap="round" stroke-miterlimit="10" cx="29.771" cy="-24.739" r="2.325"/>
</g>
<g>
	<g>
		<path d="M68.582-18.894c0,0.825-0.676,1.5-1.5,1.5h-13c-0.826,0-1.5-0.675-1.5-1.5v-13c0-0.825,0.674-1.5,1.5-1.5h13
			c0.824,0,1.5,0.675,1.5,1.5V-18.894z"/>
	</g>
	<g>
		<g>
			<path fill="#FFFFFF" d="M57.553-21.375c-0.182,0.184-0.479,0.184-0.662,0l-0.33-0.33c-0.184-0.183-0.184-0.48,0-0.663
				l7.049-7.046c0.185-0.183,0.482-0.183,0.662-0.002l0.332,0.332c0.183,0.183,0.183,0.479,0,0.662L57.553-21.375z"/>
		</g>
		<g>
			<path fill="#FFFFFF" d="M64.604-22.366c0.185,0.182,0.185,0.48,0,0.663l-0.332,0.33c-0.184,0.182-0.479,0.182-0.662,0
				l-7.049-7.049c-0.184-0.183-0.184-0.481,0-0.662l0.332-0.332c0.183-0.181,0.479-0.181,0.66,0L64.604-22.366z"/>
		</g>
	</g>
	<g>
		
			<circle fill="none" stroke="#FFFFFF" stroke-width="0.75" stroke-linecap="round" stroke-miterlimit="10" cx="60.582" cy="-25.394" r="7.16"/>
	</g>
</g>
<g>
	<g>
		<path fill="#FFFFFF" d="M68.582,27.463c-3.805,0-6.9-3.096-6.9-6.9c0-3.804,3.096-6.899,6.9-6.899s6.9,3.096,6.9,6.899
			C75.482,24.367,72.387,27.463,68.582,27.463z"/>
		<path d="M68.582,14.764c3.197,0,5.8,2.602,5.8,5.799c0,3.198-2.603,5.801-5.8,5.801c-3.198,0-5.8-2.603-5.8-5.801
			C62.782,17.365,65.384,14.764,68.582,14.764 M68.582,12.563c-4.418,0-8,3.582-8,8c0,4.42,3.582,8,8,8c4.419,0,8-3.58,8-8
			C76.582,16.145,73.001,12.563,68.582,12.563L68.582,12.563z"/>
	</g>
	<g>
		
			<line fill="none" stroke="#000000" stroke-width="2.2" stroke-linecap="round" stroke-miterlimit="10" x1="72.02" y1="20.563" x2="65.146" y2="20.563"/>
	</g>
</g>
<g>
	<g>
		<path d="M-2.615-17.571c0,0.275-0.225,0.5-0.5,0.5H-7.5c-0.275,0-0.5-0.225-0.5-0.5v-14.243c0-0.275,0.225-0.5,0.5-0.5h4.385
			c0.275,0,0.5,0.225,0.5,0.5V-17.571z"/>
	</g>
	<path d="M1.615-32.739"/>
	<g>
		<path d="M0.09-31.896c0-0.413,0.238-0.511,0.529-0.218l6.852,6.89c0.291,0.292,0.291,0.771,0,1.063l-6.852,6.89
			c-0.291,0.293-0.529,0.194-0.529-0.218V-31.896z"/>
	</g>
</g>
<g>
	<circle fill="#31BADD" cx="8" cy="8" r="8"/>
	<path fill="#FFFFFF" d="M8.977,4.199c-0.27,0.25-0.595,0.375-0.975,0.375c-0.377,0-0.703-0.125-0.976-0.375
		c-0.271-0.25-0.405-0.554-0.405-0.908c0-0.354,0.137-0.66,0.405-0.912C7.298,2.127,7.625,2,8.002,2
		c0.379,0,0.703,0.127,0.975,0.379c0.27,0.252,0.402,0.559,0.402,0.912C9.379,3.646,9.244,3.949,8.977,4.199z"/>
	<path fill="#FFFFFF" d="M9.162,6.145C9.068,6.061,8.938,6.014,8.82,5.954C8.555,5.827,8.258,5.738,7.873,5.738
		c-0.309,0-0.635,0.057-0.981,0.166C6.837,5.924,6.774,5.95,6.72,5.967C6.656,6.109,6.617,6.268,6.617,6.434
		c0,0.109,0.034,0.213,0.063,0.313c0.205,0.018,0.367,0.057,0.453,0.139C7.237,6.987,7.295,7.17,7.295,7.432
		c0,0.015-0.006,0.031-0.006,0.046C7.286,7.612,7.273,7.754,7.241,7.914C7.206,8.088,7.163,8.274,7.11,8.473l-0.58,2.048
		c-0.051,0.215-0.088,0.407-0.11,0.577c-0.022,0.173-0.035,0.339-0.035,0.503c0,0.422,0.155,0.769,0.467,1.04
		c0.182,0.16,0.416,0.259,0.682,0.326c0.189,0.047,0.393,0.086,0.626,0.086c0.224,0,0.426-0.024,0.615-0.061
		c0.32-0.201,0.547-0.543,0.553-0.947c-0.189-0.02-0.346-0.057-0.438-0.129c-0.121-0.1-0.18-0.283-0.18-0.555
		c0-0.078,0.012-0.189,0.029-0.318c0.008-0.053,0.014-0.1,0.023-0.158c0.035-0.211,0.078-0.397,0.125-0.563l0.58-2.042
		c0.057-0.188,0.096-0.394,0.117-0.616c0.02-0.226,0.029-0.382,0.029-0.472C9.619,6.764,9.463,6.412,9.162,6.145z"/>
</g>
<g>
	<g>
		<path d="M-14.438,37.936c-0.068,0.068-0.15,0.123-0.242,0.162c-0.281,0.115-0.603,0.052-0.818-0.162l-2.121-2.12
			c-0.293-0.293-0.293-0.769,0-1.062l2.121-2.121c0.215-0.216,0.537-0.279,0.818-0.164c0.279,0.117,0.463,0.391,0.463,0.693v4.242
			C-14.217,37.608-14.299,37.797-14.438,37.936z M-16.027,35.283l0.311,0.311v-0.621L-16.027,35.283z"/>
	</g>
	<g>
		<path d="M-16.735,34.533c-0.138,0-0.25,0.111-0.25,0.25v1c0,0.139,0.112,0.25,0.25,0.25h7.647c0.138,0,0.25-0.111,0.25-0.25v-1
			c0-0.139-0.112-0.25-0.25-0.25H-16.735z"/>
	</g>
	<g>
		<path d="M-8.058,42.814l-2.121,2.121c-0.215,0.215-0.537,0.277-0.816,0.162c-0.281-0.117-0.463-0.39-0.463-0.693l-0.002-4.242
			c0.002-0.303,0.184-0.576,0.463-0.693c0.281-0.115,0.604-0.051,0.818,0.162l2.121,2.123C-7.765,42.045-7.765,42.521-8.058,42.814z
			"/>
	</g>
	<g>
		<path d="M-16.838,42.783c0,0.139,0.112,0.25,0.25,0.25h7.647c0.138,0,0.25-0.111,0.25-0.25v-1c0-0.139-0.112-0.25-0.25-0.25
			h-7.647c-0.138,0-0.25,0.111-0.25,0.25V42.783z"/>
	</g>
</g>
<g>
	<g>
		<path fill="#FFFFFF" d="M-34.664,37.307c-0.068,0.067-0.15,0.123-0.242,0.161c-0.281,0.115-0.604,0.052-0.818-0.161l-2.121-2.121
			c-0.293-0.293-0.293-0.77,0-1.062l2.121-2.122c0.215-0.215,0.537-0.279,0.818-0.163c0.279,0.117,0.463,0.39,0.463,0.693v4.241
			C-34.443,36.979-34.525,37.167-34.664,37.307z M-36.254,34.652l0.311,0.312v-0.621L-36.254,34.652z"/>
	</g>
	<g>
		<path fill="#FFFFFF" d="M-36.961,33.902c-0.138,0-0.25,0.113-0.25,0.25v1c0,0.139,0.112,0.25,0.25,0.25h7.646
			c0.138,0,0.25-0.111,0.25-0.25v-1c0-0.137-0.112-0.25-0.25-0.25H-36.961z"/>
	</g>
	<g>
		<path fill="#FFFFFF" d="M-28.285,42.184l-2.121,2.121c-0.215,0.215-0.537,0.278-0.816,0.163c-0.281-0.116-0.463-0.39-0.463-0.692
			l-0.002-4.242c0.002-0.305,0.184-0.577,0.463-0.693c0.281-0.115,0.604-0.052,0.818,0.162l2.121,2.122
			C-27.992,41.415-27.992,41.891-28.285,42.184z"/>
	</g>
	<g>
		<path fill="#FFFFFF" d="M-37.064,42.152c0,0.139,0.112,0.25,0.25,0.25h7.646c0.138,0,0.25-0.111,0.25-0.25v-1
			c0-0.137-0.112-0.25-0.25-0.25h-7.646c-0.138,0-0.25,0.113-0.25,0.25V42.152z"/>
	</g>
</g>
<g>
	<path d="M-20.475-1.225c0,3.18-2.322,5.758-5.185,5.758c-2.742,0-4.986-2.362-5.174-5.353c-0.008-0.134-0.013-0.269-0.013-0.405
		c0-3.18,2.321-5.758,5.187-5.758C-22.797-6.983-20.475-4.405-20.475-1.225z"/>
	<polygon points="-19.254,6.813 -32.066,6.813 -30.847,-1.854 -20.475,-1.854 	"/>
	<ellipse cx="-25.661" cy="-6.569" rx="1.403" ry="1.311"/>
	<ellipse cx="-25.661" cy="6.813" rx="2.546" ry="1.309"/>
</g>
<g>
	<path d="M1.019-8.453c0,3.18-2.321,5.758-5.186,5.758c-2.741,0-4.985-2.362-5.173-5.353c-0.008-0.134-0.013-0.269-0.013-0.405
		c0-3.18,2.321-5.758,5.186-5.758S1.019-11.633,1.019-8.453z"/>
	<polygon points="2.239,-0.414 -10.573,-0.414 -9.353,-9.082 1.019,-9.082 	"/>
	<ellipse cx="-4.167" cy="-13.797" rx="1.403" ry="1.311"/>
	<ellipse cx="-4.167" cy="-0.414" rx="2.546" ry="1.309"/>
	<path fill="#FFFFFF" d="M-4.612-2.695c-0.213,0-0.419-0.085-0.57-0.236l-2.42-2.41c-0.315-0.314-0.315-0.823,0-1.137
		s0.825-0.313,1.141,0l1.796,1.789l3.468-4.146c0.285-0.341,0.794-0.387,1.137-0.102c0.342,0.283,0.388,0.79,0.103,1.131
		L-3.99-2.984c-0.146,0.173-0.356,0.278-0.583,0.288C-4.588-2.695-4.6-2.695-4.612-2.695z"/>
</g>
<g>
	<g>
		<path d="M-50.159-34.741c0,3.181-2.321,5.759-5.187,5.759c-2.741,0-4.985-2.362-5.173-5.354c-0.008-0.134-0.013-0.27-0.013-0.405
			c0-3.18,2.32-5.758,5.186-5.758S-50.159-37.92-50.159-34.741z"/>
		<polygon points="-48.938,-26.702 -61.75,-26.702 -60.53,-35.37 -50.159,-35.37 		"/>
		<ellipse cx="-55.344" cy="-40.085" rx="1.403" ry="1.311"/>
		<ellipse cx="-55.344" cy="-26.701" rx="2.547" ry="1.309"/>
	</g>
	
		<line fill="none" stroke="#FFFFFF" stroke-linecap="round" stroke-linejoin="bevel" stroke-miterlimit="24" x1="-58.942" y1="-34.858" x2="-57.468" y2="-29.716"/>
	
		<line fill="none" stroke="#FFFFFF" stroke-linecap="round" stroke-linejoin="bevel" stroke-miterlimit="24" x1="-55.344" y1="-35.673" x2="-55.344" y2="-29.924"/>
	
		<line fill="none" stroke="#FFFFFF" stroke-linecap="round" stroke-linejoin="bevel" stroke-miterlimit="24" x1="-51.7" y1="-34.858" x2="-53.172" y2="-29.716"/>
</g>
</svg>
