<?xml version="1.0" encoding="utf-8"?>
<!-- Generator: Adobe Illustrator 15.0.0, SVG Export Plug-In  -->
<!DOCTYPE svg PUBLIC "-//W3C//DTD SVG 1.1//EN" "http://www.w3.org/Graphics/SVG/1.1/DTD/svg11.dtd" [
	<!ENTITY ns_flows "http://ns.adobe.com/Flows/1.0/">
]>
<svg version="1.1"
	 xmlns="http://www.w3.org/2000/svg" xmlns:xlink="http://www.w3.org/1999/xlink" xmlns:a="http://ns.adobe.com/AdobeSVGViewerExtensions/3.0/"
	 x="0px" y="0px" width="16px" height="16px" viewBox="13 869.971 16 16" enable-background="new 13 869.971 16 16"
	 xml:space="preserve">
<defs>
</defs>
<rect display="none" fill="#66A19F" width="87" height="3280.97"/>
<circle cx="21" cy="877.97" r="8"/>
<path fill="#FFFFFF" d="M22.598,874.169c-0.271,0.25-0.596,0.375-0.975,0.375c-0.377,0-0.703-0.125-0.975-0.375
	c-0.27-0.25-0.406-0.553-0.406-0.908c0-0.355,0.137-0.66,0.406-0.912c0.271-0.252,0.598-0.379,0.975-0.379
	c0.379,0,0.703,0.127,0.975,0.379c0.268,0.252,0.402,0.557,0.402,0.912C23,873.617,22.865,873.919,22.598,874.169z"/>
<path fill="#FFFFFF" d="M21.631,876.113c-0.094-0.084-0.224-0.132-0.343-0.189c-0.263-0.127-0.563-0.214-0.946-0.214
	c-0.309,0-0.635,0.055-0.982,0.165c-0.055,0.018-0.117,0.044-0.172,0.063c-0.063,0.143-0.102,0.299-0.102,0.465
	c0,0.111,0.034,0.212,0.063,0.313c0.204,0.017,0.366,0.056,0.452,0.138c0.105,0.103,0.162,0.284,0.162,0.546
	c0,0.014-0.005,0.031-0.005,0.045c-0.003,0.135-0.016,0.278-0.048,0.437c-0.035,0.174-0.078,0.36-0.131,0.557L19,880.488
	c-0.051,0.215-0.088,0.407-0.111,0.578s-0.035,0.338-0.035,0.502c0,0.421,0.156,0.767,0.467,1.041
	c0.181,0.159,0.416,0.258,0.681,0.325c0.19,0.048,0.392,0.086,0.626,0.086c0.224,0,0.424-0.024,0.614-0.06
	c0.322-0.202,0.547-0.542,0.553-0.948c-0.188-0.019-0.345-0.055-0.435-0.129c-0.121-0.098-0.18-0.282-0.18-0.554
	c0-0.077,0.012-0.19,0.03-0.318c0.008-0.052,0.013-0.099,0.024-0.159c0.035-0.21,0.078-0.397,0.125-0.562l0.578-2.041
	c0.057-0.188,0.096-0.393,0.117-0.617c0.02-0.225,0.031-0.381,0.031-0.471C22.086,876.732,21.932,876.382,21.631,876.113z"/>
<rect x="13" y="869.97" display="none" opacity="0.2" fill="#E94E47" width="16" height="16"/>
</svg>
