<svg id="Layer_1" data-name="Layer 1" xmlns="http://www.w3.org/2000/svg" viewBox="0 0 16 16"><defs><style>.cls-1{fill:#fff;}</style></defs><title>ebIcon_info_white</title><path class="cls-1" d="M8,0a8,8,0,1,0,8,8A8,8,0,0,0,8,0ZM9.05,7.66a3.19,3.19,0,0,1-.12.62l-.58,2a5.12,5.12,0,0,0-.12.56c0,.06,0,.11,0,.16a2.44,2.44,0,0,0,0,.32.69.69,0,0,0,.18.55.86.86,0,0,0,.44.13,1.14,1.14,0,0,1-.55.95,3.31,3.31,0,0,1-.61.06A2.5,2.5,0,0,1,7,13a1.62,1.62,0,0,1-.68-.33,1.33,1.33,0,0,1-.47-1,3.85,3.85,0,0,1,0-.5q0-.26.11-.58l.58-2c.05-.2.1-.38.13-.56a2.43,2.43,0,0,0,0-.44s0,0,0,0a.75.75,0,0,0-.16-.55.78.78,0,0,0-.45-.14,1.15,1.15,0,0,1-.06-.31A1.14,1.14,0,0,1,6.19,6l.17-.06a3.26,3.26,0,0,1,1-.16A2.1,2.1,0,0,1,8.29,6a1.44,1.44,0,0,1,.34.19,1.34,1.34,0,0,1,.45,1C9.09,7.28,9.07,7.44,9.05,7.66ZM9.6,4.2a1.45,1.45,0,0,1-1.95,0,1.19,1.19,0,0,1-.41-.91,1.21,1.21,0,0,1,.41-.91,1.44,1.44,0,0,1,1.95,0,1.21,1.21,0,0,1,.4.91A1.2,1.2,0,0,1,9.6,4.2Z"/></svg>