<?xml version="1.0" encoding="utf-8"?>
<!-- Generator: Adobe Illustrator 15.0.0, SVG Export Plug-In  -->
<!DOCTYPE svg PUBLIC "-//W3C//DTD SVG 1.1//EN" "http://www.w3.org/Graphics/SVG/1.1/DTD/svg11.dtd" [
	<!ENTITY ns_flows "http://ns.adobe.com/Flows/1.0/">
]>
<svg version="1.1"
	 xmlns="http://www.w3.org/2000/svg" xmlns:xlink="http://www.w3.org/1999/xlink" xmlns:a="http://ns.adobe.com/AdobeSVGViewerExtensions/3.0/"
	 x="0px" y="0px" width="10px" height="10px" viewBox="0 0 10 10" enable-background="new 0 0 10 10" xml:space="preserve">
<defs>
</defs>
<path fill="#E32219" d="M8.571,0H1.429C0.643,0,0,0.643,0,1.432v7.136C0,9.355,0.643,10,1.429,10h7.142C9.357,10,10,9.355,10,8.568
	V1.432C10,0.643,9.357,0,8.571,0"/>
<path fill="#FFFFFF" d="M6,5.272C6,5.674,5.552,6,5,6l0,0C4.448,6,4,5.674,4,5.272V1.728C4,1.326,4.448,1,5,1l0,0
	c0.552,0,1,0.326,1,0.728V5.272z"/>
<circle fill="#FFFFFF" cx="5" cy="8" r="1"/>
</svg>
