<?xml version="1.0" encoding="utf-8"?>
<!-- Generator: Adobe Illustrator 15.0.0, SVG Export Plug-In  -->
<!DOCTYPE svg PUBLIC "-//W3C//DTD SVG 1.1//EN" "http://www.w3.org/Graphics/SVG/1.1/DTD/svg11.dtd" [
	<!ENTITY ns_flows "http://ns.adobe.com/Flows/1.0/">
]>
<svg version="1.1"
	 xmlns="http://www.w3.org/2000/svg" xmlns:xlink="http://www.w3.org/1999/xlink" xmlns:a="http://ns.adobe.com/AdobeSVGViewerExtensions/3.0/"
	 x="0px" y="0px" width="16px" height="16px" viewBox="13 2341.971 16 16" enable-background="new 13 2341.971 16 16"
	 xml:space="preserve">
<defs>
</defs>
<rect display="none" fill="#66A19F" width="87" height="3280.97"/>
<path d="M27,2351.575l-1.131-0.005c-0.846-7.941-11.943-6.916-11.943-0.183c0-2.85,8.116-5.693,8.929,0.17l-1.501-0.006
	c-0.555,0.002-1,0.448-1.002,1c0.002,0.279,0.115,0.533,0.303,0.713l2.793,2.83c0.395,0.391,1.023,0.391,1.414,0l2.846-2.813
	c0.18-0.18,0.293-0.432,0.293-0.707C27.998,2352.021,27.553,2351.575,27,2351.575z"/>
<rect x="13" y="2341.97" display="none" opacity="0.2" fill="#E94E47" width="16" height="16"/>
</svg>
