<svg id="Layer_1" data-name="Layer 1" xmlns="http://www.w3.org/2000/svg" viewBox="0 0 16 16"><defs><style>.cls-1{fill:#1d1d1b;}</style></defs><title>link_icon</title><g id="Layer_1-2" data-name="Layer 1"><path class="cls-1" d="M6.7,13.62l2.36-2.35a3.21,3.21,0,0,1-2.24-.47L5.28,12.32h0a1.27,1.27,0,0,1-1.65-.12,1.23,1.23,0,0,1,0-1.53h0L6.7,7.62a1.25,1.25,0,0,1,1.54,0A1,1,0,0,0,9.3,7.38a1,1,0,0,0,.24-1.06,2.82,2.82,0,0,0-4.25.12l-3,2.82a3.12,3.12,0,0,0,.12,4.35,3,3,0,0,0,4.25,0Z"/><path class="cls-1" d="M9.3,2.33,6.94,4.68a3.21,3.21,0,0,1,2.24.47l1.54-1.53h0a1.27,1.27,0,0,1,1.65.12,1.41,1.41,0,0,1,0,1.65h0L9.3,8.32a1.25,1.25,0,0,1-1.54,0,1,1,0,0,0-1.06.24,1.12,1.12,0,0,0-.35,1.18c2,2,4.37,0,4.37,0l3-2.94h0a3.12,3.12,0,0,0-.12-4.35A3,3,0,0,0,9.3,2.33Z"/></g></svg>