<?xml version="1.0" encoding="utf-8"?>
<!-- Generator: Adobe Illustrator 15.0.0, SVG Export Plug-In  -->
<!DOCTYPE svg PUBLIC "-//W3C//DTD SVG 1.1//EN" "http://www.w3.org/Graphics/SVG/1.1/DTD/svg11.dtd" [
	<!ENTITY ns_flows "http://ns.adobe.com/Flows/1.0/">
]>
<svg version="1.1"
	 xmlns="http://www.w3.org/2000/svg" xmlns:xlink="http://www.w3.org/1999/xlink" xmlns:a="http://ns.adobe.com/AdobeSVGViewerExtensions/3.0/"
	 x="0px" y="0px" width="16px" height="16px" viewBox="13 933.971 16 16" enable-background="new 13 933.971 16 16"
	 xml:space="preserve">
<defs>
</defs>
<rect display="none" fill="#66A19F" width="87" height="3280.97"/>
<path d="M24.5,941.041v-2.071c0-1.654-1.346-3-3-3h-1c-1.654,0-3,1.346-3,3v2.071c-0.861,0.223-1.5,0.998-1.5,1.929v3
	c0,1.104,0.896,2,2,2h6c1.104,0,2-0.896,2-2v-3C26,942.039,25.361,941.264,24.5,941.041z M20.266,937.165h1.469
	c0.811,0,1.469,0.594,1.469,1.322v2.483h-4.406v-2.483C18.797,937.758,19.456,937.165,20.266,937.165z"/>
<rect x="13" y="933.97" display="none" opacity="0.2" fill="#E94E47" width="16" height="16"/>
</svg>
