<svg id="Layer_1" data-name="Layer 1" xmlns="http://www.w3.org/2000/svg" viewBox="0 0 16 16"><defs><style>.cls-1{fill:#1d1d1b;}</style></defs><title>login</title><path class="cls-1" d="M14,2.71A8,8,0,1,0,2.69,13.93c1-3.05,9.68-3.41,10.68,0A8,8,0,0,0,14,2.71Zm-4,7v0a3.1,3.1,0,0,1-.44.38,2.89,2.89,0,0,1-.46.27L9,10.46a2.63,2.63,0,0,1-.37.13,2.53,2.53,0,0,1-.6.07,2.41,2.41,0,0,1-1-.2l-.17-.06a2.91,2.91,0,0,1-.46-.27,4,4,0,0,1-1.57-3.3C4.79,4.68,6.22,3,8,3s3.2,1.68,3.2,3.81A4.16,4.16,0,0,1,10.07,9.72Z"/><path class="cls-1" d="M8,1A7,7,0,1,1,1,8,7,7,0,0,1,8,1M8,0a8,8,0,1,0,8,8A8,8,0,0,0,8,0Z"/></svg>