<?xml version="1.0" encoding="utf-8"?>
<!-- Generator: Adobe Illustrator 15.0.0, SVG Export Plug-In  -->
<!DOCTYPE svg PUBLIC "-//W3C//DTD SVG 1.1//EN" "http://www.w3.org/Graphics/SVG/1.1/DTD/svg11.dtd" [
	<!ENTITY ns_flows "http://ns.adobe.com/Flows/1.0/">
]>
<svg version="1.1"
	 xmlns="http://www.w3.org/2000/svg" xmlns:xlink="http://www.w3.org/1999/xlink" xmlns:a="http://ns.adobe.com/AdobeSVGViewerExtensions/3.0/"
	 x="0px" y="0px" width="16px" height="16px" viewBox="13 741.971 16 16" enable-background="new 13 741.971 16 16"
	 xml:space="preserve">
<defs>
</defs>
<rect display="none" fill="#66A19F" width="87" height="3280.97"/>
<path d="M25.086,756.282h-9.463c-0.6,0-1.088-0.472-1.088-1.052v-10.52c0-0.58,0.488-1.052,1.088-1.052h9.457
	c0.561-0.002,2.666,1.311,2.666,1.311c0-1.654-1.346-3-3-3H16c-1.654,0-3,1.346-3,3v10c0,1.654,1.346,3,3,3h8.746
	c1.654,0,3-1.346,3-3C27.746,754.97,25.643,756.282,25.086,756.282z"/>
<polygon fill="#333333" points="25.746,749.798 25.746,750.142 25.918,749.97 "/>
<path d="M28.999,749.971c0,0.25-0.073,0.491-0.261,0.668l-4.324,4.055c-0.391,0.368-1.023,0.369-1.414,0
	c-0.391-0.369-0.391-0.967,0-1.336l2.616-2.442H19c-0.553,0-1-0.423-1-0.945c0-0.521,0.447-0.945,1-0.945h6.617L23,746.583
	c-0.391-0.369-0.391-0.967,0-1.336c0.195-0.185,0.451-0.277,0.707-0.277s0.512,0.092,0.707,0.277l4.324,4.056
	C28.926,749.48,28.999,749.72,28.999,749.971z"/>
<rect x="13" y="741.97" display="none" opacity="0.2" fill="#E94E47" width="16" height="16"/>
</svg>
