<?xml version="1.0" encoding="utf-8"?>
<!-- Generator: Adobe Illustrator 15.0.0, SVG Export Plug-In  -->
<!DOCTYPE svg PUBLIC "-//W3C//DTD SVG 1.1//EN" "http://www.w3.org/Graphics/SVG/1.1/DTD/svg11.dtd" [
	<!ENTITY ns_flows "http://ns.adobe.com/Flows/1.0/">
]>
<svg version="1.1"
	 xmlns="http://www.w3.org/2000/svg" xmlns:xlink="http://www.w3.org/1999/xlink" xmlns:a="http://ns.adobe.com/AdobeSVGViewerExtensions/3.0/"
	 x="0px" y="0px" width="16px" height="16px" viewBox="13 677.971 16 16" enable-background="new 13 677.971 16 16"
	 xml:space="preserve">
<defs>
</defs>
<rect display="none" fill="#66A19F" width="87" height="3280.97"/>
<path d="M21,686.297l6.271-5.193c-0.244-0.08-0.501-0.134-0.771-0.134c-1.152,0-9.848,0-11,0c-0.271,0-0.527,0.054-0.771,0.134
	L21,686.297z"/>
<path d="M28.779,689.489c0.14-0.312,0.221-0.655,0.221-1.019c0-0.975-0.004-5.039-0.004-5.039c-0.006-0.349-0.084-0.679-0.218-0.979
	l-4.249,3.519L28.779,689.489z"/>
<path d="M13.222,682.452c-0.134,0.3-0.212,0.63-0.218,0.979c0,0-0.004,4.064-0.004,5.039c0,0.363,0.082,0.707,0.221,1.019
	l4.249-3.519L13.222,682.452z"/>
<path d="M22.962,687.269l-1.324,1.097c-0.185,0.153-0.411,0.229-0.638,0.229s-0.453-0.076-0.638-0.229l-1.325-1.097l-4.308,3.567
	c0.244,0.08,0.5,0.134,0.771,0.134c1.381,0,9.705,0,11,0c0.271,0,0.526-0.054,0.771-0.134L22.962,687.269z"/>
<rect x="13" y="677.97" display="none" opacity="0.2" fill="#E94E47" width="16" height="16"/>
</svg>
