<?xml version="1.0" encoding="utf-8"?>
<!-- Generator: Adobe Illustrator 15.0.0, SVG Export Plug-In  -->
<!DOCTYPE svg PUBLIC "-//W3C//DTD SVG 1.1//EN" "http://www.w3.org/Graphics/SVG/1.1/DTD/svg11.dtd" [
	<!ENTITY ns_flows "http://ns.adobe.com/Flows/1.0/">
]>
<svg version="1.1"
	 xmlns="http://www.w3.org/2000/svg" xmlns:xlink="http://www.w3.org/1999/xlink" xmlns:a="http://ns.adobe.com/AdobeSVGViewerExtensions/3.0/"
	 x="0px" y="0px" width="16px" height="16px" viewBox="8 421.97 16 16" enable-background="new 8 421.97 16 16"
	 xml:space="preserve">
<defs>
</defs>
<rect display="none" fill="#66A19F" width="87" height="2381.97"/>
<circle cx="11.773" cy="434.177" r="1.437"/>
<path d="M17.404,435.364l-0.714-0.3c0.052-0.29,0.089-0.584,0.089-0.887c0-0.304-0.037-0.599-0.089-0.888l0.714-0.299
	c0.554-0.233,0.816-0.871,0.582-1.425c-0.232-0.554-0.868-0.816-1.424-0.584l-0.716,0.301c-0.329-0.462-0.731-0.864-1.194-1.191
	l0.301-0.718c0.233-0.554-0.028-1.192-0.582-1.424c-0.559-0.233-1.194,0.029-1.424,0.582l-0.305,0.727
	c-0.283-0.05-0.571-0.087-0.869-0.087c-0.307,0-0.604,0.037-0.895,0.09l-0.307-0.729c-0.157-0.376-0.506-0.6-0.885-0.643v4.105
	c0.543-0.523,1.271-0.852,2.086-0.852c1.676,0,3.035,1.359,3.035,3.036c0,0-0.076,1.354-0.656,1.966h3.877
	C17.955,435.807,17.746,435.506,17.404,435.364z"/>
<path d="M19.733,427.979c-1.614-0.614-2.424-2.418-1.812-4.031c0.145-0.378,0.37-0.696,0.628-0.978h-2.397
	c-0.041,0.086-0.094,0.164-0.128,0.255c-0.11,0.289-0.181,0.583-0.236,0.875l-0.825,0.028c-0.62,0.022-1.104,0.541-1.082,1.158
	c0.016,0.467,0.312,0.855,0.722,1.01c0.135,0.053,0.281,0.08,0.436,0.073l0.822-0.027c0.145,0.559,0.383,1.088,0.703,1.57
	l-0.567,0.595c-0.426,0.449-0.407,1.155,0.041,1.587c0.111,0.102,0.236,0.182,0.372,0.233c0.411,0.154,0.891,0.061,1.212-0.276
	l0.56-0.589c0.263,0.158,0.534,0.302,0.83,0.414c0.287,0.109,0.577,0.178,0.868,0.235l0.028,0.808
	c0.015,0.462,0.309,0.855,0.722,1.013c0.135,0.051,0.281,0.073,0.432,0.07c0.62-0.021,1.106-0.538,1.086-1.16l-0.025-0.799
	c0.458-0.119,0.57-0.097,0.879-0.271v-2.466C22.156,428.115,20.897,428.423,19.733,427.979z"/>
<path d="M20.316,426.442c0.765,0.291,1.619-0.093,1.909-0.857c0.291-0.765-0.095-1.617-0.855-1.909
	c-0.765-0.291-1.621,0.093-1.909,0.856C19.168,425.297,19.554,426.151,20.316,426.442z"/>
<g>
	<path d="M20,423.97c1.103,0,2,0.897,2,2v8c0,1.103-0.897,2-2,2h-8c-1.103,0-2-0.897-2-2v-8c0-1.103,0.897-2,2-2H20 M20,422.97h-8
		c-1.65,0-3,1.35-3,3v8c0,1.65,1.35,3,3,3h8c1.65,0,3-1.35,3-3v-8C23,424.32,21.65,422.97,20,422.97L20,422.97z"/>
</g>
<rect x="8" y="421.97" display="none" opacity="0.2" fill="#E94E47" width="16" height="16"/>
</svg>
