<?xml version="1.0" encoding="utf-8"?>
<!-- Generator: Adobe Illustrator 15.0.0, SVG Export Plug-In  -->
<!DOCTYPE svg PUBLIC "-//W3C//DTD SVG 1.1//EN" "http://www.w3.org/Graphics/SVG/1.1/DTD/svg11.dtd" [
	<!ENTITY ns_flows "http://ns.adobe.com/Flows/1.0/">
]>
<svg version="1.1"
	 xmlns="http://www.w3.org/2000/svg" xmlns:xlink="http://www.w3.org/1999/xlink" xmlns:a="http://ns.adobe.com/AdobeSVGViewerExtensions/3.0/"
	 x="0px" y="0px" width="16px" height="16px" viewBox="8 581.97 16 16" enable-background="new 8 581.97 16 16"
	 xml:space="preserve">
<defs>
</defs>
<rect display="none" fill="#66A19F" width="87" height="2381.97"/>
<line fill="none" stroke="#0066B3" stroke-width="2" stroke-linecap="round" stroke-linejoin="bevel" stroke-miterlimit="10" x1="10" y1="595.97" x2="11.5" y2="594.47"/>
<line fill="none" stroke="#0066B3" stroke-width="2" stroke-linecap="round" stroke-linejoin="bevel" stroke-miterlimit="10" x1="20.5" y1="585.47" x2="22" y2="583.97"/>
<path d="M19.652,590.569c0.053-0.333,0.062-0.67,0.025-1.004c-0.013-0.105,0.049-0.203,0.146-0.24l1.178-0.452l-0.55-1.434
	l-1.178,0.452c-0.097,0.037-0.208,0.006-0.269-0.08c-0.196-0.274-0.429-0.521-0.691-0.73c-0.08-0.063-0.108-0.174-0.066-0.27
	l0.512-1.155l-1.401-0.622l-0.513,1.152c-0.043,0.096-0.146,0.149-0.246,0.131c-0.331-0.053-0.669-0.061-1.003-0.024
	c-0.103,0.013-0.203-0.049-0.24-0.146l-0.453-1.178l-1.432,0.55l0.452,1.178c0.037,0.097,0.006,0.209-0.081,0.269
	c-0.274,0.196-0.518,0.428-0.731,0.69c-0.064,0.08-0.175,0.109-0.269,0.066l-1.152-0.512l-0.625,1.399l1.154,0.515
	c0.096,0.043,0.151,0.143,0.132,0.245c-0.055,0.331-0.061,0.669-0.026,1.005c0.012,0.104-0.048,0.201-0.147,0.24l-1.177,0.452
	l0.551,1.434l1.177-0.452c0.099-0.038,0.208-0.006,0.271,0.08c0.198,0.272,0.429,0.517,0.691,0.729
	c0.082,0.063,0.108,0.174,0.066,0.271l-0.513,1.152l1.402,0.625l0.513-1.153c0.042-0.096,0.143-0.149,0.245-0.132
	c0.334,0.053,0.67,0.062,1.005,0.024c0.105-0.013,0.203,0.049,0.24,0.146l0.453,1.178l1.432-0.55l-0.452-1.178
	c-0.037-0.097-0.005-0.209,0.081-0.269c0.273-0.196,0.519-0.428,0.729-0.69c0.063-0.08,0.176-0.108,0.271-0.066l1.153,0.513
	l0.624-1.403l-1.152-0.512C19.688,590.771,19.635,590.669,19.652,590.569z M16,591.97c-1.104,0-2-0.895-2-2c0-1.105,0.896-2,2-2
	s2,0.895,2,2C18,591.075,17.104,591.97,16,591.97z"/>
<rect x="8" y="581.97" display="none" opacity="0.2" fill="#E94E47" width="16" height="16"/>
</svg>
