<?xml version="1.0" encoding="utf-8"?>
<!-- Generator: Adobe Illustrator 15.0.2, SVG Export Plug-In  -->
<!DOCTYPE svg PUBLIC "-//W3C//DTD SVG 1.1//EN" "http://www.w3.org/Graphics/SVG/1.1/DTD/svg11.dtd" [
	<!ENTITY ns_flows "http://ns.adobe.com/Flows/1.0/">
]>
<svg version="1.1"
	 xmlns="http://www.w3.org/2000/svg" xmlns:xlink="http://www.w3.org/1999/xlink" xmlns:a="http://ns.adobe.com/AdobeSVGViewerExtensions/3.0/"
	 x="0px" y="0px" width="16px" height="16px" viewBox="0 -0.014 16 16" overflow="visible" enable-background="new 0 -0.014 16 16"
	 xml:space="preserve">
<defs>
</defs>
<path d="M9.73,3.688c0-0.967-0.783-1.75-1.75-1.75c-0.969,0-1.75,0.783-1.75,1.75s0.781,1.75,1.75,1.75
	C8.947,5.438,9.73,4.655,9.73,3.688"/>
<path d="M3.951,6.143c-0.158,0-0.311-0.09-0.384-0.243C3.302,5.346,3.168,4.751,3.168,4.137c0-0.948,0.331-1.871,0.933-2.601
	C4.251,1.355,4.52,1.33,4.7,1.479c0.182,0.149,0.207,0.417,0.058,0.599c-0.477,0.578-0.74,1.308-0.74,2.06
	c0,0.487,0.107,0.957,0.317,1.397c0.102,0.212,0.013,0.464-0.2,0.566C4.075,6.128,4.012,6.143,3.951,6.143"/>
<path d="M1.042,7.601c-0.158,0-0.312-0.089-0.384-0.243C0.222,6.443,0,5.465,0,4.448c0-1.564,0.547-3.09,1.54-4.294
	c0.149-0.181,0.419-0.205,0.599-0.057c0.182,0.15,0.207,0.417,0.058,0.598C1.328,1.747,0.85,3.081,0.85,4.448
	c0,0.889,0.194,1.744,0.576,2.544c0.102,0.212,0.012,0.465-0.2,0.566C1.166,7.587,1.104,7.601,1.042,7.601"/>
<path d="M12.01,6.143c0.158,0,0.311-0.09,0.383-0.243c0.266-0.554,0.398-1.148,0.398-1.763c0-0.948-0.33-1.871-0.932-2.601
	c-0.15-0.181-0.42-0.206-0.6-0.058c-0.182,0.149-0.207,0.417-0.057,0.599c0.477,0.578,0.738,1.308,0.738,2.06
	c0,0.487-0.105,0.957-0.316,1.397c-0.102,0.212-0.012,0.464,0.201,0.566C11.885,6.128,11.947,6.143,12.01,6.143"/>
<path d="M14.938,7.601c0.158,0,0.311-0.089,0.385-0.243c0.436-0.915,0.658-1.893,0.658-2.91c0-1.564-0.547-3.09-1.541-4.294
	c-0.15-0.181-0.418-0.205-0.598-0.057c-0.182,0.15-0.207,0.417-0.059,0.598c0.869,1.052,1.348,2.386,1.348,3.753
	c0,0.889-0.195,1.744-0.576,2.544c-0.102,0.212-0.014,0.465,0.199,0.566C14.814,7.587,14.877,7.601,14.938,7.601"/>
<path d="M7.414,15.375V4.517c0-0.313,0.254-0.567,0.566-0.567s0.566,0.254,0.566,0.567v10.857c0,0.314-0.254,0.568-0.566,0.568
	S7.414,15.689,7.414,15.375"/>
</svg>
