<?xml version="1.0" encoding="utf-8"?>
<!-- Generator: Adobe Illustrator 15.0.0, SVG Export Plug-In . SVG Version: 6.00 Build 0)  -->
<!DOCTYPE svg PUBLIC "-//W3C//DTD SVG 1.1//EN" "http://www.w3.org/Graphics/SVG/1.1/DTD/svg11.dtd">
<svg version="1.1" id="Layer_1" xmlns="http://www.w3.org/2000/svg" xmlns:xlink="http://www.w3.org/1999/xlink" x="0px" y="0px"
	 width="16px" height="16px" viewBox="0 0 16 16" enable-background="new 0 0 16 16" xml:space="preserve">
<path d="M5,7H1C0.448,7,0,6.552,0,6s0.448-1,1-1h3V2c0-0.552,0.448-1,1-1s1,0.448,1,1v4C6,6.552,5.552,7,5,7z"/>
<path d="M15,7h-4c-0.552,0-1-0.448-1-1V2c0-0.552,0.448-1,1-1s1,0.448,1,1v3h3c0.552,0,1,0.448,1,1S15.553,7,15,7z"/>
<path d="M5,7H1C0.448,7,0,6.552,0,6s0.448-1,1-1h3V2c0-0.552,0.448-1,1-1s1,0.448,1,1v4C6,6.552,5.552,7,5,7z"/>
<path d="M15,7h-4c-0.552,0-1-0.448-1-1V2c0-0.552,0.448-1,1-1s1,0.448,1,1v3h3c0.552,0,1,0.448,1,1S15.553,7,15,7z"/>
<path d="M11,14.999c-0.552,0-1-0.448-1-1v-4C10,9.447,10.448,9,11,9h4c0.552,0,1,0.447,1,0.999s-0.447,1-1,1h-3v3
	C12,14.551,11.553,14.999,11,14.999z"/>
<path d="M5,14.999c-0.552,0-1-0.448-1-1v-3H1c-0.552,0-1-0.448-1-1S0.448,9,1,9h4c0.552,0,1,0.447,1,0.999v4
	C6,14.552,5.553,14.999,5,14.999z"/>
<path d="M11,14.999c-0.552,0-1-0.448-1-1v-4C10,9.447,10.448,9,11,9h4c0.552,0,1,0.447,1,0.999s-0.447,1-1,1h-3v3
	C12,14.551,11.553,14.999,11,14.999z"/>
<path d="M5,14.999c-0.552,0-1-0.448-1-1v-3H1c-0.552,0-1-0.448-1-1S0.448,9,1,9h4c0.552,0,1,0.447,1,0.999v4
	C6,14.552,5.553,14.999,5,14.999z"/>
<rect display="none" opacity="0.2" fill="#E94E47" enable-background="new    " width="16" height="16"/>
</svg>
