<?xml version="1.0" encoding="utf-8"?>
<!-- Generator: Adobe Illustrator 15.0.2, SVG Export Plug-In  -->
<!DOCTYPE svg PUBLIC "-//W3C//DTD SVG 1.1//EN" "http://www.w3.org/Graphics/SVG/1.1/DTD/svg11.dtd" [
	<!ENTITY ns_flows "http://ns.adobe.com/Flows/1.0/">
]>
<svg version="1.1"
	 xmlns="http://www.w3.org/2000/svg" xmlns:xlink="http://www.w3.org/1999/xlink" xmlns:a="http://ns.adobe.com/AdobeSVGViewerExtensions/3.0/"
	 x="0px" y="0px" width="16px" height="16px" viewBox="-0.013 -4.497 16 16"
	 overflow="visible" enable-background="new -0.013 -4.497 16 16" xml:space="preserve">
<defs>
</defs>
<path d="M15.633,2.873c-0.104-0.059-0.226-0.094-0.354-0.095l-3.835-0.005c-0.201-0.937-0.779-1.79-1.676-2.304
	c-1.68-0.967-3.837-0.39-4.808,1.284C4.759,2.101,4.639,2.472,4.567,2.847V2.781L0.711,2.776c-0.392,0-0.71,0.316-0.711,0.707
	c0,0.263,0.143,0.491,0.355,0.613c0.104,0.06,0.225,0.095,0.353,0.095l3.859,0.006V4.154c0.185,0.969,0.76,1.857,1.682,2.389
	c1.681,0.967,3.837,0.391,4.806-1.284c0.198-0.341,0.33-0.702,0.4-1.07l3.82,0.006c0.393,0.001,0.711-0.316,0.711-0.707
	C15.988,3.224,15.845,2.995,15.633,2.873z M9.826,4.551C9.249,5.55,7.962,5.894,6.959,5.318C5.957,4.74,5.612,3.458,6.19,2.459
	C6.769,1.46,8.057,1.117,9.06,1.693C10.062,2.271,10.407,3.552,9.826,4.551z"/>
</svg>
