<svg id="Layer_1" data-name="Layer 1" xmlns="http://www.w3.org/2000/svg" viewBox="0 0 15 13.35"><defs><style>.cls-1{fill:#1d1d1b;}</style></defs><title>move</title><path class="cls-1" d="M12.49,2.12A2.17,2.17,0,0,0,11.88,2H11c0-1-1-2-3.11-2H3.09A2.72,2.72,0,0,0,0,3v7.32a1,1,0,0,0,1,1H7v-2H3c-.36,0-1,0-1-1L3,4.41a1.2,1.2,0,0,1,1-.88h8.07a.65.65,0,0,1,.66.86h0L11,6.35h2l1-1.56A2.23,2.23,0,0,0,12.49,2.12Z"/><path class="cls-1" d="M15,10.6c0,.14.08.65,0,.75L12.52,13.2a.54.54,0,0,1-.75,0,.51.51,0,0,1,0-.72h0l1.38-1.13H9a.5.5,0,1,1,0-1h4.17l-1.4-1.61a.51.51,0,0,1,0-.72h0a.54.54,0,0,1,.75,0L15,10c.1.1,0,.48,0,.62"/></svg>