<svg id="Layer_1" data-name="Layer 1" xmlns="http://www.w3.org/2000/svg" viewBox="0 0 13 16"><defs><style>.cls-1{fill:#fff;}</style></defs><title>ebIcon_multiSelect_white</title><path class="cls-1" d="M4.5,15h-2V13h2Zm0-3h-2a1,1,0,0,0-1,1v2a1,1,0,0,0,1,1h2a1,1,0,0,0,1-1V13a1,1,0,0,0-1-1" transform="translate(-1.5)"/><rect class="cls-1" x="5" y="2" width="8" height="1"/><rect class="cls-1" x="5" y="8" width="8" height="1"/><rect class="cls-1" x="5" y="14" width="8" height="1"/><path class="cls-1" d="M3.5,4a.6.6,0,0,1-.3-.08l-1.4-.8a.6.6,0,1,1,.6-1l.85.49L4.36.33A.6.6,0,1,1,5.44.87L4,3.67A.6.6,0,0,1,3.67,4L3.5,4" transform="translate(-1.5)"/><path class="cls-1" d="M3.5,10a.59.59,0,0,1-.3-.08l-1.4-.8a.6.6,0,0,1,.6-1l.85.49L4.36,6.33a.6.6,0,1,1,1.07.54L4,9.67a.6.6,0,0,1-.36.31L3.5,10" transform="translate(-1.5)"/></svg>