<svg id="Layer_1" data-name="Layer 1" xmlns="http://www.w3.org/2000/svg" viewBox="0 0 16 14"><defs><style>.cls-1{fill:#FFF;}</style></defs><path class="cls-1" d="M10.77,3.6,8.55,1.24a.75.75,0,0,0-1.11,0L5.23,3.6a.88.88,0,0,0-.17.91.83.83,0,0,0,.17.26A.75.75,0,0,0,5.78,5H7v7H9V5h1.22a.78.78,0,0,0,.72-.5A.85.85,0,0,0,10.77,3.6Z" transform="translate(0 -1)"/><path class="cls-1" d="M5.94,11.5a.78.78,0,0,0-.72-.5H4V5H2v6H.78a.77.77,0,0,0-.72.5.86.86,0,0,0,.17.9l2.22,2.35a.75.75,0,0,0,1.11,0l2.22-2.35A.87.87,0,0,0,5.94,11.5Z" transform="translate(0 -1)"/><path class="cls-1" d="M15.94,11.5a.78.78,0,0,0-.72-.5H14V5H12v6H10.78a.77.77,0,0,0-.72.5.86.86,0,0,0,.17.9l2.22,2.35a.75.75,0,0,0,1.11,0l2.22-2.35A.87.87,0,0,0,15.94,11.5Z" transform="translate(0 -1)"/></svg>
