<?xml version="1.0" encoding="utf-8"?>
<!-- Generator: Adobe Illustrator 15.0.0, SVG Export Plug-In  -->
<!DOCTYPE svg PUBLIC "-//W3C//DTD SVG 1.1//EN" "http://www.w3.org/Graphics/SVG/1.1/DTD/svg11.dtd" [
	<!ENTITY ns_flows "http://ns.adobe.com/Flows/1.0/">
]>
<svg version="1.1"
	 xmlns="http://www.w3.org/2000/svg" xmlns:xlink="http://www.w3.org/1999/xlink" xmlns:a="http://ns.adobe.com/AdobeSVGViewerExtensions/3.0/"
	 x="0px" y="0px" width="16px" height="16px" viewBox="13 2565.971 16 16" enable-background="new 13 2565.971 16 16"
	 xml:space="preserve">
<defs>
</defs>
<rect display="none" fill="#66A19F" width="87" height="3280.97"/>
<rect x="20" y="2566.97" width="8" height="2"/>
<rect x="20" y="2572.97" width="8" height="2"/>
<rect x="20" y="2578.97" width="8" height="2"/>
<path d="M14.302,2569.093l1.4,0.8c0.091,0.052,0.194,0.079,0.297,0.079c0.059,0,0.117-0.009,0.174-0.026
	c0.158-0.048,0.289-0.158,0.363-0.306l1.4-2.8c0.148-0.296,0.028-0.657-0.268-0.805c-0.297-0.149-0.657-0.028-0.805,0.268
	l-1.117,2.233l-0.85-0.485c-0.287-0.164-0.653-0.064-0.818,0.223C13.914,2568.562,14.014,2568.928,14.302,2569.093z"/>
<path d="M14.302,2575.092l1.4,0.801c0.091,0.052,0.194,0.079,0.298,0.079c0.058,0,0.117-0.009,0.174-0.026
	c0.158-0.048,0.289-0.158,0.363-0.306l1.4-2.801c0.148-0.296,0.028-0.657-0.269-0.805c-0.295-0.148-0.657-0.028-0.805,0.268
	l-1.117,2.234l-0.85-0.486c-0.287-0.164-0.654-0.065-0.819,0.223C13.914,2574.561,14.014,2574.928,14.302,2575.092z"/>
<path d="M14,2581.97h4v-4h-4V2581.97z M15,2578.97h2v2h-2V2578.97z"/>
<rect x="13" y="2565.97" display="none" opacity="0.2" fill="#E94E47" width="16" height="16"/>
</svg>
