<?xml version="1.0" encoding="utf-8"?>
<!-- Generator: Adobe Illustrator 15.0.0, SVG Export Plug-In  -->
<!DOCTYPE svg PUBLIC "-//W3C//DTD SVG 1.1//EN" "http://www.w3.org/Graphics/SVG/1.1/DTD/svg11.dtd" [
	<!ENTITY ns_flows "http://ns.adobe.com/Flows/1.0/">
]>
<svg version="1.1"
	 xmlns="http://www.w3.org/2000/svg" xmlns:xlink="http://www.w3.org/1999/xlink" xmlns:a="http://ns.adobe.com/AdobeSVGViewerExtensions/3.0/"
	 x="0px" y="0px" width="13px" height="14px" viewBox="0 -1 13 14" enable-background="new 0 -1 13 14" xml:space="preserve">
<defs>
</defs>
<path fill="#FFFFFF" d="M7.072,1.605l3.346,3.345l-5.466,5.468L1.605,7.072L7.072,1.605 M7.072,0.415
	c-0.255,0-0.511,0.098-0.707,0.293L0.709,6.365c-0.391,0.39-0.392,1.022,0,1.414l3.535,3.536c0.195,0.194,0.451,0.293,0.706,0.293
	c0.258,0,0.514-0.099,0.709-0.294l5.656-5.656c0.393-0.391,0.393-1.024,0.002-1.414L7.779,0.708
	C7.584,0.513,7.328,0.415,7.072,0.415"/>
<path fill="#FFFFFF" d="M9.336,3.396c-0.182,0-0.363-0.069-0.502-0.208c-0.277-0.276-0.277-0.725,0-1.001l1.979-1.979
	c0.277-0.276,0.725-0.276,1.002,0c0.277,0.278,0.277,0.726,0,1.003L9.836,3.188C9.697,3.326,9.518,3.396,9.336,3.396"/>
<path fill="#FFFFFF" d="M0.709,12.022c-0.182,0-0.362-0.069-0.501-0.208c-0.277-0.276-0.277-0.725,0-1.001l1.768-1.768
	c0.277-0.277,0.725-0.277,1.002,0c0.277,0.276,0.277,0.725,0,1.002L1.21,11.814C1.071,11.953,0.891,12.022,0.709,12.022"/>
</svg>
