<?xml version="1.0" encoding="utf-8"?>
<!-- Generator: Adobe Illustrator 15.0.0, SVG Export Plug-In  -->
<!DOCTYPE svg PUBLIC "-//W3C//DTD SVG 1.1//EN" "http://www.w3.org/Graphics/SVG/1.1/DTD/svg11.dtd" [
	<!ENTITY ns_flows "http://ns.adobe.com/Flows/1.0/">
]>
<svg version="1.1"
	 xmlns="http://www.w3.org/2000/svg" xmlns:xlink="http://www.w3.org/1999/xlink" xmlns:a="http://ns.adobe.com/AdobeSVGViewerExtensions/3.0/"
	 x="0px" y="0px" width="16px" height="16px" viewBox="8 37.97 16 16" enable-background="new 8 37.97 16 16" xml:space="preserve">
<defs>
</defs>
<rect display="none" fill="#66A19F" width="87" height="2381.97"/>
<path d="M20.987,39.714C19.578,38.59,17.807,37.97,16,37.97c-4.411,0-8,3.589-8,8s3.589,8,8,8s8-3.589,8-8
	C24,43.523,22.902,41.243,20.987,39.714z M11.563,51.383l0.107-0.252c0,0,0.75-1.541,0.747-1.791s-0.4-1.989-0.955-1.875
	c-2.232,0.458-2.44-1.139-2.459-1.442C9.002,46.005,9,45.988,9,45.97c0-0.137,0.013-0.27,0.021-0.405
	c0.573,0.006,1.425,0.06,1.727,0.321c0.469,0.406,1.912,0.084,2.69,0c0,0,0.656-1.531,1.563-1.813c0,0,0.373-0.831-0.151-1.379
	c-0.026-0.027-1.013-0.811-1.505-0.266c-0.55,0.608-0.552,0.858-0.927,0.192s0.361-0.765-0.045-1.515
	c-0.197-0.363-0.392-0.598-0.542-0.747c1.166-0.867,2.605-1.387,4.17-1.387c0.127,0,0.247,0.025,0.373,0.032
	c-0.011,0.334-0.009,0.722,0.042,1.006c0.109,0.602,0.626,1.154,1.328,0.164c0.251-0.354,0.15-0.691-0.08-0.979
	c0.288,0.071,0.573,0.147,0.846,0.252l0.001,0.056c0,0,0.34,0.338-0.191,0.926c-0.43,0.475-1.813,1.118-1.403,1.841
	c0.503,0.888,2.428-0.488,3.573,0.585c0.907,0.85,2.299,2.323,1.979,1.206c-0.171-0.599-0.158-0.873-0.109-1.001
	C22.766,43.946,23,44.929,23,45.97c0,0.789-0.136,1.544-0.377,2.251c-0.146-0.167-0.555-0.633-0.909-0.987
	c-0.438-0.438-0.719-1.188-0.844-1.625s-0.688-0.75-1.094-0.75s-0.938-0.188-0.938-0.188s-0.188-0.469-0.625-0.438
	s-1.219,0.563-1.375,1.125c0,0-0.719,1.938,0.5,2.563s2.031-0.563,1.719,2.875c0,0-0.162,0.955,0.097,1.417
	c-0.949,0.48-2.018,0.757-3.155,0.757C14.315,52.97,12.771,52.375,11.563,51.383z"/>
<rect x="8" y="37.97" display="none" opacity="0.2" fill="#E94E47" width="16" height="16"/>
</svg>
