<?xml version="1.0" encoding="utf-8"?>
<!-- Generator: Adobe Illustrator 15.0.0, SVG Export Plug-In  -->
<!DOCTYPE svg PUBLIC "-//W3C//DTD SVG 1.1//EN" "http://www.w3.org/Graphics/SVG/1.1/DTD/svg11.dtd" [
	<!ENTITY ns_flows "http://ns.adobe.com/Flows/1.0/">
]>
<svg version="1.1"
	 xmlns="http://www.w3.org/2000/svg" xmlns:xlink="http://www.w3.org/1999/xlink" xmlns:a="http://ns.adobe.com/AdobeSVGViewerExtensions/3.0/"
	 x="0px" y="0px" width="16px" height="16px" viewBox="-2.5 -1 16 16" enable-background="new -2.5 -1 16 16" xml:space="preserve">
<defs>
</defs>
<path fill="#FFFFFF" d="M10.707,3.294c-0.475-0.391-3.247-2.411-4-3C6.489,0.123,6.256,0,6,0H2.5C0.5,0,0,1.948,0,2.5v9
	c0,2,1.947,2.5,2.5,2.5h6c2,0,2.5-1.946,2.5-2.5V4C11,3.744,10.92,3.47,10.707,3.294 M7.5,13h-4c-2,0-2.5-0.5-2.5-2.5v-7
	C1,1.5,1.5,1,3.5,1H5v3c0,0.554,0.447,1,1,1h4v5.5C10,12.5,9.5,13,7.5,13"/>
</svg>
