<?xml version="1.0" encoding="utf-8"?>
<!-- Generator: Adobe Illustrator 15.0.0, SVG Export Plug-In . SVG Version: 6.00 Build 0)  -->
<!DOCTYPE svg PUBLIC "-//W3C//DTD SVG 1.1//EN" "http://www.w3.org/Graphics/SVG/1.1/DTD/svg11.dtd">
<svg version="1.1" id="Layer_1" xmlns="http://www.w3.org/2000/svg" xmlns:xlink="http://www.w3.org/1999/xlink" x="0px" y="0px"
	 width="16px" height="16px" viewBox="-0.5 0.5 16 16" enable-background="new -0.5 0.5 16 16" xml:space="preserve">
<rect display="none" fill="#66A19F" width="87" height="3280.97"/>
<rect x="13" y="997.97" display="none" opacity="0.2" fill="#E94E47" enable-background="new    " width="16" height="16"/>
<path d="M3.75,15.998c-1.241,0-2.25-1.008-2.25-2.248v-10c0-1.241,1.009-2.25,2.25-2.25h5c0.343,0,0.664,0.14,0.903,0.394
	l3.137,3.135L12.778,5.06C12.924,5.27,13.001,5.507,13,5.75v7.998c0,1.24-1.01,2.25-2.25,2.25H3.75L3.75,15.998z M3.751,2.999
	c-0.414,0-0.75,0.336-0.75,0.75V13.75c0,0.412,0.336,0.75,0.75,0.75h7c0.413,0,0.75-0.338,0.75-0.75V6.999h-1.75
	c-1.24,0-2.25-1.009-2.25-2.249V2.999H3.751z"/>
<path d="M12.508,5.118l0.009-0.009l-0.043-0.044c-0.013-0.012-0.022-0.024-0.037-0.036l-0.686-0.686l-1.593-1.594l0,0L9.472,2.065
	C9.29,1.873,9.036,1.75,8.75,1.75h-1h-4c-1.101,0-2,0.9-2,2v10c0,1.102,0.899,1.998,2,1.998h7c1.101,0,2-0.896,2-1.998v-7v-1
	C12.751,5.508,12.653,5.291,12.508,5.118z M11.751,13.75c0,0.553-0.449,1-1,1h-7c-0.551,0-1-0.447-1-1V3.749c0-0.551,0.449-1,1-1h4
	V3.75v1c0,1.1,0.9,1.999,2,1.999h2V13.75z"/>
</svg>
