<?xml version="1.0" encoding="utf-8"?>
<!-- Generator: Adobe Illustrator 15.0.0, SVG Export Plug-In  -->
<!DOCTYPE svg PUBLIC "-//W3C//DTD SVG 1.1//EN" "http://www.w3.org/Graphics/SVG/1.1/DTD/svg11.dtd" [
	<!ENTITY ns_flows "http://ns.adobe.com/Flows/1.0/">
]>
<svg version="1.1"
	 xmlns="http://www.w3.org/2000/svg" xmlns:xlink="http://www.w3.org/1999/xlink" xmlns:a="http://ns.adobe.com/AdobeSVGViewerExtensions/3.0/"
	 x="0px" y="0px" width="16px" height="16px" viewBox="-1 -1 16 16" enable-background="new -1 -1 16 16" xml:space="preserve">
<defs>
</defs>
<path fill="#00A9D4" d="M4.324,13.952c-0.206-0.078-0.365-0.248-0.432-0.458l-0.771-2.413l-2.449-0.647
	c-0.215-0.054-0.389-0.206-0.479-0.408C0.104,9.824,0.111,9.592,0.211,9.396l1.16-2.254L0.099,4.951
	c-0.111-0.191-0.13-0.422-0.05-0.628c0.079-0.206,0.248-0.365,0.458-0.432L2.92,3.117l0.649-2.45
	c0.058-0.213,0.208-0.389,0.409-0.479C4.179,0.098,4.411,0.1,4.607,0.206l2.252,1.16l2.19-1.276c0.381-0.222,0.926-0.012,1.06,0.408
	l0.771,2.413l2.45,0.648c0.214,0.053,0.389,0.207,0.479,0.408c0.09,0.202,0.082,0.433-0.018,0.629L12.629,6.85l1.272,2.191
	c0.11,0.19,0.129,0.422,0.051,0.627c-0.08,0.207-0.248,0.365-0.459,0.433l-2.412,0.774l-0.65,2.449
	c-0.057,0.213-0.207,0.391-0.408,0.479c-0.201,0.091-0.435,0.087-0.629-0.018l-2.253-1.158l-2.19,1.274
	C4.761,14.012,4.53,14.031,4.324,13.952"/>
</svg>
