<?xml version="1.0" encoding="utf-8"?>
<!-- Generator: Adobe Illustrator 20.1.0, SVG Export Plug-In . SVG Version: 6.00 Build 0)  -->
<svg version="1.1" id="Layer_1" xmlns="http://www.w3.org/2000/svg" xmlns:xlink="http://www.w3.org/1999/xlink" x="0px" y="0px"
	 viewBox="0 0 12 13.5" style="enable-background:new 0 0 12 13.5;" xml:space="preserve">
<style type="text/css">
	.st0{fill:#1D1D1B;}
</style>
<title>note</title>
<path class="st0" d="M7.1,6.7c1-1,1.9-1.9,3.2-3.2c-0.2-0.4-0.4-0.7-0.7-1C9.2,2.2,8.9,2,8.5,1.8C7.2,3,6.3,4,5.3,4.9
	c0.4,0.2,0.7,0.5,1,0.8C6.6,6,6.9,6.3,7.1,6.7"/>
<path class="st0" d="M5.4,6.6c-0.3-0.3-0.6-0.5-1-0.7L4.2,6.1C4.1,6.2,2.6,8.4,3.1,8.9s2.7-1,2.8-1.1l0.2-0.2
	C5.9,7.2,5.7,6.9,5.4,6.6"/>
<path class="st0" d="M10.4,1.6c0.3,0.3,0.5,0.6,0.7,1l0.1-0.1c0.5-0.5,1.3-1.3,0.4-2.1S10,0.3,9.5,0.8L9.4,0.9
	C9.8,1.1,10.1,1.3,10.4,1.6"/>
<path class="st0" d="M10,5.5v6c0,0.6-0.4,1-1,1H2c-0.6,0-1-0.4-1-1v-9c0-0.6,0.4-1,1-1h5v-1H2c-1.1,0-2,0.9-2,2v9c0,1.1,0.9,2,2,2h7
	c1.1,0,2-0.9,2-2v-6H10z"/>
</svg>
