<svg id="Layer_1" data-name="Layer 1" xmlns="http://www.w3.org/2000/svg" viewBox="0 0 12 13.52"><defs><style>.cls-1{fill:#fff;}</style></defs><title>noteWhite</title><path class="cls-1" d="M7.06,6.66l3.18-3.17a3.76,3.76,0,0,0-.72-1,3.72,3.72,0,0,0-1-.72C7.21,3.05,6.31,4,5.34,4.94a4.83,4.83,0,0,1,1,.75,4.7,4.7,0,0,1,.75,1" transform="translate(0 0.02)"/><path class="cls-1" d="M5.38,6.62a3.71,3.71,0,0,0-1-.71l-.16.16c-.16.16-1.61,2.35-1.13,2.83s2.68-1,2.84-1.12l.16-.16a3.68,3.68,0,0,0-.71-1" transform="translate(0 0.02)"/><path class="cls-1" d="M10.4,1.6a4.76,4.76,0,0,1,.74,1l.06-.1c.53-.54,1.27-1.27.41-2.13S10,.28,9.48.8L9.42.86a4.75,4.75,0,0,1,1,.74" transform="translate(0 0.02)"/><path class="cls-1" d="M10,5.5v6a1,1,0,0,1-1,1H2a1,1,0,0,1-1-1v-9a1,1,0,0,1,1-1H7V.5H2a2,2,0,0,0-2,2v9a2,2,0,0,0,2,2H9a2,2,0,0,0,2-2v-6Z" transform="translate(0 0.02)"/></svg>