<?xml version="1.0" encoding="utf-8"?>
<!-- Generator: Adobe Illustrator 16.0.2, SVG Export Plug-In . SVG Version: 6.00 Build 0)  -->
<!DOCTYPE svg PUBLIC "-//W3C//DTD SVG 1.1//EN" "http://www.w3.org/Graphics/SVG/1.1/DTD/svg11.dtd">
<svg version="1.1" id="Layer_1" xmlns="http://www.w3.org/2000/svg" xmlns:xlink="http://www.w3.org/1999/xlink" x="0px" y="0px"
	 width="16px" height="16px" viewBox="0 0 16 16" enable-background="new 0 0 16 16" xml:space="preserve">
<path d="M13,8.01c0.004-0.559-0.336-1.042-0.836-1.302l0.003-0.005c0,0-6.602-4.468-6.667-4.501C4.703,1.787,3.684,2.033,3.224,2.75
	C3.072,2.987,3.007,3.245,3.007,3.5H3v9C3,13.328,3.746,14,4.667,14c0.3,0,0.831-0.207,0.831-0.207
	C5.551,13.766,12.167,9.3,12.167,9.3l-0.003-0.005C12.659,9.037,12.996,8.562,13,8.01z"/>
</svg>
