<?xml version="1.0" encoding="utf-8"?>
<!-- Generator: Adobe Illustrator 15.0.0, SVG Export Plug-In  -->
<!DOCTYPE svg PUBLIC "-//W3C//DTD SVG 1.1//EN" "http://www.w3.org/Graphics/SVG/1.1/DTD/svg11.dtd" [
	<!ENTITY ns_flows "http://ns.adobe.com/Flows/1.0/">
]>
<svg version="1.1"
	 xmlns="http://www.w3.org/2000/svg" xmlns:xlink="http://www.w3.org/1999/xlink" xmlns:a="http://ns.adobe.com/AdobeSVGViewerExtensions/3.0/"
	 x="0px" y="0px" width="16px" height="16px" viewBox="13 1701.971 16 16" enable-background="new 13 1701.971 16 16"
	 xml:space="preserve">
<defs>
</defs>
<rect display="none" fill="#66A19F" width="87" height="3280.97"/>
<path d="M25,1708.971h-3v-3c0-0.55-0.45-1-1-1s-1,0.45-1,1v3h-3c-0.55,0-1,0.45-1,0.999s0.45,0.999,1,0.999h3v3c0,0.55,0.45,1,1,1
	s1-0.45,1-1v-3h3c0.55,0,1-0.45,1-0.999S25.55,1708.971,25,1708.971z"/>
<rect x="13" y="1701.97" display="none" opacity="0.2" fill="#E94E47" width="16" height="16"/>
</svg>
