<?xml version="1.0" encoding="utf-8"?>
<!-- Generator: Adobe Illustrator 15.0.0, SVG Export Plug-In  -->
<!DOCTYPE svg PUBLIC "-//W3C//DTD SVG 1.1//EN" "http://www.w3.org/Graphics/SVG/1.1/DTD/svg11.dtd" [
	<!ENTITY ns_flows "http://ns.adobe.com/Flows/1.0/">
]>
<svg version="1.1"
	 xmlns="http://www.w3.org/2000/svg" xmlns:xlink="http://www.w3.org/1999/xlink" xmlns:a="http://ns.adobe.com/AdobeSVGViewerExtensions/3.0/"
	 x="0px" y="0px" width="16px" height="16px" viewBox="13 805.971 16 16" enable-background="new 13 805.971 16 16"
	 xml:space="preserve">
<defs>
</defs>
<rect display="none" fill="#66A19F" width="87" height="3280.97"/>
<path d="M27,810.97h-1v2H16v-2h-1c-0.553,0-1,0.447-1,1v6c0,0.553,0.447,1,1,1h1v-3h10v3h1c0.553,0,1-0.447,1-1v-6
	C28,811.418,27.553,810.97,27,810.97z"/>
<polyline points="25,816.97 25,819.97 17,819.97 17,816.97 25,816.97 "/>
<polyline points="25,806.97 25,811.97 17,811.97 17,806.97 25,806.97 "/>
<rect x="13" y="805.97" display="none" opacity="0.2" fill="#E94E47" width="16" height="16"/>
</svg>
