<?xml version="1.0" encoding="utf-8"?>
<!-- Generator: Adobe Illustrator 15.0.0, SVG Export Plug-In  -->
<!DOCTYPE svg PUBLIC "-//W3C//DTD SVG 1.1//EN" "http://www.w3.org/Graphics/SVG/1.1/DTD/svg11.dtd" [
	<!ENTITY ns_flows "http://ns.adobe.com/Flows/1.0/">
]>
<svg version="1.1"
	 xmlns="http://www.w3.org/2000/svg" xmlns:xlink="http://www.w3.org/1999/xlink" xmlns:a="http://ns.adobe.com/AdobeSVGViewerExtensions/3.0/"
	 x="0px" y="0px" width="16px" height="16px" viewBox="0 0 16 16" enable-background="new 0 0 16 16" xml:space="preserve">
<defs>
</defs>
<path fill="#FFFFFF" d="M9.75,3.688c0-0.967-0.783-1.75-1.75-1.75c-0.969,0-1.75,0.783-1.75,1.75S7.031,5.438,8,5.438
	C8.967,5.438,9.75,4.655,9.75,3.688"/>
<path fill="#FFFFFF" d="M12,15.941c-0.229,0-0.443-0.138-0.529-0.364L8,6.522l-3.471,9.055c-0.112,0.292-0.442,0.439-0.732,0.326
	c-0.292-0.111-0.439-0.44-0.326-0.731l4-10.437c0.168-0.439,0.891-0.439,1.059,0l4,10.437c0.112,0.291-0.034,0.62-0.326,0.731
	C12.136,15.93,12.066,15.941,12,15.941"/>
<path fill="#FFFFFF" d="M10.112,11.816H5.938c-0.313,0-0.567-0.254-0.567-0.567c0-0.313,0.254-0.566,0.567-0.566h4.175
	c0.313,0,0.567,0.254,0.567,0.566C10.68,11.563,10.426,11.816,10.112,11.816"/>
<path fill="#FFFFFF" d="M12.031,15.941c-0.08,0-0.16-0.017-0.236-0.052c-0.663-0.305-1.204-0.567-1.657-0.787
	c-2.083-1.011-2.083-1.011-4.271,0.035c-0.443,0.213-0.968,0.463-1.601,0.753c-0.286,0.129-0.621,0.005-0.751-0.28
	c-0.131-0.285-0.005-0.621,0.28-0.752c0.626-0.286,1.144-0.534,1.582-0.744c2.58-1.233,2.775-1.236,5.255-0.032
	c0.447,0.218,0.98,0.477,1.635,0.777c0.285,0.131,0.409,0.467,0.279,0.752C12.451,15.818,12.246,15.941,12.031,15.941"/>
<path fill="#FFFFFF" d="M3.971,6.142c-0.158,0-0.311-0.09-0.384-0.242C3.322,5.346,3.188,4.751,3.188,4.137
	c0-0.948,0.331-1.871,0.933-2.602C4.271,1.355,4.54,1.33,4.72,1.478c0.182,0.149,0.207,0.418,0.058,0.599
	c-0.477,0.578-0.74,1.309-0.74,2.061c0,0.487,0.107,0.957,0.317,1.396c0.102,0.212,0.013,0.465-0.2,0.566
	C4.095,6.128,4.032,6.142,3.971,6.142"/>
<path fill="#FFFFFF" d="M1.042,7.6c-0.158,0-0.312-0.089-0.384-0.242C0.222,6.443,0,5.464,0,4.448c0-1.564,0.547-3.09,1.54-4.294
	c0.149-0.181,0.419-0.205,0.599-0.057C2.32,0.247,2.346,0.514,2.196,0.695C1.328,1.747,0.85,3.081,0.85,4.448
	c0,0.889,0.194,1.744,0.576,2.544c0.102,0.212,0.012,0.466-0.2,0.566C1.166,7.587,1.104,7.6,1.042,7.6"/>
<path fill="#FFFFFF" d="M12.029,6.142c0.158,0,0.311-0.09,0.384-0.242c0.265-0.554,0.398-1.148,0.398-1.763
	c0-0.948-0.331-1.871-0.933-2.602c-0.15-0.181-0.419-0.206-0.599-0.058c-0.182,0.149-0.207,0.418-0.058,0.599
	c0.477,0.578,0.739,1.309,0.739,2.061c0,0.487-0.106,0.957-0.316,1.396c-0.102,0.212-0.013,0.465,0.2,0.566
	C11.905,6.128,11.967,6.142,12.029,6.142"/>
<path fill="#FFFFFF" d="M14.958,7.6c0.158,0,0.311-0.089,0.384-0.242C15.778,6.443,16,5.464,16,4.448c0-1.564-0.547-3.09-1.54-4.294
	c-0.15-0.181-0.419-0.205-0.599-0.057c-0.182,0.149-0.207,0.417-0.058,0.598c0.868,1.052,1.347,2.386,1.347,3.753
	c0,0.889-0.194,1.744-0.576,2.544c-0.102,0.212-0.013,0.466,0.199,0.566C14.834,7.587,14.896,7.6,14.958,7.6"/>
</svg>
