<svg id="Layer_1" data-name="Layer 1" xmlns="http://www.w3.org/2000/svg" viewBox="0 0 14 13.3"><defs><style>.cls-1{fill:#fff;}.cls-2{fill:#1d1d1b;}</style></defs><title>remove</title><rect class="cls-1" x="7.9" y="7.1" width="6" height="5.9"/><path class="cls-2" d="M11.91,10.31l1.6-1.67a.69.69,0,0,0,0-1.07.62.62,0,0,0-1,0l-1.6,1.67L9.29,7.57a.62.62,0,0,0-1,0,.69.69,0,0,0,0,1.07l1.6,1.67L8.26,12a.69.69,0,0,0,0,1.07.85.85,0,0,0,.57.24c.23,0,.34-.12.57-.24L11,11.39l1.6,1.67a.85.85,0,0,0,.57.24c.23,0,.34-.12.57-.24a.69.69,0,0,0,0-1.07Z"/><path class="cls-2" d="M12.49,1.77a2.17,2.17,0,0,0-.61-.09H11c0-1-1-2-3.11-2H3.09A2.72,2.72,0,0,0,0,2.68V10a1,1,0,0,0,1,1H7V9H3C2.64,9,2,9,2,8L3,4.06a1.2,1.2,0,0,1,1-.88h8.07a.65.65,0,0,1,.66.86h0L11,6h2l1-1.56A2.23,2.23,0,0,0,12.49,1.77Z"/></svg>