<?xml version="1.0" encoding="UTF-8" standalone="no"?>
<!-- Created with Inkscape (http://www.inkscape.org/) -->

<svg
   xmlns:dc="http://purl.org/dc/elements/1.1/"
   xmlns:cc="http://creativecommons.org/ns#"
   xmlns:rdf="http://www.w3.org/1999/02/22-rdf-syntax-ns#"
   xmlns:svg="http://www.w3.org/2000/svg"
   xmlns="http://www.w3.org/2000/svg"
   xmlns:sodipodi="http://sodipodi.sourceforge.net/DTD/sodipodi-0.dtd"
   xmlns:inkscape="http://www.inkscape.org/namespaces/inkscape"
   width="16px"
   height="16px"
   id="svg2992"
   version="1.1"
   inkscape:version="0.48.4 r9939"
   sodipodi:docname="New document 1">
  <defs
     id="defs2994" />
  <sodipodi:namedview
     id="base"
     pagecolor="#ffffff"
     bordercolor="#666666"
     borderopacity="1.0"
     inkscape:pageopacity="0.0"
     inkscape:pageshadow="2"
     inkscape:zoom="22.197802"
     inkscape:cx="8"
     inkscape:cy="8"
     inkscape:current-layer="layer1"
     showgrid="true"
     inkscape:grid-bbox="true"
     inkscape:document-units="px"
     inkscape:window-width="621"
     inkscape:window-height="665"
     inkscape:window-x="120"
     inkscape:window-y="120"
     inkscape:window-maximized="0" />
  <metadata
     id="metadata2997">
    <rdf:RDF>
      <cc:Work
         rdf:about="">
        <dc:format>image/svg+xml</dc:format>
        <dc:type
           rdf:resource="http://purl.org/dc/dcmitype/StillImage" />
        <dc:title></dc:title>
      </cc:Work>
    </rdf:RDF>
  </metadata>
  <g
     id="layer1"
     inkscape:label="Layer 1"
     inkscape:groupmode="layer">
    <g
       transform="translate(-0.57623764,-0.2440595)"
       id="g3">
      <path
         inkscape:connector-curvature="0"
         d="m 6,12 c 0,1.1 -0.9,2 -2,2 l 0,0 C 2.9,14 2,13.1 2,12 V 4 C 2,2.9 2.9,2 4,2 l 0,0 c 1.1,0 2,0.9 2,2 v 8 z"
         id="path5" />
    </g>
    <path
       inkscape:connector-curvature="0"
       d="m 15.046031,7.8559042 c 0.003,-0.559 -0.249721,-1.042 -0.621331,-1.302 l 0.0022,-0.005 c 0,0 -4.9067299,-4.4679999 -4.9550391,-4.5009999 -0.5923453,-0.415 -1.3496852,-0.169 -1.6915658,0.548 -0.1129693,0.237 -0.1612785,0.4949999 -0.1612785,0.7499999 h -0.0052 v 8.9999998 c 0,0.828 0.5544412,1.5 1.2389456,1.5 0.2229656,0 0.6176148,-0.207 0.6176148,-0.207 0.039391,-0.027 4.956526,-4.4929998 4.956526,-4.4929998 l -0.0022,-0.005 c 0.367894,-0.258 0.618358,-0.733 0.621331,-1.285 z"
       id="path3" />
    <g
       id="g3028"
       transform="translate(-0.57623764,-0.2440595)">
      <path
         id="path3030"
         d="m 6,12 c 0,1.1 -0.9,2 -2,2 l 0,0 C 2.9,14 2,13.1 2,12 V 4 C 2,2.9 2.9,2 4,2 l 0,0 c 1.1,0 2,0.9 2,2 v 8 z"
         inkscape:connector-curvature="0" />
    </g>
  </g>
</svg>
