<?xml version="1.0" encoding="utf-8"?>
<!-- Generator: Adobe Illustrator 15.0.0, SVG Export Plug-In  -->
<!DOCTYPE svg PUBLIC "-//W3C//DTD SVG 1.1//EN" "http://www.w3.org/Graphics/SVG/1.1/DTD/svg11.dtd" [
	<!ENTITY ns_flows "http://ns.adobe.com/Flows/1.0/">
]>
<svg version="1.1"
	 xmlns="http://www.w3.org/2000/svg" xmlns:xlink="http://www.w3.org/1999/xlink" xmlns:a="http://ns.adobe.com/AdobeSVGViewerExtensions/3.0/"
	 x="0px" y="0px" width="16px" height="16px" viewBox="8 357.97 16 16" enable-background="new 8 357.97 16 16"
	 xml:space="preserve">
<defs>
</defs>
<rect display="none" fill="#66A19F" width="87" height="2381.97"/>
<path d="M11.341,364.494c0.215,0.214,0.537,0.278,0.818,0.163c0.092-0.039,0.174-0.095,0.242-0.163
	c0.139-0.138,0.22-0.327,0.22-0.53l0-1.372H18v-1.5h-5.378v-1.372c0-0.304-0.184-0.577-0.463-0.693
	c-0.281-0.116-0.604-0.052-0.818,0.163l-2.121,2.122c-0.293,0.293-0.293,0.768,0,1.061L11.341,364.494z"/>
<path d="M12.622,367.722c0-0.305-0.184-0.577-0.463-0.694c-0.281-0.117-0.604-0.053-0.818,0.162l-2.121,2.122
	c-0.293,0.292-0.293,0.768,0,1.06l2.121,2.121c0.215,0.214,0.537,0.278,0.818,0.163c0.092-0.039,0.174-0.094,0.242-0.163
	c0.139-0.138,0.22-0.327,0.22-0.53l0-1.371H18v-1.5h-5.378V367.722z"/>
<path d="M21.781,365.312l-2.121-2.122c-0.215-0.214-0.537-0.279-0.818-0.163c-0.279,0.117-0.461,0.39-0.463,0.693l0,1.372H13v1.5
	h5.379l0,1.371c0,0.304,0.183,0.576,0.463,0.693c0.281,0.115,0.603,0.052,0.818-0.163l2.121-2.121
	C22.073,366.079,22.073,365.604,21.781,365.312z"/>
<rect x="8" y="357.97" display="none" opacity="0.2" fill="#E94E47" width="16" height="16"/>
</svg>
