<?xml version="1.0" encoding="utf-8"?>
<!-- Generator: Adobe Illustrator 15.0.0, SVG Export Plug-In  -->
<!DOCTYPE svg PUBLIC "-//W3C//DTD SVG 1.1//EN" "http://www.w3.org/Graphics/SVG/1.1/DTD/svg11.dtd" [
	<!ENTITY ns_flows "http://ns.adobe.com/Flows/1.0/">
]>
<svg version="1.1"
	 xmlns="http://www.w3.org/2000/svg" xmlns:xlink="http://www.w3.org/1999/xlink" xmlns:a="http://ns.adobe.com/AdobeSVGViewerExtensions/3.0/"
	 x="0px" y="0px" width="16px" height="16px" viewBox="13 2949.971 16 16" enable-background="new 13 2949.971 16 16"
	 xml:space="preserve">
<defs>
</defs>
<rect display="none" fill="#66A19F" width="87" height="3280.97"/>
<path d="M14.326,2959.089l1.508,0.801c0.099,0.053,0.208,0.08,0.319,0.08c0.063,0,0.126-0.01,0.188-0.027
	c0.169-0.045,0.311-0.156,0.391-0.304l1.557-2.864c0.16-0.297,0.03-0.656-0.289-0.805c-0.318-0.149-0.707-0.027-0.866,0.268
	l-1.252,2.297l-0.915-0.488c-0.309-0.164-0.705-0.063-0.882,0.223C13.909,2958.558,14.016,2958.923,14.326,2959.089z"/>
<g>
	<path d="M21,2959.97c-0.55,0-1-0.45-1-1v-2c0-0.55,0.45-1,1-1h6c0.55,0,1,0.45,1,1v2c0,0.55-0.45,1-1,1H21z"/>
</g>
<g>
	<path d="M21,2964.97c-0.55,0-1-0.45-1-1v-2c0-0.55,0.45-1,1-1h6c0.55,0,1,0.45,1,1v2c0,0.55-0.45,1-1,1H21z"/>
</g>
<g>
	<path d="M15,2964.97c-0.55,0-1-0.45-1-1v-2c0-0.55,0.45-1,1-1h2c0.55,0,1,0.45,1,1v2c0,0.55-0.45,1-1,1H15z"/>
</g>
<g>
	<path d="M14,2951.97c0-0.55,0.45-1,1-1h12c0.55,0,1,0.45,1,1v2c0,0.55-0.45,1-1,1H15c-0.55,0-1-0.45-1-1V2951.97z"/>
</g>
<rect x="13" y="2949.97" display="none" opacity="0.2" fill="#E94E47" width="16" height="16"/>
</svg>
