<svg id="Layer_1" data-name="Layer 1" xmlns="http://www.w3.org/2000/svg" viewBox="0 0 14 14"><defs><style>.cls-1{fill:#fff;}</style></defs><title>ebIcon_rowView_white</title><path class="cls-1" d="M1.33,9.12l1.51.8a.68.68,0,0,0,.32.08l.19,0a.63.63,0,0,0,.39-.3L5.29,6.81A.58.58,0,0,0,5,6a.67.67,0,0,0-.87.27L2.88,8.57,2,8.08a.68.68,0,0,0-.88.22A.58.58,0,0,0,1.33,9.12Z" transform="translate(-1 -1)"/><path class="cls-1" d="M8,10A1,1,0,0,1,7,9V7A1,1,0,0,1,8,6h6a1,1,0,0,1,1,1V9a1,1,0,0,1-1,1Z" transform="translate(-1 -1)"/><path class="cls-1" d="M8,15a1,1,0,0,1-1-1V12a1,1,0,0,1,1-1h6a1,1,0,0,1,1,1v2a1,1,0,0,1-1,1Z" transform="translate(-1 -1)"/><path class="cls-1" d="M2,15a1,1,0,0,1-1-1V12a1,1,0,0,1,1-1H4a1,1,0,0,1,1,1v2a1,1,0,0,1-1,1Z" transform="translate(-1 -1)"/><path class="cls-1" d="M1,2A1,1,0,0,1,2,1H14a1,1,0,0,1,1,1V4a1,1,0,0,1-1,1H2A1,1,0,0,1,1,4Z" transform="translate(-1 -1)"/></svg>