<?xml version="1.0" encoding="utf-8"?>
<!-- Generator: Adobe Illustrator 15.0.0, SVG Export Plug-In  -->
<!DOCTYPE svg PUBLIC "-//W3C//DTD SVG 1.1//EN" "http://www.w3.org/Graphics/SVG/1.1/DTD/svg11.dtd" [
	<!ENTITY ns_flows "http://ns.adobe.com/Flows/1.0/">
]>
<svg version="1.1"
	 xmlns="http://www.w3.org/2000/svg" xmlns:xlink="http://www.w3.org/1999/xlink" xmlns:a="http://ns.adobe.com/AdobeSVGViewerExtensions/3.0/"
	 x="0px" y="0px" width="16px" height="16px" viewBox="8 261.97 16 16" enable-background="new 8 261.97 16 16"
	 xml:space="preserve">
<defs>
</defs>
<rect display="none" fill="#66A19F" width="87" height="2381.97"/>
<path d="M18.77,264.311l-2.216-2.121c-0.153-0.146-0.353-0.22-0.554-0.22s-0.401,0.073-0.554,0.22l-2.216,2.121
	c-0.225,0.215-0.292,0.379-0.17,0.659c0.122,0.28,0.407,0.4,0.725,0.4H15.4v2.6H16h0.6v-2.6h1.616c0.317,0,0.602-0.12,0.725-0.4
	C19.062,264.69,18.995,264.526,18.77,264.311z"/>
<path d="M13.23,275.629l2.216,2.121c0.153,0.146,0.354,0.22,0.554,0.22s0.401-0.073,0.554-0.22l2.216-2.121
	c0.225-0.215,0.292-0.379,0.17-0.659c-0.122-0.28-0.407-0.4-0.725-0.4H16.6v-2.6H16h-0.6v2.6h-1.616c-0.318,0-0.602,0.12-0.725,0.4
	C12.938,275.25,13.006,275.414,13.23,275.629z"/>
<path d="M10.341,267.2l-2.121,2.216C8.073,269.569,8,269.77,8,269.97s0.073,0.401,0.22,0.554l2.121,2.216
	c0.215,0.225,0.379,0.292,0.659,0.17c0.28-0.122,0.4-0.407,0.4-0.725v-1.616H14v-0.6v-0.6h-2.6v-1.616c0-0.317-0.12-0.602-0.4-0.725
	C10.72,266.909,10.556,266.976,10.341,267.2z"/>
<path d="M21.659,272.74l2.121-2.216c0.146-0.153,0.22-0.354,0.22-0.554s-0.073-0.401-0.22-0.554l-2.121-2.216
	c-0.215-0.225-0.379-0.292-0.659-0.17c-0.28,0.122-0.4,0.407-0.4,0.725v1.616H18v0.6v0.6h2.6v1.616c0,0.317,0.12,0.602,0.4,0.725
	C21.28,273.032,21.444,272.965,21.659,272.74z"/>
<rect x="8" y="261.97" display="none" opacity="0.2" fill="#E94E47" width="16" height="16"/>
</svg>
