<svg id="Layer_1" data-name="Layer 1" xmlns="http://www.w3.org/2000/svg" viewBox="0 0 13 14"><defs><style>.cls-1{fill:#fff;}</style></defs><title>ebIcon_save_white</title><path class="cls-1" d="M13.11,1H4.05A2.94,2.94,0,0,0,1.5,3.49V13a2,2,0,0,0,2,2h8.74a2.15,2.15,0,0,0,2.24-2V4ZM4.57,2h7.55a.55.55,0,0,1,.57.53V5.76a.55.55,0,0,1-.57.53H4.57Zm8.37,10.64a.53.53,0,0,1-.56.51H3.56A.54.54,0,0,1,3,12.63V8.31a.54.54,0,0,1,.56-.51h8.83a.53.53,0,0,1,.56.51Z" transform="translate(-1.5 -1)"/><rect class="cls-1" x="8.53" y="1.97" width="1.07" height="1.98"/></svg>