<?xml version="1.0" encoding="utf-8"?>
<!-- Generator: Adobe Illustrator 15.0.0, SVG Export Plug-In  -->
<!DOCTYPE svg PUBLIC "-//W3C//DTD SVG 1.1//EN" "http://www.w3.org/Graphics/SVG/1.1/DTD/svg11.dtd" [
	<!ENTITY ns_flows "http://ns.adobe.com/Flows/1.0/">
]>
<svg version="1.1"
	 xmlns="http://www.w3.org/2000/svg" xmlns:xlink="http://www.w3.org/1999/xlink" xmlns:a="http://ns.adobe.com/AdobeSVGViewerExtensions/3.0/"
	 x="0px" y="0px" width="16px" height="16px" viewBox="-1.5 -1 16 16" enable-background="new -1.5 -1 16 16" xml:space="preserve">
<defs>
</defs>
<path fill="#FFFFFF" d="M5.207,10.415C2.336,10.415,0,8.079,0,5.208C0,2.336,2.336,0,5.207,0c2.87,0,5.206,2.336,5.206,5.208
	C10.413,8.079,8.077,10.415,5.207,10.415 M5.207,1.417c-2.091,0-3.791,1.701-3.791,3.791c0,2.089,1.7,3.79,3.791,3.79
	c2.09,0,3.789-1.701,3.789-3.79C8.996,3.118,7.297,1.417,5.207,1.417"/>
<path fill="#FFFFFF" d="M11.543,14.382c-0.402,0-0.803-0.17-1.084-0.502l-3.092-3.655C6.861,9.627,6.937,8.733,7.533,8.227
	c0.598-0.504,1.492-0.431,1.998,0.167l3.093,3.655c0.505,0.598,0.432,1.492-0.167,1.998C12.191,14.271,11.866,14.382,11.543,14.382"
	/>
</svg>
