<?xml version="1.0" encoding="utf-8"?>
<!-- Generator: Adobe Illustrator 15.0.0, SVG Export Plug-In  -->
<!DOCTYPE svg PUBLIC "-//W3C//DTD SVG 1.1//EN" "http://www.w3.org/Graphics/SVG/1.1/DTD/svg11.dtd" [
	<!ENTITY ns_flows "http://ns.adobe.com/Flows/1.0/">
]>
<svg version="1.1"
	 xmlns="http://www.w3.org/2000/svg" xmlns:xlink="http://www.w3.org/1999/xlink" xmlns:a="http://ns.adobe.com/AdobeSVGViewerExtensions/3.0/"
	 x="0px" y="0px" width="16px" height="16px" viewBox="-1 -1 16 16" enable-background="new -1 -1 16 16" xml:space="preserve">
<defs>
</defs>
<path fill="#FFFFFF" d="M11.947,8.298c0.037-0.141,0.163-0.237,0.308-0.237H14V5.936h-1.745c-0.145,0-0.271-0.095-0.308-0.234
	c-0.118-0.452-0.297-0.885-0.53-1.284c-0.072-0.123-0.053-0.279,0.049-0.384L12.699,2.8L11.2,1.3L9.966,2.532
	c-0.104,0.104-0.262,0.12-0.385,0.049c-0.398-0.232-0.832-0.41-1.284-0.529C8.159,2.017,8.061,1.89,8.061,1.745V0H5.938v1.745
	c0,0.145-0.095,0.272-0.235,0.307C5.25,2.171,4.82,2.349,4.418,2.581C4.295,2.652,4.137,2.636,4.035,2.532L2.801,1.3L1.3,2.8
	l1.235,1.233c0.102,0.105,0.123,0.261,0.049,0.384C2.35,4.816,2.174,5.249,2.053,5.701c-0.038,0.14-0.161,0.234-0.309,0.234H0v2.125
	h1.744c0.147,0,0.271,0.097,0.309,0.237C2.174,8.749,2.35,9.182,2.584,9.579c0.074,0.125,0.053,0.28-0.049,0.387L1.3,11.197
	l1.501,1.502l1.234-1.233c0.102-0.104,0.26-0.122,0.383-0.05c0.402,0.232,0.832,0.41,1.284,0.53
	c0.141,0.036,0.235,0.161,0.235,0.307v1.745h2.123v-1.745c0-0.146,0.099-0.271,0.236-0.307c0.452-0.12,0.886-0.298,1.284-0.53
	c0.123-0.072,0.281-0.055,0.385,0.05l1.234,1.233l1.499-1.502l-1.233-1.231c-0.102-0.106-0.121-0.262-0.049-0.387
	C11.65,9.182,11.829,8.749,11.947,8.298 M7,9.579C5.575,9.579,4.419,8.425,4.419,7c0-1.427,1.156-2.583,2.581-2.583
	c1.427,0,2.582,1.156,2.582,2.583C9.582,8.425,8.427,9.579,7,9.579"/>
</svg>
