<?xml version="1.0" encoding="utf-8"?>
<!-- Generator: Adobe Illustrator 15.0.0, SVG Export Plug-In  -->
<!DOCTYPE svg PUBLIC "-//W3C//DTD SVG 1.1//EN" "http://www.w3.org/Graphics/SVG/1.1/DTD/svg11.dtd" [
	<!ENTITY ns_flows "http://ns.adobe.com/Flows/1.0/">
]>
<svg version="1.1"
	 xmlns="http://www.w3.org/2000/svg" xmlns:xlink="http://www.w3.org/1999/xlink" xmlns:a="http://ns.adobe.com/AdobeSVGViewerExtensions/3.0/"
	 x="0px" y="0px" width="16px" height="16px" viewBox="13 69.971 16 16" enable-background="new 13 69.971 16 16"
	 xml:space="preserve">
<defs>
</defs>
<rect display="none" fill="#66A19F" width="87" height="3280.97"/>
<polyline fill="none" stroke="#333333" stroke-width="1.4173" stroke-miterlimit="10" points="25.5,72.971 16,77.971 25.5,82.971 
	"/>
<path d="M28.9,72.97c0,1.65-1.328,3-2.95,3c-1.623,0-2.95-1.35-2.95-3s1.328-3,2.95-3C27.572,69.97,28.9,71.32,28.9,72.97z"/>
<path d="M28.9,82.97c0,1.65-1.328,3-2.95,3c-1.623,0-2.95-1.35-2.95-3s1.328-3,2.95-3C27.572,79.97,28.9,81.32,28.9,82.97z"/>
<path d="M19,77.97c0,1.65-1.35,3-3,3s-3-1.35-3-3s1.35-3,3-3S19,76.32,19,77.97z"/>
<rect x="13" y="69.97" display="none" opacity="0.2" fill="#E94E47" width="16" height="16"/>
</svg>
