<?xml version="1.0" encoding="utf-8"?>
<!-- Generator: Adobe Illustrator 15.0.0, SVG Export Plug-In  -->
<!DOCTYPE svg PUBLIC "-//W3C//DTD SVG 1.1//EN" "http://www.w3.org/Graphics/SVG/1.1/DTD/svg11.dtd" [
	<!ENTITY ns_flows "http://ns.adobe.com/Flows/1.0/">
]>
<svg version="1.1"
	 xmlns="http://www.w3.org/2000/svg" xmlns:xlink="http://www.w3.org/1999/xlink" xmlns:a="http://ns.adobe.com/AdobeSVGViewerExtensions/3.0/"
	 x="0px" y="0px" width="16px" height="16px" viewBox="8 133.97 16 16" enable-background="new 8 133.97 16 16"
	 xml:space="preserve">
<defs>
</defs>
<rect display="none" fill="#66A19F" width="87" height="2381.97"/>
<g>
	<path d="M16,137.104c2.683,0,4.866,2.183,4.866,4.866s-2.183,4.866-4.866,4.866s-4.866-2.183-4.866-4.866
		S13.317,137.104,16,137.104 M16,135.97c-3.313,0-6,2.687-6,6s2.687,6,6,6s6-2.687,6-6S19.313,135.97,16,135.97L16,135.97z"/>
</g>
<line fill-rule="evenodd" clip-rule="evenodd" fill="none" stroke="#000000" stroke-width="1.7008" stroke-linecap="round" stroke-miterlimit="10" x1="16" y1="134.97" x2="16" y2="138.47"/>
<line fill-rule="evenodd" clip-rule="evenodd" fill="none" stroke="#000000" stroke-width="1.7008" stroke-linecap="round" stroke-miterlimit="10" x1="16" y1="145.47" x2="16" y2="148.97"/>
<line fill-rule="evenodd" clip-rule="evenodd" fill="none" stroke="#000000" stroke-width="1.7008" stroke-linecap="round" stroke-miterlimit="10" x1="9" y1="141.97" x2="12.5" y2="141.97"/>
<line fill-rule="evenodd" clip-rule="evenodd" fill="none" stroke="#000000" stroke-width="1.7008" stroke-linecap="round" stroke-miterlimit="10" x1="19.5" y1="141.97" x2="23" y2="141.97"/>
<circle fill-rule="evenodd" clip-rule="evenodd" cx="16" cy="141.97" r="1.188"/>
<rect x="8" y="133.97" display="none" opacity="0.2" fill="#E94E47" width="16" height="16"/>
</svg>
