<?xml version="1.0" encoding="utf-8"?>
<!-- Generator: Adobe Illustrator 18.1.0, SVG Export Plug-In . SVG Version: 6.00 Build 0)  -->
<svg version="1.1" id="Layer_1" xmlns="http://www.w3.org/2000/svg" xmlns:xlink="http://www.w3.org/1999/xlink" x="0px" y="0px"
	 width="16px" height="16px" viewBox="0 0 16 16" enable-background="new 0 0 16 16" xml:space="preserve">
<path fill="#FFFFFF" d="M15.5,5.8c-0.1-0.2-0.3-0.3-0.5-0.3h-4.9L8.4,0.8C8.4,0.6,8.2,0.5,8,0.5c-0.2,0-0.4,0.1-0.5,0.3L5.8,5.5H1
	c-0.2,0-0.4,0.1-0.5,0.3C0.5,6,0.5,6.3,0.7,6.4l3.8,2.9l-2,5.6c-0.1,0.2,0,0.4,0.2,0.6c0.2,0.1,0.4,0.1,0.6,0L8,11.9l4.7,3.5
	c0.1,0.1,0.2,0.1,0.3,0.1c0.1,0,0.2,0,0.3-0.1c0.2-0.1,0.2-0.4,0.2-0.6l-2-5.6l3.8-2.9C15.5,6.3,15.5,6,15.5,5.8z M10.3,8.9l1.7,4.7
	l-4-3l-4,3l1.7-4.7L2.5,6.5h4l1.4-4l1.4,4h4.1L10.3,8.9z"/>
</svg>
