<?xml version="1.0" encoding="utf-8"?>
<!-- Generator: Adobe Illustrator 15.0.2, SVG Export Plug-In  -->
<!DOCTYPE svg PUBLIC "-//W3C//DTD SVG 1.1//EN" "http://www.w3.org/Graphics/SVG/1.1/DTD/svg11.dtd" [
	<!ENTITY ns_flows "http://ns.adobe.com/Flows/1.0/">
]>
<svg version="1.1"
	 xmlns="http://www.w3.org/2000/svg" xmlns:xlink="http://www.w3.org/1999/xlink" xmlns:a="http://ns.adobe.com/AdobeSVGViewerExtensions/3.0/"
	 x="0px" y="0px" width="16px" height="16px" viewBox="-1.322 -0.001 16 16"
	 overflow="visible" enable-background="new -1.322 -0.001 16 16" xml:space="preserve">
<defs>
</defs>
<path d="M11.102,10.812l0.004-2.752c0-0.009,0.005-0.016,0.005-0.023c0-0.043-0.021-0.076-0.031-0.115
	c-0.009-0.029-0.013-0.061-0.024-0.089c-0.025-0.056-0.057-0.099-0.098-0.143c-0.006-0.009-0.013-0.015-0.02-0.021
	c-0.033-0.029-0.056-0.07-0.096-0.092c-0.076-0.046-0.167-0.071-0.264-0.072L7.691,7.5c0,0.001,0,0.003,0,0.003H7.127l0.004-2.317
	C8.322,4.94,9.222,3.883,9.222,2.62C9.222,1.175,8.045,0,6.598,0C5.152,0,3.975,1.175,3.975,2.62c0,1.264,0.9,2.323,2.094,2.568
	L6.065,7.504L2.68,7.5c-0.096,0-0.181,0.033-0.258,0.076c-0.107,0.046-0.199,0.112-0.255,0.21C2.121,7.864,2.094,7.955,2.094,8.051
	l-0.003,2.761C0.899,11.058,0,12.115,0,13.378c0,1.445,1.177,2.621,2.624,2.621c1.447,0,2.624-1.176,2.624-2.621
	c0-1.265-0.901-2.322-2.094-2.566l0.003-2.25l5.408,0.003c0,0,0,0,0-0.001l1.479,0.001l-0.003,2.247
	c-1.193,0.246-2.091,1.304-2.091,2.566c0,1.445,1.177,2.621,2.623,2.621c1.447,0,2.624-1.176,2.624-2.621
	C13.196,12.113,12.295,11.056,11.102,10.812z M5.038,2.62c0-0.859,0.698-1.557,1.56-1.557c0.86,0,1.561,0.697,1.561,1.557
	s-0.7,1.559-1.561,1.559C5.736,4.179,5.038,3.479,5.038,2.62z M4.182,13.378c0,0.859-0.698,1.559-1.558,1.559
	c-0.861,0-1.56-0.699-1.56-1.559s0.699-1.559,1.56-1.559C3.483,11.819,4.182,12.519,4.182,13.378z M10.572,14.937
	c-0.861,0-1.56-0.699-1.56-1.559s0.698-1.559,1.56-1.559s1.559,0.699,1.559,1.559S11.434,14.937,10.572,14.937z"/>
</svg>
