<?xml version="1.0" encoding="utf-8"?>
<!-- Generator: Adobe Illustrator 16.0.2, SVG Export Plug-In . SVG Version: 6.00 Build 0)  -->
<!DOCTYPE svg PUBLIC "-//W3C//DTD SVG 1.1//EN" "http://www.w3.org/Graphics/SVG/1.1/DTD/svg11.dtd">
<svg version="1.1" id="Layer_1" xmlns="http://www.w3.org/2000/svg" xmlns:xlink="http://www.w3.org/1999/xlink" x="0px" y="0px"
	 width="16px" height="16px" viewBox="0 0 16 16" enable-background="new 0 0 16 16" xml:space="preserve">
<path d="M22.923-8.587c-3.123,3.124-3.123,8.19,0,11.313c3.124,3.125,8.191,3.125,11.313,0c3.125-3.123,3.125-8.189,0-11.313
	C31.114-11.711,26.047-11.711,22.923-8.587 M32.581-3.931c0.553,0,1,0.447,1,1c0,0.276-0.11,0.526-0.293,0.707
	c-0.183,0.181-0.433,0.292-0.707,0.292l-3.002,0.001V1.07c0.002,0.275-0.108,0.525-0.291,0.705
	c-0.183,0.182-0.433,0.293-0.708,0.293c-0.553,0-0.999-0.447-1-1v-2.999h-2.999c-0.554-0.001-1-0.448-1-1c0-0.552,0.446-1,1-1h2.999
	v-3c0-0.553,0.447-1,1-1c0.554,0,1.001,0.447,1.001,1L29.579-3.93L32.581-3.931z"/>
<path fill="#B1B3B4" d="M35.438,17.073H21.725c-0.633,0-1.144,0.516-1.144,0.878v7.625c0,0.029,0.022,0.057,0.028,0.084
	c0.304,4.143,3.75,7.413,7.972,7.413c4.221,0,7.668-3.271,7.971-7.413c0.007-0.029,0.029-0.055,0.029-0.086v-7.646
	C36.581,17.564,36.066,17.073,35.438,17.073z"/>
<g>
	<g>
		<ellipse fill="#B1B3B4" cx="40.287" cy="5.099" rx="3.705" ry="3.87"/>
	</g>
	<rect x="46.186" y="-2.93" fill="#B1B3B4" width="5.844" height="6.104"/>
	<path fill="#B1B3B4" d="M52.029,3.682h-5.846c-0.27,0-0.484-0.227-0.484-0.51V-2.93c0-0.281,0.217-0.508,0.484-0.508h5.846
		c0.271,0,0.488,0.227,0.488,0.508v6.104C52.518,3.455,52.3,3.682,52.029,3.682z M46.673,2.664h4.87v-5.085h-4.87V2.664z"/>
	<path fill="#B1B3B4" d="M52.089,5.375h-5.899c-0.271,0-0.488,0.231-0.488,0.393v3.425c0,0.014,0.009,0.024,0.012,0.039
		c0.131,1.86,1.613,3.33,3.432,3.33c1.813,0,3.297-1.47,3.428-3.33c0.002-0.017,0.013-0.025,0.013-0.039V5.758
		C52.581,5.594,52.359,5.375,52.089,5.375z"/>
</g>
<g>
	<g>
		<path d="M37.771-18.239c0,0.825-0.676,1.5-1.5,1.5h-13c-0.826,0-1.5-0.675-1.5-1.5v-13c0-0.825,0.674-1.5,1.5-1.5h13
			c0.824,0,1.5,0.675,1.5,1.5V-18.239z"/>
	</g>
	<g>
		
			<circle fill="none" stroke="#FFFFFF" stroke-width="0.75" stroke-linecap="round" stroke-miterlimit="10" stroke-dasharray="2.5714,2.5714" cx="29.771" cy="-24.739" r="6.67"/>
	</g>
	<circle fill="#FFFFFF" stroke="#FFFFFF" stroke-linecap="round" stroke-miterlimit="10" cx="29.771" cy="-24.739" r="2.325"/>
</g>
<g>
	<g>
		<path d="M68.582-18.894c0,0.825-0.676,1.5-1.5,1.5h-13c-0.826,0-1.5-0.675-1.5-1.5v-13c0-0.825,0.674-1.5,1.5-1.5h13
			c0.824,0,1.5,0.675,1.5,1.5V-18.894z"/>
	</g>
	<g>
		<g>
			<path fill="#FFFFFF" d="M57.553-21.375c-0.182,0.184-0.479,0.184-0.662,0l-0.33-0.33c-0.184-0.183-0.184-0.48,0-0.663
				l7.049-7.046c0.186-0.183,0.482-0.183,0.662-0.002l0.332,0.332c0.184,0.183,0.184,0.479,0,0.662L57.553-21.375z"/>
		</g>
		<g>
			<path fill="#FFFFFF" d="M64.604-22.366c0.186,0.182,0.186,0.48,0,0.663l-0.332,0.33c-0.184,0.182-0.479,0.182-0.662,0
				l-7.049-7.049c-0.184-0.183-0.184-0.481,0-0.662l0.332-0.332c0.184-0.181,0.479-0.181,0.66,0L64.604-22.366z"/>
		</g>
	</g>
	<g>
		
			<circle fill="none" stroke="#FFFFFF" stroke-width="0.75" stroke-linecap="round" stroke-miterlimit="10" cx="60.582" cy="-25.394" r="7.16"/>
	</g>
</g>
<g>
	
		<line fill="none" stroke="#000000" stroke-width="2.2" stroke-linecap="round" stroke-miterlimit="10" x1="11.438" y1="8" x2="4.578" y2="8"/>
</g>
<g>
	<g>
		<path d="M-2.615-17.571c0,0.275-0.225,0.5-0.5,0.5H-7.5c-0.275,0-0.5-0.225-0.5-0.5v-14.243c0-0.275,0.225-0.5,0.5-0.5h4.385
			c0.275,0,0.5,0.225,0.5,0.5V-17.571z"/>
	</g>
	<path d="M1.615-32.739"/>
	<g>
		<path d="M0.09-31.896c0-0.413,0.238-0.511,0.529-0.218l6.852,6.89c0.291,0.292,0.291,0.771,0,1.063l-6.852,6.89
			c-0.291,0.293-0.529,0.194-0.529-0.218V-31.896z"/>
	</g>
</g>
<g>
	<circle fill="#31BADD" cx="-31.451" cy="-18.069" r="8"/>
	<path fill="#FFFFFF" d="M-30.474-21.87c-0.271,0.25-0.596,0.375-0.975,0.375c-0.377,0-0.703-0.125-0.976-0.375
		c-0.271-0.25-0.405-0.554-0.405-0.908s0.137-0.66,0.405-0.912c0.272-0.252,0.599-0.379,0.976-0.379
		c0.379,0,0.703,0.127,0.975,0.379c0.268,0.252,0.402,0.558,0.402,0.912S-30.207-22.12-30.474-21.87z"/>
	<path fill="#FFFFFF" d="M-30.289-19.925c-0.094-0.084-0.224-0.131-0.343-0.19c-0.264-0.127-0.561-0.216-0.946-0.216
		c-0.309,0-0.635,0.057-0.981,0.166c-0.055,0.019-0.118,0.046-0.172,0.063c-0.064,0.142-0.103,0.3-0.103,0.466
		c0,0.11,0.034,0.213,0.063,0.313c0.205,0.018,0.367,0.057,0.453,0.138c0.104,0.103,0.162,0.285,0.162,0.548
		c0,0.014-0.006,0.03-0.006,0.045c-0.003,0.135-0.016,0.277-0.048,0.437c-0.035,0.174-0.078,0.36-0.131,0.558l-0.58,2.048
		c-0.051,0.215-0.088,0.407-0.11,0.578c-0.022,0.172-0.035,0.338-0.035,0.502c0,0.422,0.155,0.769,0.467,1.041
		c0.182,0.159,0.416,0.258,0.682,0.325c0.189,0.048,0.393,0.086,0.626,0.086c0.224,0,0.425-0.024,0.614-0.06
		c0.322-0.202,0.547-0.543,0.553-0.948c-0.188-0.019-0.345-0.056-0.436-0.129c-0.121-0.099-0.18-0.282-0.18-0.554
		c0-0.078,0.012-0.19,0.029-0.318c0.008-0.053,0.014-0.1,0.023-0.159c0.035-0.21,0.078-0.397,0.125-0.562l0.58-2.042
		c0.057-0.188,0.096-0.394,0.117-0.616c0.02-0.226,0.029-0.382,0.029-0.472C-29.833-19.306-29.988-19.657-30.289-19.925z"/>
</g>
<g>
	<g>
		<path d="M-33.049,19.715c-0.068,0.068-0.15,0.123-0.242,0.162c-0.281,0.115-0.604,0.051-0.818-0.162l-2.121-2.121
			c-0.293-0.293-0.293-0.769,0-1.061l2.121-2.122c0.215-0.216,0.537-0.279,0.818-0.163c0.279,0.117,0.463,0.391,0.463,0.693v4.242
			C-32.828,19.387-32.91,19.576-33.049,19.715z M-34.639,17.063l0.311,0.313v-0.621L-34.639,17.063z"/>
	</g>
	<g>
		<path d="M-35.346,16.313c-0.138,0-0.25,0.112-0.25,0.25v1c0,0.14,0.112,0.25,0.25,0.25h7.646c0.138,0,0.25-0.11,0.25-0.25v-1
			c0-0.138-0.112-0.25-0.25-0.25H-35.346z"/>
	</g>
	<g>
		<path d="M-26.67,24.593l-2.121,2.121c-0.215,0.216-0.537,0.278-0.816,0.163c-0.281-0.117-0.463-0.391-0.463-0.693l-0.002-4.242
			c0.002-0.303,0.184-0.575,0.463-0.691c0.281-0.116,0.604-0.052,0.818,0.162l2.121,2.122C-26.377,23.824-26.377,24.3-26.67,24.593z
			"/>
	</g>
	<g>
		<path d="M-35.449,24.563c0,0.14,0.112,0.25,0.25,0.25h7.646c0.138,0,0.25-0.11,0.25-0.25v-1c0-0.138-0.112-0.25-0.25-0.25h-7.646
			c-0.138,0-0.25,0.112-0.25,0.25V24.563z"/>
	</g>
</g>
<g>
	<g>
		<path fill="#FFFFFF" d="M-34.664,37.307c-0.068,0.067-0.15,0.123-0.242,0.161c-0.281,0.115-0.604,0.052-0.818-0.161l-2.121-2.121
			c-0.293-0.293-0.293-0.77,0-1.062l2.121-2.122c0.215-0.215,0.537-0.279,0.818-0.163c0.279,0.117,0.463,0.39,0.463,0.693v4.241
			C-34.443,36.979-34.525,37.167-34.664,37.307z M-36.254,34.652l0.311,0.312v-0.621L-36.254,34.652z"/>
	</g>
	<g>
		<path fill="#FFFFFF" d="M-36.961,33.902c-0.138,0-0.25,0.113-0.25,0.25v1c0,0.139,0.112,0.25,0.25,0.25h7.646
			c0.138,0,0.25-0.111,0.25-0.25v-1c0-0.137-0.112-0.25-0.25-0.25H-36.961z"/>
	</g>
	<g>
		<path fill="#FFFFFF" d="M-28.285,42.184l-2.121,2.121c-0.215,0.215-0.537,0.278-0.816,0.163c-0.281-0.116-0.463-0.39-0.463-0.692
			l-0.002-4.241c0.002-0.306,0.184-0.577,0.463-0.693c0.281-0.114,0.604-0.052,0.818,0.162l2.121,2.122
			C-27.992,41.415-27.992,41.891-28.285,42.184z"/>
	</g>
	<g>
		<path fill="#FFFFFF" d="M-37.064,42.152c0,0.139,0.112,0.25,0.25,0.25h7.646c0.138,0,0.25-0.111,0.25-0.25v-1
			c0-0.137-0.112-0.25-0.25-0.25h-7.646c-0.138,0-0.25,0.113-0.25,0.25V42.152z"/>
	</g>
</g>
<g>
	<path d="M-56.119,0.351c0,3.18-2.32,5.758-5.185,5.758c-2.742,0-4.986-2.362-5.174-5.353c-0.008-0.133-0.013-0.268-0.013-0.405
		c0-3.18,2.321-5.758,5.187-5.758C-58.441-5.406-56.119-2.828-56.119,0.351z M-53.305,7.725h-16l1.838-3.293l1.232-5.874
		l9.878,0.069l1.243,5.831L-53.305,7.725z"/>
	<ellipse cx="-61.306" cy="-4.992" rx="1.403" ry="1.311"/>
	<path d="M-61.306,6.428c1.405,0,2.546,0.586,2.546,1.31c0,0.723-1.141,1.962-2.546,1.962c-1.406,0-2.546-1.24-2.546-1.963
		S-62.713,6.428-61.306,6.428z"/>
</g>
<path id="checkmark" display="none" fill="#FFFFFF" d="M7.192,11.793c-0.213,0-0.419-0.085-0.57-0.236l-2.42-2.41
	c-0.315-0.313-0.315-0.821,0-1.137c0.315-0.314,0.825-0.313,1.141,0l1.796,1.789l3.468-4.146c0.283-0.341,0.793-0.387,1.137-0.102
	c0.342,0.283,0.388,0.79,0.104,1.131l-4.034,4.822c-0.146,0.173-0.356,0.277-0.583,0.288C7.216,11.793,7.204,11.793,7.192,11.793z"
	/>
<g id="lines">
	
		<line fill="none" stroke="#FFFFFF" stroke-width="1.8" stroke-linecap="round" stroke-miterlimit="24" x1="-64.926" y1="0.332" x2="-63.452" y2="4.736"/>
	
		<line fill="none" stroke="#FFFFFF" stroke-width="1.8" stroke-linecap="round" stroke-miterlimit="24" x1="-61.328" y1="-0.365" x2="-61.328" y2="4.559"/>
	
		<line fill="none" stroke="#FFFFFF" stroke-width="1.8" stroke-linecap="round" stroke-miterlimit="24" x1="-57.684" y1="0.332" x2="-59.156" y2="4.736"/>
</g>
<g>
	<path d="M8,2.5c3.032,0,5.5,2.467,5.5,5.5c0,3.032-2.468,5.5-5.5,5.5c-3.033,0-5.5-2.468-5.5-5.5C2.5,4.967,4.967,2.5,8,2.5 M8,0.5
		C3.857,0.5,0.5,3.858,0.5,8c0,4.143,3.357,7.5,7.5,7.5s7.5-3.357,7.5-7.5C15.5,3.858,12.143,0.5,8,0.5L8,0.5z"/>
</g>
</svg>
