<?xml version="1.0" encoding="utf-8"?>
<!-- Generator: Adobe Illustrator 16.0.2, SVG Export Plug-In . SVG Version: 6.00 Build 0)  -->
<!DOCTYPE svg PUBLIC "-//W3C//DTD SVG 1.1//EN" "http://www.w3.org/Graphics/SVG/1.1/DTD/svg11.dtd">
<svg version="1.1" id="Layer_1" xmlns="http://www.w3.org/2000/svg" xmlns:xlink="http://www.w3.org/1999/xlink" x="0px" y="0px"
	 width="16px" height="16px" viewBox="0 0 16 16" enable-background="new 0 0 16 16" xml:space="preserve">
<path d="M22.923-8.587c-3.123,3.124-3.123,8.19,0,11.313c3.124,3.125,8.191,3.125,11.314,0c3.125-3.123,3.125-8.189,0-11.313
	C31.114-11.711,26.047-11.711,22.923-8.587 M32.581-3.931c0.553,0,1,0.447,1,1c0,0.276-0.111,0.526-0.293,0.707
	s-0.432,0.292-0.707,0.292l-3.002,0.001V1.07c0.002,0.275-0.109,0.525-0.291,0.705c-0.182,0.182-0.432,0.293-0.708,0.293
	c-0.552,0-0.999-0.447-1-1v-2.999h-2.999c-0.553-0.001-1-0.448-1-1c0-0.552,0.447-1,1-1h2.999v-3c0-0.553,0.447-1,1-1
	c0.554,0,1.001,0.447,1.001,1L29.579-3.93L32.581-3.931z"/>
<path fill="#B1B3B4" d="M35.438,17.073H21.724c-0.632,0-1.143,0.516-1.143,0.878v7.625c0,0.029,0.023,0.057,0.029,0.084
	c0.303,4.143,3.75,7.413,7.971,7.413s7.668-3.271,7.971-7.413c0.006-0.029,0.029-0.055,0.029-0.086v-7.646
	C36.581,17.564,36.067,17.073,35.438,17.073z"/>
<g>
	<g>
		<ellipse fill="#B1B3B4" cx="40.287" cy="5.099" rx="3.705" ry="3.87"/>
	</g>
	<rect x="46.185" y="-2.93" fill="#B1B3B4" width="5.845" height="6.104"/>
	<path fill="#B1B3B4" d="M52.029,3.682h-5.845c-0.269,0-0.485-0.227-0.485-0.51V-2.93c0-0.281,0.217-0.508,0.485-0.508h5.845
		c0.271,0,0.488,0.227,0.488,0.508v6.104C52.518,3.455,52.3,3.682,52.029,3.682z M46.673,2.664h4.87v-5.085h-4.87V2.664z"/>
	<path fill="#B1B3B4" d="M52.089,5.375h-5.899c-0.271,0-0.49,0.231-0.49,0.393v3.426c0,0.013,0.009,0.025,0.012,0.038
		c0.131,1.862,1.613,3.331,3.43,3.331c1.814,0,3.298-1.469,3.428-3.331c0.002-0.015,0.013-0.025,0.013-0.038V5.758
		C52.581,5.594,52.359,5.375,52.089,5.375z"/>
</g>
<g>
	<g>
		<path d="M37.771-18.239c0,0.825-0.675,1.5-1.5,1.5h-13c-0.825,0-1.5-0.675-1.5-1.5v-13c0-0.825,0.675-1.5,1.5-1.5h13
			c0.825,0,1.5,0.675,1.5,1.5V-18.239z"/>
	</g>
	<g>
		
			<circle fill="none" stroke="#FFFFFF" stroke-width="0.75" stroke-linecap="round" stroke-miterlimit="10" stroke-dasharray="2.5714,2.5714" cx="29.772" cy="-24.739" r="6.67"/>
	</g>
	<circle fill="#FFFFFF" stroke="#FFFFFF" stroke-linecap="round" stroke-miterlimit="10" cx="29.771" cy="-24.739" r="2.325"/>
</g>
<g>
	<g>
		<path d="M68.582-18.894c0,0.825-0.676,1.5-1.5,1.5h-13c-0.826,0-1.5-0.675-1.5-1.5v-13c0-0.825,0.674-1.5,1.5-1.5h13
			c0.824,0,1.5,0.675,1.5,1.5V-18.894z"/>
	</g>
	<g>
		<g>
			<path fill="#FFFFFF" d="M57.553-21.375c-0.182,0.184-0.479,0.184-0.662,0l-0.33-0.33c-0.184-0.183-0.184-0.48,0-0.663
				l7.049-7.046c0.184-0.183,0.482-0.183,0.662-0.002l0.332,0.332c0.182,0.183,0.182,0.479,0,0.662L57.553-21.375z"/>
		</g>
		<g>
			<path fill="#FFFFFF" d="M64.604-22.366c0.184,0.182,0.184,0.48,0,0.663l-0.332,0.33c-0.184,0.182-0.48,0.182-0.662,0
				l-7.049-7.049c-0.184-0.183-0.184-0.481,0-0.662l0.332-0.332c0.182-0.181,0.479-0.181,0.66,0L64.604-22.366z"/>
		</g>
	</g>
	<g>
		
			<circle fill="none" stroke="#FFFFFF" stroke-width="0.75" stroke-linecap="round" stroke-miterlimit="10" cx="60.582" cy="-25.394" r="7.16"/>
	</g>
</g>
<g>
	<g>
		<path fill="#FFFFFF" d="M68.582,27.463c-3.805,0-6.9-3.096-6.9-6.9s3.096-6.9,6.9-6.9s6.9,3.096,6.9,6.9
			S72.387,27.463,68.582,27.463z"/>
		<path d="M68.582,14.763c3.198,0,5.8,2.602,5.8,5.8s-2.602,5.8-5.8,5.8s-5.8-2.602-5.8-5.8S65.384,14.763,68.582,14.763
			 M68.582,12.563c-4.418,0-8,3.581-8,8s3.582,8,8,8c4.419,0,8-3.581,8-8S73.001,12.563,68.582,12.563L68.582,12.563z"/>
	</g>
	<g>
		
			<line fill="#FFFFFF" stroke="#000000" stroke-width="2.2" stroke-linecap="round" stroke-miterlimit="10" x1="72.02" y1="20.563" x2="65.146" y2="20.563"/>
	</g>
</g>
<g>
	<g>
		<path d="M-2.615-17.571c0,0.275-0.225,0.5-0.5,0.5H-7.5c-0.275,0-0.5-0.225-0.5-0.5v-14.243c0-0.275,0.225-0.5,0.5-0.5h4.385
			c0.275,0,0.5,0.225,0.5,0.5V-17.571z"/>
	</g>
	<path d="M1.615-32.739"/>
	<g>
		<path d="M0.09-31.896c0-0.413,0.238-0.511,0.529-0.218l6.852,6.89c0.291,0.292,0.291,0.771,0,1.063l-6.852,6.89
			c-0.291,0.293-0.529,0.194-0.529-0.218V-31.896z"/>
	</g>
</g>
<g>
	<circle fill="#31BADD" cx="-31.451" cy="-18.069" r="8"/>
	<path fill="#FFFFFF" d="M-30.474-21.87c-0.271,0.25-0.596,0.375-0.975,0.375c-0.377,0-0.703-0.125-0.976-0.375
		c-0.271-0.25-0.405-0.554-0.405-0.908s0.137-0.66,0.405-0.912c0.272-0.252,0.599-0.379,0.976-0.379
		c0.379,0,0.703,0.127,0.975,0.379c0.268,0.252,0.402,0.558,0.402,0.912S-30.207-22.12-30.474-21.87z"/>
	<path fill="#FFFFFF" d="M-30.289-19.925c-0.094-0.084-0.224-0.131-0.343-0.19c-0.264-0.127-0.561-0.216-0.946-0.216
		c-0.309,0-0.635,0.057-0.981,0.166c-0.055,0.019-0.118,0.046-0.172,0.063c-0.064,0.142-0.103,0.3-0.103,0.466
		c0,0.11,0.034,0.213,0.063,0.313c0.205,0.018,0.367,0.057,0.453,0.138c0.104,0.103,0.162,0.285,0.162,0.548
		c0,0.014-0.006,0.03-0.006,0.045c-0.003,0.135-0.016,0.277-0.048,0.437c-0.035,0.174-0.078,0.36-0.131,0.558l-0.58,2.048
		c-0.051,0.215-0.088,0.407-0.11,0.578c-0.022,0.172-0.035,0.338-0.035,0.502c0,0.422,0.155,0.769,0.467,1.041
		c0.182,0.159,0.416,0.258,0.682,0.325c0.189,0.048,0.393,0.086,0.626,0.086c0.224,0,0.425-0.024,0.614-0.06
		c0.322-0.202,0.547-0.543,0.553-0.948c-0.188-0.019-0.345-0.056-0.436-0.129c-0.121-0.099-0.18-0.282-0.18-0.554
		c0-0.078,0.012-0.19,0.029-0.318c0.008-0.053,0.014-0.1,0.023-0.159c0.035-0.21,0.078-0.397,0.125-0.562l0.58-2.042
		c0.057-0.188,0.096-0.394,0.117-0.616c0.02-0.226,0.029-0.382,0.029-0.472C-29.833-19.306-29.988-19.657-30.289-19.925z"/>
</g>
<g>
	<g>
		<path d="M46.984,21.523c-0.068,0.068-0.15,0.123-0.242,0.162c-0.281,0.115-0.604,0.051-0.818-0.162l-2.121-2.121
			c-0.293-0.293-0.293-0.768,0-1.061l2.121-2.121c0.215-0.215,0.537-0.279,0.818-0.164c0.279,0.117,0.463,0.391,0.463,0.693v4.242
			C47.205,21.195,47.123,21.385,46.984,21.523z M45.395,18.871l0.311,0.311v-0.621L45.395,18.871z"/>
	</g>
	<g>
		<path d="M44.688,18.121c-0.138,0-0.25,0.113-0.25,0.25v1c0,0.139,0.112,0.25,0.25,0.25h7.647c0.138,0,0.25-0.111,0.25-0.25v-1
			c0-0.137-0.112-0.25-0.25-0.25H44.688z"/>
	</g>
	<g>
		<path d="M53.364,26.402l-2.121,2.121c-0.215,0.215-0.537,0.277-0.816,0.162c-0.281-0.117-0.463-0.389-0.463-0.693l-0.002-4.242
			c0.002-0.303,0.184-0.576,0.463-0.693c0.281-0.115,0.604-0.051,0.818,0.162l2.121,2.123
			C53.657,25.633,53.657,26.109,53.364,26.402z"/>
	</g>
	<g>
		<path d="M44.584,26.371c0,0.138,0.112,0.25,0.25,0.25h7.647c0.138,0,0.25-0.112,0.25-0.25v-1c0-0.138-0.112-0.25-0.25-0.25h-7.647
			c-0.138,0-0.25,0.112-0.25,0.25V26.371z"/>
	</g>
</g>
<g>
	<g>
		<path fill="#FFFFFF" d="M6.401,7.152c-0.068,0.068-0.15,0.123-0.242,0.162C5.878,7.43,5.556,7.365,5.341,7.152L3.22,5.031
			c-0.293-0.293-0.293-0.769,0-1.061l2.121-2.122c0.215-0.215,0.537-0.279,0.818-0.163c0.279,0.117,0.463,0.39,0.463,0.693v4.242
			C6.622,6.824,6.54,7.014,6.401,7.152z M4.812,4.5l0.311,0.311V4.189L4.812,4.5z"/>
	</g>
	<g>
		<path fill="#FFFFFF" d="M4.104,3.75c-0.138,0-0.25,0.112-0.25,0.25v1c0,0.138,0.112,0.25,0.25,0.25h7.646
			c0.138,0,0.25-0.112,0.25-0.25V4c0-0.138-0.112-0.25-0.25-0.25H4.104z"/>
	</g>
	<g>
		<path fill="#FFFFFF" d="M12.78,12.03l-2.121,2.121c-0.215,0.215-0.537,0.278-0.816,0.163c-0.281-0.117-0.463-0.39-0.463-0.693
			L9.378,9.379C9.38,9.075,9.562,8.802,9.841,8.686c0.281-0.116,0.604-0.052,0.818,0.162l2.121,2.122
			C13.073,11.262,13.073,11.737,12.78,12.03z"/>
	</g>
	<g>
		<path fill="#FFFFFF" d="M4.001,12c0,0.138,0.112,0.25,0.25,0.25h7.646c0.138,0,0.25-0.112,0.25-0.25v-1
			c0-0.138-0.112-0.25-0.25-0.25H4.251c-0.138,0-0.25,0.112-0.25,0.25V12z"/>
	</g>
</g>
<g>
	<path d="M-20.475-1.225c0,3.18-2.322,5.758-5.185,5.758c-2.742,0-4.986-2.362-5.174-5.353c-0.008-0.134-0.013-0.269-0.013-0.405
		c0-3.18,2.321-5.758,5.187-5.758C-22.797-6.983-20.475-4.405-20.475-1.225z"/>
	<polygon points="-19.254,6.813 -32.066,6.813 -30.847,-1.854 -20.475,-1.854 	"/>
	<ellipse cx="-25.661" cy="-6.569" rx="1.403" ry="1.311"/>
	<ellipse cx="-25.661" cy="6.813" rx="2.546" ry="1.309"/>
</g>
<g>
	<path d="M1.019-8.453c0,3.18-2.321,5.758-5.186,5.758c-2.741,0-4.985-2.362-5.173-5.353c-0.008-0.134-0.013-0.269-0.013-0.405
		c0-3.18,2.321-5.758,5.186-5.758S1.019-11.633,1.019-8.453z"/>
	<polygon points="2.239,-0.414 -10.573,-0.414 -9.353,-9.082 1.019,-9.082 	"/>
	<ellipse cx="-4.167" cy="-13.797" rx="1.403" ry="1.311"/>
	<ellipse cx="-4.167" cy="-0.414" rx="2.546" ry="1.309"/>
	<path fill="#FFFFFF" d="M-4.612-2.695c-0.213,0-0.419-0.085-0.57-0.236l-2.42-2.41c-0.315-0.314-0.315-0.823,0-1.137
		s0.825-0.313,1.141,0l1.796,1.789l3.468-4.146c0.285-0.341,0.794-0.387,1.137-0.102c0.342,0.283,0.388,0.79,0.103,1.131
		l-4.033,4.822c-0.146,0.173-0.356,0.278-0.583,0.288C-4.588-2.695-4.6-2.695-4.612-2.695z"/>
</g>
<g>
	<g>
		<path d="M14.779-11.072c0,3.18-2.321,5.758-5.186,5.758c-2.741,0-4.985-2.362-5.173-5.353c-0.008-0.134-0.013-0.269-0.013-0.405
			c0-3.18,2.321-5.758,5.186-5.758S14.779-14.252,14.779-11.072z"/>
		<polygon points="16,-3.033 3.188,-3.033 4.408,-11.701 14.779,-11.701 		"/>
		<ellipse cx="9.594" cy="-16.416" rx="1.403" ry="1.311"/>
		<ellipse cx="9.594" cy="-3.033" rx="2.546" ry="1.309"/>
	</g>
	
		<line fill="#FFFFFF" stroke="#FFFFFF" stroke-linecap="round" stroke-linejoin="bevel" stroke-miterlimit="24" x1="5.996" y1="-11.189" x2="7.47" y2="-6.048"/>
	
		<line fill="#FFFFFF" stroke="#FFFFFF" stroke-linecap="round" stroke-linejoin="bevel" stroke-miterlimit="24" x1="9.594" y1="-12.005" x2="9.594" y2="-6.256"/>
	
		<line fill="#FFFFFF" stroke="#FFFFFF" stroke-linecap="round" stroke-linejoin="bevel" stroke-miterlimit="24" x1="13.238" y1="-11.189" x2="11.765" y2="-6.048"/>
</g>
</svg>
