<?xml version="1.0" encoding="utf-8"?>
<!-- Generator: Adobe Illustrator 15.0.2, SVG Export Plug-In  -->
<!DOCTYPE svg PUBLIC "-//W3C//DTD SVG 1.1//EN" "http://www.w3.org/Graphics/SVG/1.1/DTD/svg11.dtd" [
	<!ENTITY ns_flows "http://ns.adobe.com/Flows/1.0/">
]>
<svg version="1.1"
	 xmlns="http://www.w3.org/2000/svg" xmlns:xlink="http://www.w3.org/1999/xlink" xmlns:a="http://ns.adobe.com/AdobeSVGViewerExtensions/3.0/"
	 x="0px" y="0px" width="16px" height="16px" viewBox="-1 -1 16 16" overflow="visible" enable-background="new -1 -1 16 16"
	 xml:space="preserve">
<defs>
</defs>
<path d="M0.75,4.5c-0.097,0-0.194-0.019-0.287-0.056C0.183,4.328,0,4.054,0,3.75v-3C0,0.337,0.336,0,0.75,0h3
	c0.304,0,0.577,0.184,0.693,0.464C4.559,0.744,4.495,1.066,4.28,1.28l-3,3C1.137,4.425,0.945,4.5,0.75,4.5 M1.5,1.5v0.439L1.939,1.5
	H1.5z"/>
<path d="M13.25,4.5c-0.195,0-0.387-0.075-0.53-0.22l-3-3C9.505,1.066,9.441,0.744,9.557,0.464C9.673,0.184,9.946,0,10.25,0h3
	C13.664,0,14,0.337,14,0.75v3c0,0.304-0.183,0.578-0.463,0.694C13.444,4.481,13.347,4.5,13.25,4.5 M12.061,1.5L12.5,1.939V1.5
	H12.061z"/>
<path d="M13.25,14h-3c-0.304,0-0.577-0.182-0.693-0.463c-0.115-0.279-0.052-0.602,0.163-0.816l3-3
	c0.215-0.214,0.537-0.279,0.817-0.162C13.816,9.674,14,9.946,14,10.25v3C14,13.664,13.664,14,13.25,14"/>
<path d="M3.75,14h-3C0.336,14,0,13.664,0,13.25v-3c0-0.304,0.183-0.576,0.463-0.691c0.28-0.117,0.602-0.052,0.817,0.162l3,3
	c0.215,0.215,0.278,0.537,0.163,0.816C4.327,13.818,4.054,14,3.75,14 M1.5,12.5h0.439L1.5,12.062V12.5z"/>
<rect x="2.455" y="-0.162" transform="matrix(0.7071 -0.7071 0.7071 0.7071 -1.3279 3.2048)" width="1.5" height="6.735"/>
<rect x="10.045" y="-0.163" transform="matrix(0.7068 0.7074 -0.7074 0.7068 5.433 -6.6972)" width="1.501" height="6.736"/>
<rect x="7.428" y="10.046" transform="matrix(-0.7071 -0.7071 0.7071 -0.7071 10.7951 26.0633)" width="6.735" height="1.501"/>
<rect x="2.454" y="7.428" transform="matrix(-0.7068 -0.7074 0.7074 -0.7068 -2.1678 20.6933)" width="1.501" height="6.735"/>
</svg>
