<?xml version="1.0" encoding="utf-8"?>
<!-- Generator: Adobe Illustrator 15.0.0, SVG Export Plug-In . SVG Version: 6.00 Build 0)  -->
<!DOCTYPE svg PUBLIC "-//W3C//DTD SVG 1.1//EN" "http://www.w3.org/Graphics/SVG/1.1/DTD/svg11.dtd">
<svg version="1.1" id="Layer_1" xmlns="http://www.w3.org/2000/svg" xmlns:xlink="http://www.w3.org/1999/xlink" x="0px" y="0px"
	 width="16px" height="16px" viewBox="0 0 16 16" enable-background="new 0 0 16 16" xml:space="preserve">
<rect display="none" fill="#66A19F" width="87" height="2381.97"/>
<rect x="8" y="389.97" display="none" opacity="0.2" fill="#E94E47" enable-background="new    " width="16" height="16"/>
<g>
	<g>
		<path d="M14.654,12.264c0.022-0.094,0.106-0.156,0.201-0.156H16v-1.394h-1.145c-0.095,0-0.179-0.063-0.201-0.155
			c-0.077-0.295-0.194-0.58-0.348-0.843c-0.048-0.079-0.035-0.183,0.03-0.25l0.81-0.812l-0.983-0.981l-0.81,0.808
			c-0.066,0.068-0.172,0.08-0.252,0.033c-0.263-0.153-0.547-0.27-0.841-0.347c-0.092-0.022-0.155-0.108-0.155-0.201V6.82h-1.393
			v1.145c0,0.093-0.062,0.179-0.156,0.201C10.262,8.244,9.98,8.36,9.715,8.514c-0.08,0.047-0.184,0.035-0.25-0.033L8.656,7.673
			L7.672,8.654l0.81,0.812c0.067,0.067,0.083,0.171,0.032,0.25c-0.153,0.263-0.269,0.548-0.349,0.843
			c-0.024,0.092-0.106,0.155-0.203,0.155H6.819v1.394h1.143c0.097,0,0.179,0.062,0.203,0.156c0.08,0.295,0.195,0.576,0.349,0.842
			c0.051,0.078,0.035,0.183-0.032,0.25l-0.81,0.809l0.984,0.984l0.809-0.81c0.066-0.067,0.17-0.079,0.25-0.032
			c0.266,0.153,0.547,0.271,0.844,0.349c0.092,0.022,0.155,0.106,0.155,0.2V16h1.392v-1.145c0-0.095,0.064-0.179,0.156-0.201
			c0.295-0.077,0.578-0.194,0.842-0.348c0.08-0.048,0.185-0.035,0.252,0.031l0.809,0.811l0.984-0.985l-0.811-0.808
			c-0.066-0.068-0.078-0.172-0.031-0.252C14.46,12.84,14.577,12.559,14.654,12.264z M11.408,13.104
			c-0.934,0-1.692-0.759-1.692-1.692c0-0.937,0.759-1.695,1.692-1.695c0.938,0,1.695,0.759,1.695,1.695
			C13.104,12.346,12.346,13.104,11.408,13.104z"/>
	</g>
</g>
<g>
	<path d="M2.341,6.652C2.556,6.866,2.878,6.93,3.159,6.815C3.251,6.776,3.333,6.72,3.401,6.652
		c0.139-0.138,0.22-0.327,0.22-0.53V4.75H9v-1.5H3.622V1.878c0-0.304-0.184-0.577-0.463-0.693C2.878,1.069,2.556,1.134,2.341,1.349
		L0.22,3.47c-0.293,0.292-0.293,0.768,0,1.062L2.341,6.652z"/>
	<path d="M5.917,11.251H3.622V9.88c0-0.305-0.184-0.577-0.463-0.692C2.878,9.068,2.556,9.134,2.341,9.35L0.22,11.471
		c-0.293,0.293-0.293,0.769,0,1.062l2.121,2.12c0.215,0.215,0.537,0.279,0.818,0.164c0.092-0.039,0.174-0.096,0.242-0.164
		c0.139-0.137,0.22-0.326,0.22-0.529v-1.371H6.08c-0.108-0.43-0.171-0.877-0.171-1.341C5.909,11.355,5.916,11.305,5.917,11.251z"/>
	<path d="M7.818,7.25H4v1.5h2.597C6.913,8.18,7.329,7.673,7.818,7.25z"/>
</g>
</svg>
