<?xml version="1.0" encoding="utf-8"?>
<!-- Generator: Adobe Illustrator 16.0.2, SVG Export Plug-In . SVG Version: 6.00 Build 0)  -->
<!DOCTYPE svg PUBLIC "-//W3C//DTD SVG 1.1//EN" "http://www.w3.org/Graphics/SVG/1.1/DTD/svg11.dtd">
<svg version="1.1" id="Layer_1" xmlns="http://www.w3.org/2000/svg" xmlns:xlink="http://www.w3.org/1999/xlink" x="0px" y="0px"
	 width="16px" height="16px" viewBox="0.5 0.5 16 16" enable-background="new 0.5 0.5 16 16" xml:space="preserve">
<g>
	<path d="M15.244,4.762l0.205,0.185L12.986,2.73c-0.25-0.224-0.625-0.292-0.948-0.17C11.713,2.682,11.5,2.967,11.5,3.284v1.172V4.5
		h-7v2h7v0.044v1.172c0.001,0.212,0.096,0.411,0.255,0.556c0.078,0.069,0.175,0.127,0.283,0.168c0.323,0.121,0.701,0.054,0.948-0.17
		l2.26-2.033C15.586,5.934,15.585,5.068,15.244,4.762z"/>
	<polygon fill="#515151" points="1.756,11.239 1.756,11.239 1.551,11.055 	"/>
	<path d="M5.5,9.5V9.456V8.283c0-0.213-0.095-0.411-0.254-0.555C5.167,7.658,5.071,7.6,4.962,7.559
		c-0.324-0.121-0.701-0.053-0.949,0.17L1.754,9.762c-0.34,0.305-0.339,1.17,0.002,1.479l2.257,2.028
		c0.25,0.228,0.625,0.293,0.949,0.17C5.289,13.318,5.5,13.033,5.5,12.717v-1.173V11.5h7v-2H5.5z"/>
</g>
<g>
	<path fill="#808080" d="M12.5,8.5c-2.209,0-4,1.791-4,4c0,2.207,1.791,4,4,4c2.207,0,4-1.793,4-4C16.5,10.291,14.707,8.5,12.5,8.5"
		/>
	<g>
		<path fill="#FFFFFF" d="M12,14.5c-0.132,0-0.261-0.051-0.354-0.145l-1.5-1.502c-0.195-0.194-0.195-0.512,0-0.707
			s0.512-0.195,0.707,0l1.111,1.113l2.15-2.58c0.178-0.213,0.49-0.24,0.705-0.064c0.213,0.177,0.238,0.492,0.064,0.705l-2.5,2.999
			c-0.092,0.108-0.223,0.175-0.363,0.18C12.015,14.5,12.008,14.5,12,14.5z"/>
	</g>
</g>
</svg>
