<svg id="Layer_1" data-name="Layer 1" xmlns="http://www.w3.org/2000/svg" viewBox="0 0 16 15"><defs><style>.cls-1{fill:#333;}</style></defs><title>tableView</title><path class="cls-1" d="M15.38,8H.62A.57.57,0,0,1,0,7.5.57.57,0,0,1,.62,7H15.38a.57.57,0,0,1,.62.5.57.57,0,0,1-.62.5" transform="translate(0 -1)"/><path class="cls-1" d="M15.38,12H.62A.57.57,0,0,1,0,11.5.57.57,0,0,1,.62,11H15.38a.57.57,0,0,1,.62.5.57.57,0,0,1-.62.5" transform="translate(0 -1)"/><path class="cls-1" d="M15.38,16H.62a.51.51,0,1,1,0-1H15.38a.51.51,0,1,1,0,1" transform="translate(0 -1)"/><path class="cls-1" d="M10,15.38V2.62A.57.57,0,0,1,10.5,2a.57.57,0,0,1,.5.62V15.38a.57.57,0,0,1-.5.62.57.57,0,0,1-.5-.62" transform="translate(0 -1)"/><path class="cls-1" d="M5,15.38V2.62A.57.57,0,0,1,5.5,2a.57.57,0,0,1,.5.62V15.38a.57.57,0,0,1-.5.62.57.57,0,0,1-.5-.62" transform="translate(0 -1)"/><path class="cls-1" d="M0,15.38V2.62A.57.57,0,0,1,.5,2a.57.57,0,0,1,.5.62V15.38A.57.57,0,0,1,.5,16a.57.57,0,0,1-.5-.62" transform="translate(0 -1)"/><path class="cls-1" d="M15,15.38V2.62a.51.51,0,1,1,1,0V15.38a.51.51,0,1,1-1,0" transform="translate(0 -1)"/><rect class="cls-1" width="16" height="3.22" rx="1" ry="1"/></svg>