<svg id="Layer_1" data-name="Layer 1" xmlns="http://www.w3.org/2000/svg" viewBox="0 0 16.01 15.01"><defs><style>.cls-1{fill:#fff;}</style></defs><title>tableViewWhite</title><path class="cls-1" d="M15.38,7H.62A.57.57,0,0,1,0,6.5.57.57,0,0,1,.62,6H15.38a.57.57,0,0,1,.62.5.57.57,0,0,1-.62.5" transform="translate(0)"/><path class="cls-1" d="M15.38,11H.62A.57.57,0,0,1,0,10.5.57.57,0,0,1,.62,10H15.38a.57.57,0,0,1,.62.5.57.57,0,0,1-.62.5" transform="translate(0)"/><path class="cls-1" d="M15.38,15H.62a.51.51,0,1,1,0-1H15.38a.51.51,0,1,1,0,1" transform="translate(0)"/><path class="cls-1" d="M10,14.38V1.62A.57.57,0,0,1,10.5,1a.57.57,0,0,1,.5.62V14.38a.57.57,0,0,1-.5.62.57.57,0,0,1-.5-.62" transform="translate(0)"/><path class="cls-1" d="M5,14.38V1.62A.57.57,0,0,1,5.5,1a.57.57,0,0,1,.5.62V14.38a.57.57,0,0,1-.5.62.57.57,0,0,1-.5-.62" transform="translate(0)"/><path class="cls-1" d="M0,14.38V1.62A.57.57,0,0,1,.5,1a.57.57,0,0,1,.5.62V14.38A.57.57,0,0,1,.5,15a.57.57,0,0,1-.5-.62" transform="translate(0)"/><path class="cls-1" d="M15,14.38V1.62a.51.51,0,1,1,1,0V14.38a.51.51,0,1,1-1,0" transform="translate(0)"/><rect class="cls-1" width="16" height="3.22" rx="1" ry="1"/></svg>