<?xml version="1.0" encoding="utf-8"?>
<!-- Generator: Adobe Illustrator 15.0.0, SVG Export Plug-In  -->
<!DOCTYPE svg PUBLIC "-//W3C//DTD SVG 1.1//EN" "http://www.w3.org/Graphics/SVG/1.1/DTD/svg11.dtd" [
	<!ENTITY ns_flows "http://ns.adobe.com/Flows/1.0/">
]>
<svg version="1.1"
	 xmlns="http://www.w3.org/2000/svg" xmlns:xlink="http://www.w3.org/1999/xlink" xmlns:a="http://ns.adobe.com/AdobeSVGViewerExtensions/3.0/"
	 x="0px" y="0px" width="16px" height="16px" viewBox="13 421.971 16 16" enable-background="new 13 421.971 16 16"
	 xml:space="preserve">
<defs>
</defs>
<rect display="none" fill="#66A19F" width="87" height="3280.97"/>
<path fill="#89BA17" d="M21,421.97c-4.418,0-8,3.582-8,8c0,4.418,3.582,8,8,8s8-3.582,8-8C29,425.552,25.418,421.97,21,421.97"/>
<path fill="#FFFFFF" d="M20,433.97c-0.265,0-0.519-0.105-0.707-0.293l-3-3c-0.391-0.39-0.391-1.024,0-1.414s1.023-0.391,1.414,0
	l2.226,2.226l4.299-5.159c0.353-0.424,0.983-0.482,1.408-0.128c0.424,0.354,0.481,0.984,0.128,1.408l-5,6
	c-0.18,0.216-0.442,0.346-0.723,0.359C20.03,433.97,20.015,433.97,20,433.97z"/>
<rect x="13" y="421.97" display="none" opacity="0.2" fill="#E94E47" width="16" height="16"/>
</svg>
