<?xml version="1.0" encoding="utf-8"?>
<!-- Generator: Adobe Illustrator 15.0.0, SVG Export Plug-In  -->
<!DOCTYPE svg PUBLIC "-//W3C//DTD SVG 1.1//EN" "http://www.w3.org/Graphics/SVG/1.1/DTD/svg11.dtd" [
	<!ENTITY ns_flows "http://ns.adobe.com/Flows/1.0/">
]>
<svg version="1.1"
	 xmlns="http://www.w3.org/2000/svg" xmlns:xlink="http://www.w3.org/1999/xlink" xmlns:a="http://ns.adobe.com/AdobeSVGViewerExtensions/3.0/"
	 x="0px" y="0px" width="16px" height="16px" viewBox="-1.5 0 16 16" enable-background="new -1.5 0 16 16" xml:space="preserve">
<defs>
</defs>
<path fill="#FFFFFF" d="M6.673,1.569c0.146-0.003,0.27-0.095,0.32-0.224C7.01,1.303,7.019,1.258,7.018,1.21L7.002,0.346
	C6.999,0.151,6.837-0.003,6.644,0C6.45,0.004,6.295,0.164,6.299,0.359l0.017,0.863C6.317,1.418,6.478,1.572,6.673,1.569z"/>
<path fill="#FFFFFF" d="M9.215,2.258c0.128,0.071,0.282,0.053,0.39-0.033C9.64,2.196,9.671,2.161,9.692,2.119l0.418-0.756
	c0.094-0.17,0.033-0.384-0.137-0.479c-0.17-0.094-0.385-0.031-0.479,0.14L9.077,1.78C8.983,1.95,9.045,2.164,9.215,2.258z"/>
<path fill="#FFFFFF" d="M11.427,4.292c0.045-0.007,0.088-0.021,0.129-0.047l0.74-0.446c0.168-0.1,0.221-0.316,0.121-0.482
	c-0.102-0.166-0.316-0.221-0.484-0.119l-0.74,0.446c-0.166,0.101-0.219,0.316-0.119,0.483C11.147,4.252,11.29,4.313,11.427,4.292z"
	/>
<path fill="#FFFFFF" d="M12.956,6.299l-0.863,0.017c-0.195,0.004-0.35,0.165-0.348,0.358c0.004,0.147,0.098,0.271,0.227,0.321
	c0.041,0.017,0.086,0.025,0.135,0.024l0.865-0.017c0.193-0.004,0.348-0.165,0.344-0.358C13.312,6.449,13.151,6.295,12.956,6.299z"/>
<path fill="#FFFFFF" d="M12.292,9.496l-0.756-0.418c-0.17-0.094-0.385-0.031-0.479,0.139c-0.072,0.127-0.053,0.281,0.033,0.39
	c0.027,0.034,0.063,0.064,0.105,0.088l0.756,0.418c0.17,0.094,0.385,0.032,0.479-0.138S12.464,9.59,12.292,9.496z"/>
<path fill="#FFFFFF" d="M3.642,2.124c0.102,0.166,0.317,0.22,0.484,0.12C4.251,2.168,4.312,2.026,4.292,1.89
	C4.284,1.846,4.27,1.802,4.245,1.761L3.799,1.02C3.698,0.853,3.481,0.801,3.315,0.9c-0.166,0.102-0.22,0.316-0.119,0.483
	L3.642,2.124z"/>
<path fill="#FFFFFF" d="M1.022,3.82l0.756,0.418c0.17,0.094,0.385,0.032,0.479-0.138c0.071-0.128,0.053-0.282-0.034-0.39
	C2.196,3.676,2.161,3.646,2.118,3.623L1.362,3.205C1.192,3.11,0.979,3.173,0.885,3.343C0.791,3.512,0.852,3.727,1.022,3.82z"/>
<path fill="#FFFFFF" d="M1.569,6.644C1.565,6.497,1.473,6.373,1.344,6.322C1.303,6.307,1.257,6.297,1.209,6.299L0.345,6.314
	C0.149,6.318-0.005,6.479,0,6.672c0.004,0.194,0.165,0.35,0.358,0.346l0.864-0.017C1.417,6.998,1.571,6.838,1.569,6.644z"/>
<path fill="#FFFFFF" d="M1.888,9.024C1.844,9.031,1.8,9.047,1.759,9.071L1.018,9.518C0.851,9.619,0.798,9.834,0.897,10
	c0.102,0.166,0.317,0.22,0.483,0.119l0.741-0.445c0.166-0.101,0.22-0.317,0.119-0.483C2.167,9.064,2.024,9.004,1.888,9.024z"/>
<path fill="#FFFFFF" d="M6.634,2.137c-2.538,0.017-4.5,2.084-4.5,4.627c0,1.488,0.799,2.819,1.716,3.937v1.2
	c0,0.212,0.101,0.393,0.284,0.469v0.63c0,0.094,0.059,0.185,0.109,0.264l1.221,2.518c0.089,0.138,0.242,0.219,0.406,0.219h0.764
	h0.764c0.166,0,0.317-0.082,0.407-0.219l1.222-2.518c0.051-0.077,0.108-0.17,0.108-0.264v-0.63c0.185-0.076,0.284-0.257,0.284-0.469
	v-1.2c0.918-1.117,1.717-2.448,1.717-3.937C11.134,4.221,9.172,2.153,6.634,2.137z M8.518,10.194
	c-0.089,0.106-0.127,0.24-0.116,0.37v0.929H6.634h-1.77v-0.929c0.013-0.13-0.026-0.263-0.115-0.37c-0.84-1.007-1.7-2.202-1.7-3.431
	c0-1.981,1.604-3.592,3.584-3.611c1.979,0.02,3.585,1.629,3.585,3.611C10.218,7.992,9.358,9.188,8.518,10.194z"/>
</svg>
