<?xml version="1.0" encoding="utf-8"?>
<!-- Generator: Adobe Illustrator 15.0.0, SVG Export Plug-In  -->
<!DOCTYPE svg PUBLIC "-//W3C//DTD SVG 1.1//EN" "http://www.w3.org/Graphics/SVG/1.1/DTD/svg11.dtd" [
	<!ENTITY ns_flows "http://ns.adobe.com/Flows/1.0/">
]>
<svg version="1.1"
	 xmlns="http://www.w3.org/2000/svg" xmlns:xlink="http://www.w3.org/1999/xlink" xmlns:a="http://ns.adobe.com/AdobeSVGViewerExtensions/3.0/"
	 x="0px" y="0px" width="16px" height="16px" viewBox="13 2309.971 16 16" enable-background="new 13 2309.971 16 16"
	 xml:space="preserve">
<defs>
</defs>
<rect display="none" fill="#66A19F" width="87" height="3280.97"/>
<path d="M20.539,2311.54c0.146-0.003,0.27-0.095,0.321-0.224c0.016-0.042,0.025-0.087,0.024-0.135l-0.016-0.865
	c-0.003-0.194-0.165-0.348-0.358-0.345c-0.194,0.004-0.349,0.164-0.345,0.359l0.016,0.864
	C20.184,2311.389,20.344,2311.543,20.539,2311.54z"/>
<path d="M23.081,2312.229c0.128,0.071,0.282,0.052,0.39-0.034c0.035-0.028,0.065-0.063,0.088-0.105l0.418-0.756
	c0.094-0.17,0.032-0.384-0.138-0.478c-0.17-0.094-0.384-0.032-0.478,0.139l-0.418,0.756
	C22.849,2311.921,22.911,2312.135,23.081,2312.229z"/>
<path d="M25.293,2314.263c0.044-0.007,0.087-0.022,0.129-0.047l0.74-0.446c0.167-0.1,0.22-0.317,0.12-0.483
	c-0.101-0.166-0.316-0.22-0.483-0.119l-0.74,0.446c-0.167,0.101-0.22,0.317-0.12,0.484
	C25.014,2314.223,25.156,2314.284,25.293,2314.263z"/>
<path d="M26.822,2316.27l-0.864,0.016c-0.194,0.004-0.349,0.165-0.346,0.359c0.003,0.147,0.096,0.27,0.225,0.321
	c0.042,0.016,0.087,0.025,0.135,0.024l0.865-0.016c0.194-0.004,0.348-0.165,0.345-0.359
	C27.177,2316.42,27.017,2316.266,26.822,2316.27z"/>
<path d="M26.158,2319.467l-0.756-0.418c-0.17-0.094-0.384-0.032-0.479,0.138c-0.071,0.128-0.053,0.282,0.034,0.39
	c0.028,0.035,0.063,0.065,0.105,0.088l0.756,0.418c0.17,0.094,0.384,0.032,0.478-0.138
	C26.39,2319.775,26.329,2319.561,26.158,2319.467z"/>
<path d="M17.508,2312.095c0.101,0.166,0.317,0.22,0.484,0.12c0.125-0.076,0.186-0.218,0.166-0.355
	c-0.007-0.044-0.022-0.088-0.047-0.129l-0.446-0.741c-0.101-0.167-0.317-0.219-0.483-0.119c-0.167,0.101-0.22,0.316-0.119,0.483
	L17.508,2312.095z"/>
<path d="M14.889,2313.791l0.756,0.418c0.17,0.094,0.385,0.032,0.479-0.138c0.071-0.128,0.053-0.282-0.034-0.39
	c-0.028-0.035-0.063-0.065-0.105-0.088l-0.756-0.418c-0.17-0.094-0.384-0.032-0.478,0.138
	C14.657,2313.483,14.718,2313.697,14.889,2313.791z"/>
<path d="M15.435,2316.614c-0.003-0.146-0.096-0.27-0.225-0.321c-0.041-0.016-0.087-0.025-0.135-0.024l-0.864,0.016
	c-0.195,0.004-0.349,0.165-0.345,0.358c0.004,0.194,0.165,0.349,0.359,0.345l0.864-0.016
	C15.283,2316.969,15.438,2316.808,15.435,2316.614z"/>
<path d="M15.754,2318.995c-0.044,0.007-0.088,0.022-0.129,0.047l-0.741,0.446c-0.167,0.101-0.22,0.317-0.12,0.483
	c0.101,0.166,0.317,0.219,0.483,0.119l0.741-0.446c0.166-0.1,0.22-0.317,0.12-0.483
	C16.033,2319.035,15.891,2318.974,15.754,2318.995z"/>
<path d="M20.5,2312.107c-2.538,0.017-4.5,2.084-4.5,4.627c0,1.489,0.799,2.82,1.716,3.937v1.2c0,0.212,0.1,0.393,0.284,0.469v0.63
	c0,0.094,0.058,0.185,0.109,0.264l1.221,2.517c0.089,0.138,0.242,0.219,0.407,0.219H20.5h0.764c0.165,0,0.317-0.082,0.407-0.219
	l1.221-2.517c0.051-0.078,0.109-0.17,0.109-0.264v-0.63c0.185-0.076,0.284-0.257,0.284-0.469v-1.2
	c0.917-1.117,1.716-2.448,1.716-3.937C25,2314.191,23.038,2312.124,20.5,2312.107z M22.384,2320.165
	c-0.089,0.107-0.127,0.24-0.116,0.37v0.929H20.5h-1.769v-0.929c0.012-0.13-0.027-0.263-0.116-0.37c-0.84-1.007-1.7-2.202-1.7-3.431
	c0-1.981,1.604-3.592,3.584-3.611c1.98,0.019,3.584,1.629,3.584,3.611C24.084,2317.963,23.225,2319.158,22.384,2320.165z"/>
<rect x="13" y="2309.97" display="none" opacity="0.2" fill="#E94E47" width="16" height="16"/>
</svg>
