<?xml version="1.0" encoding="utf-8"?>
<!-- Generator: Adobe Illustrator 15.0.0, SVG Export Plug-In . SVG Version: 6.00 Build 0)  -->
<!DOCTYPE svg PUBLIC "-//W3C//DTD SVG 1.1//EN" "http://www.w3.org/Graphics/SVG/1.1/DTD/svg11.dtd">
<svg version="1.1" id="Layer_1" xmlns="http://www.w3.org/2000/svg" xmlns:xlink="http://www.w3.org/1999/xlink" x="0px" y="0px"
	 width="16px" height="16px" viewBox="0 0 16 16" enable-background="new 0 0 16 16" xml:space="preserve">
<rect display="none" fill="#66A19F" width="87" height="3280.97"/>
<rect x="13" y="2757.97" display="none" opacity="0.2" fill="#E94E47" enable-background="new    " width="16" height="16"/>
<path d="M4,0.176c-0.279,0-0.533,0.116-0.713,0.301l-2.83,2.794c-0.391,0.393-0.391,1.023,0,1.414L3.27,7.531
	c0.18,0.181,0.432,0.294,0.707,0.293c0.554-0.002,1-0.447,1-1L5,1.177C4.998,0.624,4.552,0.177,4,0.176z"/>
<g>
	<path fill="none" stroke="#000000" stroke-width="2" stroke-miterlimit="10" d="M4,4c0,0,1.575,0,3.5,0S11,5.8,11,8s-1.35,4-3,4
		c-1.65,0-3,0-3,0"/>
</g>
</svg>
