<?xml version="1.0" encoding="utf-8"?>
<!-- Generator: Adobe Illustrator 15.0.0, SVG Export Plug-In  -->
<!DOCTYPE svg PUBLIC "-//W3C//DTD SVG 1.1//EN" "http://www.w3.org/Graphics/SVG/1.1/DTD/svg11.dtd" [
	<!ENTITY ns_flows "http://ns.adobe.com/Flows/1.0/">
]>
<svg version="1.1"
	 xmlns="http://www.w3.org/2000/svg" xmlns:xlink="http://www.w3.org/1999/xlink" xmlns:a="http://ns.adobe.com/AdobeSVGViewerExtensions/3.0/"
	 x="0px" y="0px" width="16px" height="16px" viewBox="-1 -1.5 16 16" enable-background="new -1 -1.5 16 16" xml:space="preserve">
<defs>
</defs>
<path fill="#FFFFFF" d="M8,5H2C0.896,5,0,5.896,0,7v4c0,1.104,0.896,2,2,2h6c1.104,0,2-0.896,2-2V7C10,5.896,9.104,5,8,5"/>
<path fill="#FFFFFF" d="M13.5,5h-1.297V2.518c0-0.73-0.658-1.324-1.469-1.324H9.266c-0.81,0-1.469,0.594-1.469,1.324v4.291L6.5,6V3
	c0-1.653,1.346-3,3-3h1c1.654,0,3,1.347,3,3V5z"/>
</svg>
