<?xml version="1.0" encoding="utf-8"?>
<!-- Generator: Adobe Illustrator 15.0.0, SVG Export Plug-In  -->
<!DOCTYPE svg PUBLIC "-//W3C//DTD SVG 1.1//EN" "http://www.w3.org/Graphics/SVG/1.1/DTD/svg11.dtd" [
	<!ENTITY ns_flows "http://ns.adobe.com/Flows/1.0/">
]>
<svg version="1.1"
	 xmlns="http://www.w3.org/2000/svg" xmlns:xlink="http://www.w3.org/1999/xlink" xmlns:a="http://ns.adobe.com/AdobeSVGViewerExtensions/3.0/"
	 x="0px" y="0px" width="16px" height="16px" viewBox="13 901.971 16 16" enable-background="new 13 901.971 16 16"
	 xml:space="preserve">
<defs>
</defs>
<rect display="none" fill="#66A19F" width="87" height="3280.97"/>
<path d="M24.5,903.97h-1c-1.654,0-3,1.346-3,3v2H17c-1.104,0-2,0.896-2,2v3c0,1.104,0.896,2,2,2h5c1.104,0,2-0.896,2-2v-3
	c0-1.104-0.896-2-2-2h-0.203v-2.483c0-0.729,0.659-1.322,1.469-1.322h1.469c0.811,0,1.469,0.594,1.469,1.322v2.483H27.5v-2
	C27.5,905.316,26.154,903.97,24.5,903.97z"/>
<rect x="13" y="901.97" display="none" opacity="0.2" fill="#E94E47" width="16" height="16"/>
</svg>
