<?xml version="1.0" encoding="utf-8"?>
<!-- Generator: Adobe Illustrator 15.0.0, SVG Export Plug-In  -->
<!DOCTYPE svg PUBLIC "-//W3C//DTD SVG 1.1//EN" "http://www.w3.org/Graphics/SVG/1.1/DTD/svg11.dtd" [
	<!ENTITY ns_flows "http://ns.adobe.com/Flows/1.0/">
]>
<svg version="1.1"
	 xmlns="http://www.w3.org/2000/svg" xmlns:xlink="http://www.w3.org/1999/xlink" xmlns:a="http://ns.adobe.com/AdobeSVGViewerExtensions/3.0/"
	 x="0px" y="0px" width="16px" height="16px" viewBox="0 0 16 16" enable-background="new 0 0 16 16" xml:space="preserve">
<defs>
</defs>
<rect display="none" fill="#66A19F" width="87" height="3280.97"/>
<path d="M8.707,1.293C8.512,1.097,8.256,1,8,1S7.488,1.098,7.293,1.293l-5,5c-0.391,0.39-0.391,1.022,0,1.413s1.023,0.391,1.414,0
	L7,4.413V11c0,0.552,0.448,1,1,1s1-0.448,1-1V4.413l3.293,3.293c0.391,0.391,1.023,0.391,1.414,0s0.391-1.023,0-1.413L8.707,1.293z"
	/>
<path d="M14,13H2c-0.552,0-1,0.448-1,1s0.448,1,1,1h12c0.552,0,1-0.448,1-1S14.552,13,14,13z"/>
</svg>
