<?xml version="1.0" encoding="utf-8"?>
<!-- Generator: Adobe Illustrator 15.0.0, SVG Export Plug-In . SVG Version: 6.00 Build 0)  -->
<!DOCTYPE svg PUBLIC "-//W3C//DTD SVG 1.1//EN" "http://www.w3.org/Graphics/SVG/1.1/DTD/svg11.dtd">
<svg version="1.1" id="Layer_1" xmlns="http://www.w3.org/2000/svg" xmlns:xlink="http://www.w3.org/1999/xlink" x="0px" y="0px"
	 width="16px" height="16px" viewBox="0 0 16 16" enable-background="new 0 0 16 16" xml:space="preserve">
<rect display="none" fill="#66A19F" width="87" height="3280.97"/>
<rect x="13" y="5.97" display="none" opacity="0.2" fill="#E94E47" enable-background="new    " width="16" height="16"/>
<g>
	<g>
		<path d="M6.121,8.211c0.009,0.007,0.021,0.013,0.03,0.02c0.17,0.119,0.344,0.227,0.53,0.312c0.063,0.031,0.131,0.049,0.196,0.074
			c0.141,0.055,0.28,0.113,0.428,0.146C7.53,8.817,7.761,8.848,8,8.848c0.238,0,0.47-0.03,0.694-0.084
			C8.842,8.73,8.98,8.672,9.122,8.617c0.064-0.025,0.134-0.043,0.197-0.074c0.185-0.084,0.358-0.192,0.529-0.311
			c0.01-0.007,0.021-0.013,0.03-0.021c0.182-0.129,0.35-0.277,0.509-0.441c0,0,0,0,0-0.001c0.79-0.811,1.3-2,1.3-3.345
			C11.688,1.981,10.037,0,8,0c-2.036,0-3.688,1.98-3.688,4.424C4.312,6.041,5.042,7.44,6.121,8.211z"/>
		<path d="M12.659,7.982c-1.383,2.13-2.404,2.483-4.659,2.483s-3.275-0.354-4.658-2.483c-1.632,1.597-1.349,3.339-1.349,5.263
			c0,0.551,0,1.224,0,1.224C1.993,15.058,2.969,16,3.531,16h2.077c0.001,0,0.002,0,0.003,0C6.228,16,6.914,16,8,16
			c1.087,0,1.771,0,2.389,0c0,0,0.002,0,0.003,0H12.5c0.531,0,1.521-1,1.521-1.562c0,0,0-0.767,0-1.317
			C14.021,11.196,14.29,9.577,12.659,7.982z"/>
	</g>
</g>
</svg>
