<?xml version="1.0" encoding="utf-8"?>
<!-- Generator: Adobe Illustrator 15.0.0, SVG Export Plug-In  -->
<!DOCTYPE svg PUBLIC "-//W3C//DTD SVG 1.1//EN" "http://www.w3.org/Graphics/SVG/1.1/DTD/svg11.dtd" [
	<!ENTITY ns_flows "http://ns.adobe.com/Flows/1.0/">
]>
<svg version="1.1"
	 xmlns="http://www.w3.org/2000/svg" xmlns:xlink="http://www.w3.org/1999/xlink" xmlns:a="http://ns.adobe.com/AdobeSVGViewerExtensions/3.0/"
	 x="0px" y="0px" width="16px" height="16px" viewBox="-1.5 0 16 16" enable-background="new -1.5 0 16 16" xml:space="preserve">
<defs>
</defs>
<path fill="#FFFFFF" d="M4.147,8.211c0.009,0.007,0.021,0.014,0.03,0.021c0.17,0.119,0.344,0.227,0.53,0.312
	C4.77,8.574,4.838,8.592,4.903,8.617c0.142,0.055,0.28,0.113,0.429,0.146c0.225,0.053,0.455,0.084,0.694,0.084
	c0.238,0,0.471-0.029,0.693-0.084C6.868,8.73,7.006,8.672,7.148,8.617c0.063-0.025,0.134-0.043,0.196-0.074
	c0.185-0.084,0.358-0.191,0.529-0.311c0.01-0.007,0.021-0.013,0.03-0.021c0.183-0.129,0.351-0.276,0.509-0.44c0,0,0,0,0-0.001
	c0.79-0.812,1.301-2,1.301-3.346C9.713,1.981,8.063,0,6.026,0C3.99,0,2.338,1.98,2.338,4.424C2.338,6.041,3.068,7.44,4.147,8.211z"
	/>
<path fill="#FFFFFF" d="M10.685,7.982c-1.384,2.129-2.404,2.482-4.659,2.482c-2.255,0-3.274-0.354-4.658-2.482
	c-1.632,1.597-1.349,3.338-1.349,5.263c0,0.551,0,1.225,0,1.225c0,0.589,0.976,1.53,1.538,1.53h2.077c0.001,0,0.002,0,0.003,0
	c0.617,0,1.303,0,2.389,0c1.087,0,1.771,0,2.388,0c0,0,0.002,0,0.004,0h2.107c0.531,0,1.521-1,1.521-1.563c0,0,0-0.767,0-1.316
	C12.047,11.195,12.315,9.577,10.685,7.982z"/>
</svg>
