<?xml version="1.0" encoding="utf-8"?>
<!-- Generator: Adobe Illustrator 15.0.0, SVG Export Plug-In  -->
<!DOCTYPE svg PUBLIC "-//W3C//DTD SVG 1.1//EN" "http://www.w3.org/Graphics/SVG/1.1/DTD/svg11.dtd" [
	<!ENTITY ns_flows "http://ns.adobe.com/Flows/1.0/">
]>
<svg version="1.1"
	 xmlns="http://www.w3.org/2000/svg" xmlns:xlink="http://www.w3.org/1999/xlink" xmlns:a="http://ns.adobe.com/AdobeSVGViewerExtensions/3.0/"
	 x="0px" y="0px" width="16px" height="16px" viewBox="-0.5 -0.5 16 16" enable-background="new -0.5 -0.5 16 16"
	 xml:space="preserve">
<defs>
</defs>
<rect x="5.29" y="1.197" fill="#E32219" width="4.458" height="12.548"/>
<path fill="#FFFFFF" d="M7.5,0C3.357,0,0,3.358,0,7.5S3.357,15,7.5,15S15,11.642,15,7.5S11.643,0,7.5,0 M7.5,12.994
	c-0.826,0-1.495-0.668-1.495-1.494c0-0.827,0.669-1.495,1.495-1.495s1.495,0.668,1.495,1.495C8.995,12.326,8.326,12.994,7.5,12.994
	 M8.5,8.314c0,0.554-0.447,1-1,1s-1-0.446-1-1v-5.63c0-0.552,0.447-1,1-1s1,0.448,1,1V8.314z"/>
</svg>
