<?xml version="1.0" encoding="utf-8"?>
<!-- Generator: Adobe Illustrator 15.0.0, SVG Export Plug-In  -->
<!DOCTYPE svg PUBLIC "-//W3C//DTD SVG 1.1//EN" "http://www.w3.org/Graphics/SVG/1.1/DTD/svg11.dtd" [
	<!ENTITY ns_flows "http://ns.adobe.com/Flows/1.0/">
]>
<svg version="1.1"
	 xmlns="http://www.w3.org/2000/svg" xmlns:xlink="http://www.w3.org/1999/xlink" xmlns:a="http://ns.adobe.com/AdobeSVGViewerExtensions/3.0/"
	 x="0px" y="0px" width="16px" height="16px" viewBox="13 2469.971 16 16" enable-background="new 13 2469.971 16 16"
	 xml:space="preserve">
<defs>
</defs>
<rect display="none" fill="#66A19F" width="87" height="3280.97"/>
<path d="M20.993,2469.97c0,0-4.733,1.037-6.142,2.684c-1.209,1.413,0.67,13.316,6.142,13.316s7.372-11.919,6.153-13.335
	C25.737,2471,20.993,2469.97,20.993,2469.97z"/>
<circle fill="#FFFFFF" cx="20.994" cy="2481.787" r="1.494"/>
<path fill="#FFFFFF" d="M21.8,2478.054c0,0.507-0.359,0.917-0.802,0.917c-0.444,0-0.798-0.41-0.798-0.917v-5.166
	c0-0.507,0.354-0.916,0.798-0.916c0.443,0,0.802,0.41,0.802,0.916V2478.054z"/>
<rect x="13" y="2469.97" display="none" opacity="0.2" fill="#E94E47" width="16" height="16"/>
</svg>
