<?xml version="1.0" encoding="utf-8"?>
<svg version="1.1"
	 xmlns="http://www.w3.org/2000/svg" xmlns:xlink="http://www.w3.org/1999/xlink" xmlns:a="http://ns.adobe.com/AdobeSVGViewerExtensions/3.0/"
	 x="0px" y="0px" width="16px" height="16px" viewBox="0 0.001 16 16" enable-background="new 0 0.001 16 16" xml:space="preserve">
<path fill="#0053a9" d="M9.477,8l2.218-2.216c0.407-0.408,0.407-1.07,0-1.478c-0.409-0.408-1.07-0.408-1.478,0L8,6.522L5.783,4.306
	c-0.408-0.408-1.069-0.408-1.477,0c-0.408,0.407-0.408,1.069,0,1.478L6.522,8l-2.216,2.217c-0.408,0.407-0.408,1.068,0,1.477
	C4.51,11.898,4.777,12,5.045,12c0.268,0,0.536-0.102,0.738-0.306L8,9.477l2.218,2.217C10.42,11.898,10.689,12,10.956,12
	c0.265,0,0.533-0.102,0.739-0.306c0.407-0.409,0.407-1.07,0-1.477L9.477,8z"/>
</svg>
