<?xml version="1.0" encoding="utf-8"?>
<!-- Generator: Adobe Illustrator 15.0.0, SVG Export Plug-In  -->
<!DOCTYPE svg PUBLIC "-//W3C//DTD SVG 1.1//EN" "http://www.w3.org/Graphics/SVG/1.1/DTD/svg11.dtd" [
	<!ENTITY ns_flows "http://ns.adobe.com/Flows/1.0/">
]>
<svg version="1.1"
	 xmlns="http://www.w3.org/2000/svg" xmlns:xlink="http://www.w3.org/1999/xlink" xmlns:a="http://ns.adobe.com/AdobeSVGViewerExtensions/3.0/"
	 x="0px" y="0px" width="50px" height="50px" viewBox="0 0 50 50" enable-background="new 0 0 50 50" xml:space="preserve">
<defs>
</defs>
<path fill="#FFFFFF" d="M48.807,5.752C49.466,5.752,50,5.226,50,4.577V3.522C49.999,1.577,48.396,0.002,46.415,0H3.585
	C1.605,0.002,0.002,1.577,0,3.522v27.826c0.002,1.943,1.605,3.519,3.585,3.521h42.83c1.979-0.002,3.584-1.575,3.585-3.521v-22.2
	c0-0.649-0.534-1.174-1.193-1.174c-0.66,0-1.197,0.523-1.197,1.174v22.198c0,0.647-0.535,1.174-1.194,1.174H3.585
	c-0.66,0-1.192-0.526-1.192-1.174V3.522c0-0.647,0.532-1.173,1.192-1.175h42.83c0.659,0.002,1.194,0.527,1.194,1.175v1.056
	C47.609,5.226,48.146,5.752,48.807,5.752z"/>
<path fill="#FFFFFF" d="M19.577,34.868v2.627h-6.245c-0.232,0-0.459,0.066-0.654,0.194L1.799,43.792
	c-0.445,0.29-0.646,0.84-0.496,1.349C1.454,45.649,1.921,46,2.451,46h45.098c0.528,0,0.998-0.351,1.148-0.857
	c0.152-0.511-0.051-1.059-0.495-1.351l-10.881-6.103c-0.194-0.128-0.423-0.194-0.653-0.194h-6.244v-2.627H19.577z M36.313,39.895
	l7.203,3.704H6.482l7.205-3.704H36.313z"/>
<path fill="#FFFFFF" d="M21.163,10.89H6.527c-0.663,0-1.198,0.537-1.198,1.2c0,0.662,0.536,1.199,1.198,1.199h14.636
	c0.659,0,1.196-0.537,1.196-1.199C22.359,11.427,21.822,10.89,21.163,10.89z"/>
<path fill="#FFFFFF" d="M43.436,12.212c-0.001-0.73-0.587-1.321-1.314-1.322H26.422c-0.726,0.001-1.313,0.592-1.313,1.322v10.444
	c0,0.729,0.588,1.32,1.313,1.321h15.699c0.727-0.001,1.313-0.591,1.314-1.321V12.212z"/>
<path fill="#FFFFFF" d="M21.163,15.968H6.527c-0.663,0-1.198,0.536-1.198,1.2c0,0.662,0.536,1.199,1.198,1.199h14.636
	c0.659,0,1.196-0.537,1.196-1.199C22.359,16.504,21.822,15.968,21.163,15.968z"/>
<path fill="#FFFFFF" d="M21.163,21.045H6.527c-0.663,0-1.198,0.537-1.198,1.2c0,0.662,0.536,1.199,1.198,1.199h14.636
	c0.659,0,1.196-0.537,1.196-1.199C22.359,21.582,21.822,21.045,21.163,21.045z"/>
</svg>
