<?xml version="1.0" encoding="utf-8"?>
<!-- Generator: Adobe Illustrator 15.0.0, SVG Export Plug-In  -->
<!DOCTYPE svg PUBLIC "-//W3C//DTD SVG 1.1//EN" "http://www.w3.org/Graphics/SVG/1.1/DTD/svg11.dtd" [
	<!ENTITY ns_flows "http://ns.adobe.com/Flows/1.0/">
]>
<svg version="1.1"
	 xmlns="http://www.w3.org/2000/svg" xmlns:xlink="http://www.w3.org/1999/xlink" xmlns:a="http://ns.adobe.com/AdobeSVGViewerExtensions/3.0/"
	 x="0px" y="0px" width="50px" height="50px" viewBox="0 0 50 50" enable-background="new 0 0 50 50" xml:space="preserve">
<defs>
</defs>
<path fill="#FFFFFF" d="M28.768,13.086c-1.129-0.517-2.375-0.804-3.702-0.804c-4.804,0.011-8.688,3.813-8.697,8.526
	c0.008,4.702,3.893,8.515,8.697,8.522c4.803-0.008,8.688-3.82,8.7-8.522c0-1.302-0.299-2.527-0.822-3.623
	C32.082,15.393,30.592,13.932,28.768,13.086z M36.502,26.348c2.313-0.531,4.047-2.688,4.047-5.271c0-2.099-1.423-3.913-3.097-4.806
	c-0.595-1.554-1.501-3.176-2.881-4.565c-2.339-2.353-5.537-3.545-9.505-3.545c-3.969,0-7.165,1.192-9.506,3.545
	c-1.379,1.39-2.285,3.012-2.881,4.565c-1.673,0.893-3.1,2.707-3.1,4.806c0,2.583,1.731,4.74,4.045,5.271
	c0.656,0.081,1.103-0.479,1.103-1.064c0,0,0-6.731,0-7.326c0-0.521,0.346-1.431,0.433-1.65c0.482-1.058,1.143-2.111,2.052-3.026
	c1.888-1.899,4.532-2.863,7.854-2.863c3.317,0,5.956,0.959,7.843,2.853c0.901,0.902,1.56,1.945,2.044,2.996
	c0.015,0.038,0.446,1.063,0.446,1.696c0,0.645,0,7.321,0,7.321C35.399,25.869,35.846,26.429,36.502,26.348z M48.806,5.739
	c0.66,0,1.194-0.524,1.194-1.172V3.514C49.999,1.573,48.396,0.002,46.415,0H3.585C1.606,0.002,0.002,1.573,0,3.514v27.765
	c0.002,1.94,1.606,3.512,3.585,3.513h9.404c-0.179,0.621-0.283,1.256-0.287,1.892c0,3.226,0,10.602,0,10.602
	c0.005,1.412,1.076,2.699,2.623,2.716H34.81c1.542-0.017,2.613-1.304,2.62-2.716c0,0,0-7.376,0-10.602
	c-0.004-0.636-0.106-1.271-0.286-1.892h9.271c1.98-0.001,3.584-1.572,3.585-3.513V9.128c0-0.648-0.534-1.171-1.194-1.171
	S47.61,8.479,47.61,9.128v22.15c-0.001,0.646-0.536,1.17-1.195,1.171H36.069c-0.181-0.285-0.371-0.566-0.578-0.834
	c-0.777-0.992-1.737-1.862-2.834-2.478c-1.766,2.207-4.507,3.103-7.591,3.103s-5.822-0.896-7.594-3.103
	c-1.094,0.615-2.054,1.485-2.83,2.478c-0.208,0.268-0.397,0.549-0.577,0.834H3.585c-0.66-0.001-1.193-0.525-1.193-1.171V3.514
	c0-0.646,0.533-1.17,1.193-1.172h42.83c0.659,0.002,1.194,0.525,1.195,1.172v1.054C47.61,5.215,48.146,5.739,48.806,5.739z
	 M31.001,35.908c0-0.623,0.516-1.13,1.15-1.13c0.639,0,1.153,0.507,1.153,1.13v9.729c0,0.623-0.515,1.129-1.153,1.129
	c-0.635,0-1.15-0.506-1.15-1.129V35.908z M16.828,35.908c0-0.623,0.514-1.13,1.152-1.13c0.636,0,1.151,0.507,1.151,1.13v9.729
	c0,0.623-0.516,1.129-1.151,1.129c-0.638,0-1.152-0.506-1.152-1.129V35.908z"/>
</svg>
