<?xml version="1.0" encoding="utf-8"?>
<!-- Generator: Adobe Illustrator 15.0.0, SVG Export Plug-In . SVG Version: 6.00 Build 0)  -->
<!DOCTYPE svg PUBLIC "-//W3C//DTD SVG 1.1//EN" "http://www.w3.org/Graphics/SVG/1.1/DTD/svg11.dtd">
<svg version="1.1" id="Layer_1" xmlns="http://www.w3.org/2000/svg" xmlns:xlink="http://www.w3.org/1999/xlink" x="0px" y="0px"
	 width="16px" height="16px" viewBox="0 0 16 16" enable-background="new 0 0 16 16" xml:space="preserve">
<path fill="#1D1D1B" d="M8,0C3.582,0,0,3.582,0,8s3.582,8,8,8s8-3.582,8-8S12.418,0,8,0z M8.608,12.149
	c-0.205,0.183-0.442,0.273-0.711,0.273c-0.277,0-0.521-0.09-0.728-0.27c-0.207-0.181-0.311-0.433-0.311-0.756
	c0-0.287,0.101-0.528,0.3-0.724c0.201-0.196,0.447-0.295,0.738-0.295c0.287,0,0.529,0.099,0.725,0.295
	c0.196,0.195,0.295,0.437,0.295,0.724C8.917,11.717,8.813,11.967,8.608,12.149z M10.46,6.227c-0.123,0.229-0.27,0.427-0.439,0.594
	C9.85,6.986,9.545,7.267,9.104,7.661c-0.122,0.111-0.22,0.208-0.293,0.292C8.738,8.038,8.684,8.114,8.647,8.185
	c-0.036,0.069-0.063,0.14-0.083,0.209c-0.02,0.07-0.049,0.193-0.089,0.368C8.408,9.135,8.194,9.32,7.837,9.32
	c-0.187,0-0.343-0.061-0.47-0.183C7.239,9.016,7.176,8.835,7.176,8.595c0-0.301,0.047-0.561,0.14-0.782
	c0.093-0.22,0.217-0.413,0.371-0.58C7.84,7.067,8.048,6.869,8.31,6.64c0.229-0.201,0.395-0.352,0.497-0.454
	c0.102-0.103,0.188-0.216,0.257-0.341c0.07-0.125,0.105-0.261,0.105-0.408c0-0.287-0.107-0.528-0.32-0.725S8.361,4.417,8.024,4.417
	c-0.394,0-0.684,0.099-0.87,0.298C6.968,4.913,6.811,5.206,6.682,5.593C6.56,5.998,6.329,6.2,5.989,6.2
	c-0.201,0-0.37-0.071-0.508-0.212C5.344,5.846,5.274,5.693,5.274,5.528c0-0.34,0.109-0.685,0.328-1.034
	C5.82,4.146,6.14,3.856,6.559,3.627s0.907-0.344,1.466-0.344c0.52,0,0.978,0.096,1.375,0.287c0.397,0.192,0.705,0.452,0.922,0.782
	c0.216,0.33,0.324,0.688,0.324,1.074C10.646,5.73,10.584,5.998,10.46,6.227z"/>
</svg>
