<?xml version="1.0" encoding="utf-8"?>
<!-- Generator: Adobe Illustrator 15.0.0, SVG Export Plug-In . SVG Version: 6.00 Build 0)  -->
<!DOCTYPE svg PUBLIC "-//W3C//DTD SVG 1.1//EN" "http://www.w3.org/Graphics/SVG/1.1/DTD/svg11.dtd">
<svg version="1.1" id="Layer_1" xmlns="http://www.w3.org/2000/svg" xmlns:xlink="http://www.w3.org/1999/xlink" x="0px" y="0px"
	 width="16px" height="16px" viewBox="0 0 16 16" enable-background="new 0 0 16 16" xml:space="preserve">
<g>
	<g>
		<path fill="#1D1D1B" d="M10.77,12.455c0,0-0.684,0.192-0.684-0.684c0-0.199,0-0.861,0-1.711H5.98
			c-0.377,0-0.684-0.308-0.684-0.684V6.639c0-0.377,0.307-0.684,0.684-0.684h4.106c0-0.818,0-1.475,0-1.732
			c0-0.919,0.684-0.662,0.684-0.662l5.133,4.447L10.77,12.455z"/>
	</g>
	<path fill="#1D1D1B" d="M9.85,14H3.099c-0.551,0-1-0.447-1-1V3c0-0.552,0.449-1,1-1H9.85V0H3.099c-1.656,0-3,1.344-3,3v10
		c0,1.656,1.344,3,3,3H9.85V14z"/>
</g>
</svg>
