<?xml version="1.0" encoding="utf-8"?>
<!-- Generator: Adobe Illustrator 15.0.0, SVG Export Plug-In  -->
<!DOCTYPE svg PUBLIC "-//W3C//DTD SVG 1.1//EN" "http://www.w3.org/Graphics/SVG/1.1/DTD/svg11.dtd" [
	<!ENTITY ns_flows "http://ns.adobe.com/Flows/1.0/">
]>
<svg version="1.1"
	 xmlns="http://www.w3.org/2000/svg" xmlns:xlink="http://www.w3.org/1999/xlink" xmlns:a="http://ns.adobe.com/AdobeSVGViewerExtensions/3.0/"
	 x="0px" y="0px" width="28px" height="28px" viewBox="0 0.001 28 28" enable-background="new 0 0.001 28 28" xml:space="preserve">
<defs>
</defs>
<path fill="#E32219" d="M14,1.001c-7.179,0-13,5.821-13,13c0,7.179,5.821,13,13,13c7.18,0,13-5.821,13-13
	C27,6.822,21.18,1.001,14,1.001"/>
<path fill="#FFFFFF" d="M20.269,17.873c0.664,0.665,0.664,1.736,0,2.398c-0.33,0.331-0.765,0.497-1.2,0.497
	c-0.434,0-0.867-0.166-1.198-0.497l-3.598-3.597l-3.598,3.597c-0.331,0.331-0.765,0.497-1.198,0.497s-0.866-0.166-1.2-0.497
	c-0.661-0.662-0.661-1.734,0-2.398l3.598-3.596L8.278,10.68c-0.661-0.662-0.661-1.735,0-2.398c0.664-0.662,1.737-0.662,2.398,0
	l3.598,3.597l3.598-3.597c0.664-0.662,1.734-0.662,2.398,0s0.664,1.735,0,2.398l-3.599,3.597L20.269,17.873z"/>
<rect display="none" opacity="0.2" fill="#E94E47" width="28" height="28"/>
</svg>
