<?xml version="1.0" encoding="utf-8"?>
<!-- Generator: Adobe Illustrator 15.0.0, SVG Export Plug-In  -->
<!DOCTYPE svg PUBLIC "-//W3C//DTD SVG 1.1//EN" "http://www.w3.org/Graphics/SVG/1.1/DTD/svg11.dtd" [
	<!ENTITY ns_flows "http://ns.adobe.com/Flows/1.0/">
]>
<svg version="1.1"
	 xmlns="http://www.w3.org/2000/svg" xmlns:xlink="http://www.w3.org/1999/xlink" xmlns:a="http://ns.adobe.com/AdobeSVGViewerExtensions/3.0/"
	 x="0px" y="0px" width="28px" height="28px" viewBox="0 0.001 28 28" enable-background="new 0 0.001 28 28" xml:space="preserve">
<defs>
</defs>
<circle fill="#00A9D4" cx="14" cy="14.001" r="13"/>
<path fill="#FFFFFF" d="M14.016,9.001c-0.541,0-1.01-0.176-1.411-0.527C12.202,8.122,12,7.626,12,6.993
	c0-0.551,0.192-1.023,0.577-1.41c0.382-0.391,0.855-0.582,1.411-0.582c0.555,0,1.029,0.191,1.423,0.582
	C15.801,5.97,16,6.443,16,6.993c0,0.625-0.2,1.117-0.596,1.473C15.005,8.822,14.542,9.001,14.016,9.001z"/>
<g>
	<path fill="#FFFFFF" d="M15.5,21.001c0,1.1-0.675,2-1.5,2s-1.5-0.9-1.5-2v-7c0-1.1,0.675-2,1.5-2s1.5,0.9,1.5,2V21.001z"/>
</g>
<rect display="none" opacity="0.2" fill="#E94E47" width="28" height="28"/>
</svg>
