<?xml version="1.0" encoding="utf-8"?>
<!-- Generator: Adobe Illustrator 15.0.0, SVG Export Plug-In  -->
<!DOCTYPE svg PUBLIC "-//W3C//DTD SVG 1.1//EN" "http://www.w3.org/Graphics/SVG/1.1/DTD/svg11.dtd" [
	<!ENTITY ns_flows "http://ns.adobe.com/Flows/1.0/">
]>
<svg version="1.1"
	 xmlns="http://www.w3.org/2000/svg" xmlns:xlink="http://www.w3.org/1999/xlink" xmlns:a="http://ns.adobe.com/AdobeSVGViewerExtensions/3.0/"
	 x="0px" y="0px" width="16px" height="16px" viewBox="13 2405.971 16 16" enable-background="new 13 2405.971 16 16"
	 xml:space="preserve">
<defs>
</defs>
<rect display="none" fill="#66A19F" width="87" height="3280.97"/>
<rect x="17" y="2409.97" fill="#FFFFFF" width="7" height="7"/>
<path d="M24.5,2408.971c-0.275,0-7.725,0-8,0s-0.5,0.225-0.5,0.5s0,7.725,0,8s0.225,0.499,0.5,0.499c0.22,0,7.78,0,8,0
	c0.275,0,0.5-0.223,0.5-0.499s0-7.725,0-8S24.775,2408.971,24.5,2408.971z M24,2416.971h-7v-7.001h7V2416.971z"/>
<line fill="none" stroke="#000000" stroke-miterlimit="10" x1="18" y1="2413.471" x2="23" y2="2413.471"/>
<rect x="13" y="2405.97" display="none" opacity="0.2" fill="#E94E47" width="16" height="16"/>
</svg>
